<?xml version="1.0" encoding="UTF-8"?>
<!DOCTYPE svg PUBLIC "-//W3C//DTD SVG 1.1//EN" "http://www.w3.org/Graphics/SVG/1.1/DTD/svg11.dtd">
<svg xmlns="http://www.w3.org/2000/svg" version="1.1" width="542px" height="460px" style="shape-rendering:geometricPrecision; text-rendering:geometricPrecision; image-rendering:optimizeQuality; fill-rule:evenodd; clip-rule:evenodd" xmlns:xlink="http://www.w3.org/1999/xlink">
<g><path style="opacity:1" fill="#656667" d="M 300.5,33.5 C 277.833,32.1667 255.167,32.1667 232.5,33.5C 237.441,32.0107 242.608,31.0107 248,30.5C 260.504,30.5131 273.004,30.5131 285.5,30.5C 290.735,30.9625 295.735,31.9625 300.5,33.5 Z"/></g>
<g><path style="opacity:1" fill="#f7f7f8" d="M 300.5,33.5 C 300.833,33.5 301.167,33.5 301.5,33.5C 314.438,35.6578 327.438,37.4911 340.5,39C 345.548,40.4053 350.548,41.9053 355.5,43.5C 356.492,43.3284 357.158,43.6618 357.5,44.5C 364.665,49.9899 370.332,56.6566 374.5,64.5C 374.171,67.2282 374.837,69.5615 376.5,71.5C 376.5,71.8333 376.5,72.1667 376.5,72.5C 376.5,83.8333 376.5,95.1667 376.5,106.5C 391.835,107.5 407.169,108.5 422.5,109.5C 422.833,109.5 423.167,109.5 423.5,109.5C 428.942,111.871 434.608,113.871 440.5,115.5C 442.336,117.588 444.669,118.921 447.5,119.5C 448.262,121.262 449.596,122.262 451.5,122.5C 455.167,126.833 459.167,130.833 463.5,134.5C 463.427,136.027 464.094,137.027 465.5,137.5C 466.34,139.853 467.674,141.853 469.5,143.5C 469.66,145.153 470.326,146.486 471.5,147.5C 471.98,150.443 472.98,153.11 474.5,155.5C 475.657,158.273 476.324,161.273 476.5,164.5C 476.298,166.95 476.631,169.283 477.5,171.5C 477.5,171.833 477.5,172.167 477.5,172.5C 477.156,177.122 477.823,181.455 479.5,185.5C 479.276,191.739 479.943,197.739 481.5,203.5C 481.5,204.5 481.5,205.5 481.5,206.5C 483.118,232.137 483.785,257.804 483.5,283.5C 481.993,295.969 481.326,308.636 481.5,321.5C 479.527,336.381 477.36,351.381 475,366.5C 473.455,372.3 471.622,377.967 469.5,383.5C 469.672,384.492 469.338,385.158 468.5,385.5C 465.677,388.475 463.344,391.808 461.5,395.5C 459.5,398.167 457.167,400.5 454.5,402.5C 452.251,403.08 450.585,404.413 449.5,406.5C 443.461,409.519 437.461,412.519 431.5,415.5C 410.102,418.433 388.768,420.767 367.5,422.5C 367.167,422.5 366.833,422.5 366.5,422.5C 350.648,422.982 334.982,423.982 319.5,425.5C 277.331,426.936 235.331,426.603 193.5,424.5C 184.683,423.385 175.683,422.718 166.5,422.5C 161.305,422.821 156.305,422.487 151.5,421.5C 140.38,419.76 129.047,418.76 117.5,418.5C 116.5,418.5 115.5,418.5 114.5,418.5C 110.32,417.269 105.986,416.269 101.5,415.5C 99.4907,413.935 97.1573,412.935 94.5,412.5C 92.8185,410.992 90.8185,409.992 88.5,409.5C 88.0269,408.094 87.0269,407.427 85.5,407.5C 85.0269,406.094 84.0269,405.427 82.5,405.5C 78.5,400.833 74.1667,396.5 69.5,392.5C 68.6597,390.147 67.3264,388.147 65.5,386.5C 65.0075,384.181 64.0075,382.181 62.5,380.5C 60.0757,373.568 58.0757,366.568 56.5,359.5C 55.6586,357.621 55.3253,355.621 55.5,353.5C 55.3459,345.583 54.3459,337.917 52.5,330.5C 52.5,330.167 52.5,329.833 52.5,329.5C 51.4759,316.186 50.8092,302.853 50.5,289.5C 50.5,270.833 50.5,252.167 50.5,233.5C 50.8051,221.811 51.4718,210.144 52.5,198.5C 52.19,195.287 52.5233,192.287 53.5,189.5C 55.3216,182.749 56.3216,175.749 56.5,168.5C 56.5,168.167 56.5,167.833 56.5,167.5C 57.7314,163.32 58.7314,158.986 59.5,154.5C 61.3803,152.245 62.3803,149.578 62.5,146.5C 63.6737,145.486 64.3404,144.153 64.5,142.5C 67.3748,139.126 70.0414,135.459 72.5,131.5C 73.8333,130.833 74.8333,129.833 75.5,128.5C 76.8333,127.833 77.8333,126.833 78.5,125.5C 81.8103,123.518 84.8103,121.185 87.5,118.5C 91.1826,117.325 94.5159,115.659 97.5,113.5C 97.8417,112.662 98.5084,112.328 99.5,112.5C 116.363,109.383 133.363,107.383 150.5,106.5C 150.833,106.5 151.167,106.5 151.5,106.5C 153.5,106.5 155.5,106.5 157.5,106.5C 157.5,94.1667 157.5,81.8333 157.5,69.5C 158.871,67.064 159.871,64.3973 160.5,61.5C 162.408,60.5144 163.408,58.8477 163.5,56.5C 165.587,55.4154 166.92,53.7488 167.5,51.5C 168.5,51.1667 169.167,50.5 169.5,49.5C 169.833,49.5 170.167,49.5 170.5,49.5C 172.167,48.5 173.5,47.1667 174.5,45.5C 176.027,45.573 177.027,44.9063 177.5,43.5C 180.491,43.8337 182.824,42.8337 184.5,40.5C 189.649,39.6576 194.649,38.6576 199.5,37.5C 199.833,37.5 200.167,37.5 200.5,37.5C 203.609,37.7359 206.609,37.4025 209.5,36.5C 209.833,36.5 210.167,36.5 210.5,36.5C 214.04,36.2474 217.373,35.5808 220.5,34.5C 224.234,34.6773 227.901,34.3439 231.5,33.5C 231.833,33.5 232.167,33.5 232.5,33.5C 255.167,32.1667 277.833,32.1667 300.5,33.5 Z M 297.5,68.5 C 300.57,68.3677 303.57,68.701 306.5,69.5C 312.899,71.4151 319.565,72.4151 326.5,72.5C 326.833,72.5 327.167,72.5 327.5,72.5C 330.544,74.0114 333.878,74.678 337.5,74.5C 338.122,75.6266 338.955,76.6266 340,77.5C 340.5,85.8267 340.666,94.16 340.5,102.5C 305.026,100.415 269.692,100.082 234.5,101.5C 234.167,101.5 233.833,101.5 233.5,101.5C 232.883,101.389 232.383,101.056 232,100.5C 220.562,101.244 209.062,101.91 197.5,102.5C 193.499,102.513 191.832,100.513 192.5,96.5C 193.328,90.0126 193.828,83.346 194,76.5C 196.48,75.1885 198.98,74.1885 201.5,73.5C 206.353,73.1873 211.02,72.5206 215.5,71.5C 216.167,71.5 216.833,71.5 217.5,71.5C 220.781,71.5797 223.781,70.913 226.5,69.5C 226.833,69.5 227.167,69.5 227.5,69.5C 250.805,67.3244 274.139,66.991 297.5,68.5 Z M 308.5,136.5 C 321.33,137.459 334.33,138.126 347.5,138.5C 369.963,141.086 392.629,143.086 415.5,144.5C 415.833,144.5 416.167,144.5 416.5,144.5C 419.54,146.346 422.873,147.679 426.5,148.5C 426.973,149.906 427.973,150.573 429.5,150.5C 431.167,152.833 433.167,154.833 435.5,156.5C 436.987,160.145 438.487,163.812 440,167.5C 441.849,176.772 442.849,186.105 443,195.5C 440.021,197.067 437.188,198.734 434.5,200.5C 433.508,200.328 432.842,200.662 432.5,201.5C 429.759,201.707 427.426,202.707 425.5,204.5C 422.759,204.707 420.426,205.707 418.5,207.5C 412.871,208.929 407.537,210.929 402.5,213.5C 400.102,213.259 398.102,213.926 396.5,215.5C 392.098,215.926 388.098,217.26 384.5,219.5C 376.622,221.052 368.955,223.052 361.5,225.5C 350.047,227.839 338.714,230.172 327.5,232.5C 313.485,233.836 299.485,235.169 285.5,236.5C 269.332,236.167 252.999,236.167 236.5,236.5C 232.766,236.677 229.099,236.344 225.5,235.5C 223.598,233.849 221.598,233.516 219.5,234.5C 219.167,234.5 218.833,234.5 218.5,234.5C 217.739,233.609 216.739,232.942 215.5,232.5C 211.371,232.558 207.371,232.558 203.5,232.5C 203.167,232.5 202.833,232.5 202.5,232.5C 200.572,230.887 198.238,229.887 195.5,229.5C 194.914,229.709 194.414,230.043 194,230.5C 185.039,227.835 176.206,225.835 167.5,224.5C 165.095,223.232 162.428,222.565 159.5,222.5C 144.635,217.323 129.635,212.323 114.5,207.5C 106.471,203.403 98.3041,199.403 90,195.5C 90.8179,188.914 91.3179,182.248 91.5,175.5C 92.8698,169.391 94.8698,163.391 97.5,157.5C 99.2624,156.738 100.262,155.404 100.5,153.5C 103.455,151.878 106.122,149.878 108.5,147.5C 111.479,146.683 114.479,145.849 117.5,145C 136.712,143.678 155.712,141.845 174.5,139.5C 176.126,139.938 177.793,140.272 179.5,140.5C 195.299,139.178 210.966,138.178 226.5,137.5C 253.812,136.544 281.145,136.21 308.5,136.5 Z M 91.5,236.5 C 93.4261,238.293 95.7594,239.293 98.5,239.5C 100.684,241.585 103.351,242.585 106.5,242.5C 108.792,244.267 111.458,245.267 114.5,245.5C 116.792,247.267 119.458,248.267 122.5,248.5C 126.098,250.74 130.098,252.074 134.5,252.5C 137.55,254.101 140.884,255.101 144.5,255.5C 147.907,257.074 151.573,258.074 155.5,258.5C 155.833,258.5 156.167,258.5 156.5,258.5C 159.854,260.258 163.521,261.258 167.5,261.5C 167.833,261.5 168.167,261.5 168.5,261.5C 172.857,263.419 177.523,264.419 182.5,264.5C 182.833,264.5 183.167,264.5 183.5,264.5C 188.525,266.504 193.858,267.504 199.5,267.5C 200.167,267.5 200.833,267.5 201.5,267.5C 208.566,269.468 215.9,270.468 223.5,270.5C 228.032,270.182 232.366,270.515 236.5,271.5C 271.51,274.264 306.51,272.764 341.5,267C 349.423,265.666 357.089,263.833 364.5,261.5C 364.833,261.5 365.167,261.5 365.5,261.5C 368.495,261.706 371.162,261.04 373.5,259.5C 373.833,259.5 374.167,259.5 374.5,259.5C 378.397,258.945 382.063,257.945 385.5,256.5C 389.116,256.101 392.45,255.101 395.5,253.5C 399.805,252.765 403.805,251.432 407.5,249.5C 411.644,249.223 415.311,247.89 418.5,245.5C 427.78,243.031 436.78,239.698 445.5,235.5C 446.192,236.025 446.692,236.692 447,237.5C 447.586,262.172 447.42,286.839 446.5,311.5C 446.5,311.833 446.5,312.167 446.5,312.5C 444.961,320.966 443.961,329.632 443.5,338.5C 443.736,341.609 443.403,344.609 442.5,347.5C 441.571,360.692 435.904,371.359 425.5,379.5C 422.603,380.129 419.936,381.129 417.5,382.5C 409.998,382.923 402.665,383.59 395.5,384.5C 387.237,385.766 378.903,386.433 370.5,386.5C 355.981,386.99 341.647,387.99 327.5,389.5C 325.5,389.5 323.5,389.5 321.5,389.5C 283.5,390.822 245.5,390.822 207.5,389.5C 206.5,389.5 205.5,389.5 204.5,389.5C 174.965,387.356 145.299,385.022 115.5,382.5C 113.786,381.262 111.786,380.595 109.5,380.5C 109.158,379.662 108.492,379.328 107.5,379.5C 107.027,378.094 106.027,377.427 104.5,377.5C 102.833,375.167 100.833,373.167 98.5,371.5C 95.9215,367.017 93.9215,362.351 92.5,357.5C 91.5386,355.735 91.2053,353.735 91.5,351.5C 91.3439,343.92 90.3439,336.586 88.5,329.5C 88.5,328.833 88.5,328.167 88.5,327.5C 88.4342,318.971 87.7675,310.638 86.5,302.5C 85.5139,298.03 85.1805,293.363 85.5,288.5C 85.5,270.833 85.5,253.167 85.5,235.5C 87.5,235.833 89.5,236.167 91.5,236.5 Z"/></g>
<g><path style="opacity:1" fill="#525253" d="M 231.5,33.5 C 227.901,34.3439 224.234,34.6773 220.5,34.5C 223.509,33.7171 226.676,33.0504 230,32.5C 230.765,32.5699 231.265,32.9033 231.5,33.5 Z"/></g>
<g><path style="opacity:1" fill="#4a4a4d" d="M 220.5,34.5 C 217.373,35.5808 214.04,36.2474 210.5,36.5C 210.918,35.7784 211.584,35.2784 212.5,35C 215.146,34.5026 217.813,34.3359 220.5,34.5 Z"/></g>
<g><path style="opacity:1" fill="#43454c" d="M 209.5,36.5 C 206.609,37.4025 203.609,37.7359 200.5,37.5C 202.831,36.6827 205.331,36.0161 208,35.5C 208.765,35.5699 209.265,35.9033 209.5,36.5 Z"/></g>
<g><path style="opacity:1" fill="#27282a" d="M 199.5,37.5 C 194.649,38.6576 189.649,39.6576 184.5,40.5C 189.106,38.1242 194.106,37.1242 199.5,37.5 Z"/></g>
<g><path style="opacity:1" fill="#3d4144" d="M 301.5,33.5 C 301.735,32.9033 302.235,32.5699 303,32.5C 319.634,34.6334 336.134,37.4667 352.5,41C 353.942,41.3768 354.942,42.2101 355.5,43.5C 350.548,41.9053 345.548,40.4053 340.5,39C 327.438,37.4911 314.438,35.6578 301.5,33.5 Z"/></g>
<g><path style="opacity:1" fill="#73767e" d="M 184.5,40.5 C 182.824,42.8337 180.491,43.8337 177.5,43.5C 179.426,41.7073 181.759,40.7073 184.5,40.5 Z"/></g>
<g><path style="opacity:1" fill="#3d3e44" d="M 177.5,43.5 C 177.027,44.9063 176.027,45.573 174.5,45.5C 174.973,44.0937 175.973,43.427 177.5,43.5 Z"/></g>
<g><path style="opacity:1" fill="#464852" d="M 174.5,45.5 C 173.5,47.1667 172.167,48.5 170.5,49.5C 170.833,47.1667 172.167,45.8333 174.5,45.5 Z"/></g>
<g><path style="opacity:1" fill="#1f2124" d="M 169.5,49.5 C 169.167,50.5 168.5,51.1667 167.5,51.5C 167.5,50.1667 168.167,49.5 169.5,49.5 Z"/></g>
<g><path style="opacity:1" fill="#323537" d="M 357.5,44.5 C 366.047,48.7139 371.714,55.3806 374.5,64.5C 370.332,56.6566 364.665,49.9899 357.5,44.5 Z"/></g>
<g><path style="opacity:1" fill="#494b4f" d="M 167.5,51.5 C 166.92,53.7488 165.587,55.4154 163.5,56.5C 164.08,54.2512 165.413,52.5846 167.5,51.5 Z"/></g>
<g><path style="opacity:1" fill="#6d6c72" d="M 163.5,56.5 C 163.408,58.8477 162.408,60.5144 160.5,61.5C 160.75,59.326 161.75,57.6594 163.5,56.5 Z"/></g>
<g><path style="opacity:1" fill="#1c222c" d="M 160.5,61.5 C 159.871,64.3973 158.871,67.064 157.5,69.5C 157.345,66.284 158.345,63.6174 160.5,61.5 Z"/></g>
<g><path style="opacity:1" fill="#3e3f41" d="M 297.5,68.5 C 274.139,66.991 250.805,67.3244 227.5,69.5C 231.233,68.0227 235.233,67.1894 239.5,67C 247,66.8333 254.5,66.6667 262,66.5C 274.035,66.3584 285.868,67.0251 297.5,68.5 Z"/></g>
<g><path style="opacity:1" fill="#4f4d52" d="M 226.5,69.5 C 223.781,70.913 220.781,71.5797 217.5,71.5C 217.611,70.8826 217.944,70.3826 218.5,70C 221.146,69.5026 223.813,69.3359 226.5,69.5 Z"/></g>
<g><path style="opacity:1" fill="#55585f" d="M 306.5,69.5 C 313.407,69.7543 320.074,70.7543 326.5,72.5C 319.565,72.4151 312.899,71.4151 306.5,69.5 Z"/></g>
<g><path style="opacity:1" fill="#41414d" d="M 374.5,64.5 C 375.924,66.5145 376.59,68.8478 376.5,71.5C 374.837,69.5615 374.171,67.2282 374.5,64.5 Z"/></g>
<g><path style="opacity:1" fill="#3f4143" d="M 215.5,71.5 C 211.02,72.5206 206.353,73.1873 201.5,73.5C 200.833,73.5 200.167,73.5 199.5,73.5C 204.583,71.9216 209.916,71.2549 215.5,71.5 Z"/></g>
<g><path style="opacity:1" fill="#6b6d74" d="M 327.5,72.5 C 330.187,72.3359 332.854,72.5026 335.5,73C 336.416,73.2784 337.082,73.7784 337.5,74.5C 333.878,74.678 330.544,74.0114 327.5,72.5 Z"/></g>
<g><path style="opacity:1" fill="#090a0b" d="M 199.5,73.5 C 200.167,73.5 200.833,73.5 201.5,73.5C 198.98,74.1885 196.48,75.1885 194,76.5C 193.828,83.346 193.328,90.0126 192.5,96.5C 192.5,89.8333 192.5,83.1667 192.5,76.5C 194.036,73.9078 196.369,72.9078 199.5,73.5 Z"/></g>
<g><path style="opacity:1" fill="#020419" d="M 156.5,73.5 C 157.143,84.5524 156.476,95.2191 154.5,105.5C 155.145,94.7347 155.812,84.0681 156.5,73.5 Z"/></g>
<g><path style="opacity:1" fill="#787b7e" d="M 157.5,69.5 C 157.5,81.8333 157.5,94.1667 157.5,106.5C 155.5,106.5 153.5,106.5 151.5,106.5C 152.209,105.596 153.209,105.263 154.5,105.5C 156.476,95.2191 157.143,84.5524 156.5,73.5C 156.232,71.901 156.566,70.5676 157.5,69.5 Z"/></g>
<g><path style="opacity:1" fill="#3d4142" d="M 337.5,74.5 C 339.017,74.5106 340.184,75.1772 341,76.5C 341.5,85.4938 341.666,94.4938 341.5,103.5C 305.857,101.838 270.19,101.172 234.5,101.5C 269.692,100.082 305.026,100.415 340.5,102.5C 340.666,94.16 340.5,85.8267 340,77.5C 338.955,76.6266 338.122,75.6266 337.5,74.5 Z"/></g>
<g><path style="opacity:1" fill="#47484d" d="M 192.5,76.5 C 192.5,83.1667 192.5,89.8333 192.5,96.5C 191.832,100.513 193.499,102.513 197.5,102.5C 209.062,101.91 220.562,101.244 232,100.5C 232.383,101.056 232.883,101.389 233.5,101.5C 219.667,102.4 205.667,103.067 191.5,103.5C 191.173,94.3178 191.507,85.3178 192.5,76.5 Z"/></g>
<g><path style="opacity:1" fill="#4b4d4f" d="M 376.5,72.5 C 377.167,83.0076 377.833,93.6742 378.5,104.5C 386.312,105.589 394.145,106.589 402,107.5C 403,107.167 404,106.833 405,106.5C 411.008,107.252 416.841,108.252 422.5,109.5C 407.169,108.5 391.835,107.5 376.5,106.5C 376.5,95.1667 376.5,83.8333 376.5,72.5 Z"/></g>
<g><path style="opacity:1" fill="#4d4e54" d="M 150.5,106.5 C 133.363,107.383 116.363,109.383 99.5,112.5C 100.842,111.207 102.509,110.374 104.5,110C 119.904,107.165 135.237,105.998 150.5,106.5 Z"/></g>
<g><path style="opacity:1" fill="#403e41" d="M 423.5,109.5 C 429.755,110.141 435.422,112.141 440.5,115.5C 434.608,113.871 428.942,111.871 423.5,109.5 Z"/></g>
<g><path style="opacity:1" fill="#484f52" d="M 97.5,113.5 C 94.5159,115.659 91.1826,117.325 87.5,118.5C 90.2466,115.793 93.5799,114.127 97.5,113.5 Z"/></g>
<g><path style="opacity:1" fill="#3a393e" d="M 440.5,115.5 C 443.614,115.555 445.948,116.888 447.5,119.5C 444.669,118.921 442.336,117.588 440.5,115.5 Z"/></g>
<g><path style="opacity:1" fill="#474748" d="M 447.5,119.5 C 449.404,119.738 450.738,120.738 451.5,122.5C 449.596,122.262 448.262,121.262 447.5,119.5 Z"/></g>
<g><path style="opacity:1" fill="#4f5257" d="M 87.5,118.5 C 84.8103,121.185 81.8103,123.518 78.5,125.5C 78.4142,124.504 78.7476,123.671 79.5,123C 81.8171,120.843 84.4838,119.343 87.5,118.5 Z"/></g>
<g><path style="opacity:1" fill="#48484a" d="M 451.5,122.5 C 456.5,125.5 460.5,129.5 463.5,134.5C 459.167,130.833 455.167,126.833 451.5,122.5 Z"/></g>
<g><path style="opacity:1" fill="#525063" d="M 78.5,125.5 C 77.8333,126.833 76.8333,127.833 75.5,128.5C 75.5,126.5 76.5,125.5 78.5,125.5 Z"/></g>
<g><path style="opacity:1" fill="#3a3b3f" d="M 75.5,128.5 C 74.8333,129.833 73.8333,130.833 72.5,131.5C 72.5,129.5 73.5,128.5 75.5,128.5 Z"/></g>
<g><path style="opacity:1" fill="#54575d" d="M 72.5,131.5 C 70.0414,135.459 67.3748,139.126 64.5,142.5C 65.9686,137.87 68.6352,134.204 72.5,131.5 Z"/></g>
<g><path style="opacity:1" fill="#9c9b9f" d="M 308.5,136.5 C 281.145,136.21 253.812,136.544 226.5,137.5C 219.833,137.5 213.167,137.5 206.5,137.5C 226.31,135.975 246.31,135.308 266.5,135.5C 280.671,135.5 294.671,135.833 308.5,136.5 Z"/></g>
<g><path style="opacity:1" fill="#4c4c50" d="M 463.5,134.5 C 464.906,134.973 465.573,135.973 465.5,137.5C 464.094,137.027 463.427,136.027 463.5,134.5 Z"/></g>
<g><path style="opacity:1" fill="#3b3a41" d="M 206.5,137.5 C 213.167,137.5 219.833,137.5 226.5,137.5C 210.966,138.178 195.299,139.178 179.5,140.5C 177.793,140.272 176.126,139.938 174.5,139.5C 184.965,138.029 195.632,137.362 206.5,137.5 Z"/></g>
<g><path style="opacity:1" fill="#4d4d4e" d="M 347.5,138.5 C 370.401,139.511 393.068,141.511 415.5,144.5C 392.629,143.086 369.963,141.086 347.5,138.5 Z"/></g>
<g><path style="opacity:1" fill="#39393e" d="M 465.5,137.5 C 467.822,138.802 469.155,140.802 469.5,143.5C 467.674,141.853 466.34,139.853 465.5,137.5 Z"/></g>
<g><path style="opacity:1" fill="#495053" d="M 174.5,139.5 C 155.712,141.845 136.712,143.678 117.5,145C 114.479,145.849 111.479,146.683 108.5,147.5C 112.586,144.528 117.253,143.028 122.5,143C 139.823,141.622 157.156,140.455 174.5,139.5 Z"/></g>
<g><path style="opacity:1" fill="#37383d" d="M 64.5,142.5 C 64.3404,144.153 63.6737,145.486 62.5,146.5C 62.2291,144.62 62.8958,143.287 64.5,142.5 Z"/></g>
<g><path style="opacity:1" fill="#131619" d="M 469.5,143.5 C 471.104,144.287 471.771,145.62 471.5,147.5C 470.326,146.486 469.66,145.153 469.5,143.5 Z"/></g>
<g><path style="opacity:1" fill="#444546" d="M 416.5,144.5 C 420.45,144.488 423.784,145.821 426.5,148.5C 422.873,147.679 419.54,146.346 416.5,144.5 Z"/></g>
<g><path style="opacity:1" fill="#343738" d="M 426.5,148.5 C 428.027,148.427 429.027,149.094 429.5,150.5C 427.973,150.573 426.973,149.906 426.5,148.5 Z"/></g>
<g><path style="opacity:1" fill="#43454b" d="M 429.5,150.5 C 432.5,151.5 434.5,153.5 435.5,156.5C 433.167,154.833 431.167,152.833 429.5,150.5 Z"/></g>
<g><path style="opacity:1" fill="#545b5f" d="M 62.5,146.5 C 62.3803,149.578 61.3803,152.245 59.5,154.5C 59.4152,151.351 60.4152,148.684 62.5,146.5 Z"/></g>
<g><path style="opacity:1" fill="#2c2d2d" d="M 108.5,147.5 C 106.122,149.878 103.455,151.878 100.5,153.5C 102.313,150.353 104.98,148.353 108.5,147.5 Z"/></g>
<g><path style="opacity:1" fill="#141717" d="M 471.5,147.5 C 473.585,149.684 474.585,152.351 474.5,155.5C 472.98,153.11 471.98,150.443 471.5,147.5 Z"/></g>
<g><path style="opacity:1" fill="#253740" d="M 100.5,153.5 C 100.262,155.404 99.2624,156.738 97.5,157.5C 97.7376,155.596 98.7376,154.262 100.5,153.5 Z"/></g>
<g><path style="opacity:1" fill="#2d2d30" d="M 435.5,156.5 C 437.81,159.102 439.643,162.102 441,165.5C 443.426,175.717 444.426,186.05 444,196.5C 441.104,198.533 437.937,199.866 434.5,200.5C 437.188,198.734 440.021,197.067 443,195.5C 442.849,186.105 441.849,176.772 440,167.5C 438.487,163.812 436.987,160.145 435.5,156.5 Z"/></g>
<g><path style="opacity:1" fill="#5a5d62" d="M 59.5,154.5 C 58.7314,158.986 57.7314,163.32 56.5,167.5C 56.1236,162.739 57.1236,158.405 59.5,154.5 Z"/></g>
<g><path style="opacity:1" fill="#1c1c22" d="M 476.5,164.5 C 477.283,166.343 477.95,168.343 478.5,170.5C 478.376,171.107 478.043,171.44 477.5,171.5C 476.631,169.283 476.298,166.95 476.5,164.5 Z"/></g>
<g><path style="opacity:1" fill="#404246" d="M 97.5,157.5 C 94.8698,163.391 92.8698,169.391 91.5,175.5C 90.9781,168.486 92.9781,162.486 97.5,157.5 Z"/></g>
<g><path style="opacity:1" fill="#5e6065" d="M 56.5,168.5 C 56.3216,175.749 55.3216,182.749 53.5,189.5C 53.3302,182.203 54.3302,175.203 56.5,168.5 Z"/></g>
<g><path style="opacity:1" fill="#5b5a5e" d="M 477.5,172.5 C 478.709,176.618 479.376,180.951 479.5,185.5C 477.823,181.455 477.156,177.122 477.5,172.5 Z"/></g>
<g><path style="opacity:1" fill="#3f3d40" d="M 479.5,185.5 C 480.948,191.348 481.615,197.348 481.5,203.5C 479.943,197.739 479.276,191.739 479.5,185.5 Z"/></g>
<g><path style="opacity:1" fill="#474546" d="M 91.5,175.5 C 91.3179,182.248 90.8179,188.914 90,195.5C 98.3041,199.403 106.471,203.403 114.5,207.5C 105.499,205.001 96.9993,201.334 89,196.5C 88.3078,189.198 89.1411,182.198 91.5,175.5 Z"/></g>
<g><path style="opacity:1" fill="#646164" d="M 432.5,201.5 C 430.824,203.834 428.491,204.834 425.5,204.5C 427.426,202.707 429.759,201.707 432.5,201.5 Z"/></g>
<g><path style="opacity:1" fill="#575657" d="M 425.5,204.5 C 423.815,206.818 421.481,207.818 418.5,207.5C 420.426,205.707 422.759,204.707 425.5,204.5 Z"/></g>
<g><path style="opacity:1" fill="#3a393b" d="M 114.5,207.5 C 129.635,212.323 144.635,217.323 159.5,222.5C 143.817,219.272 128.817,214.272 114.5,207.5 Z"/></g>
<g><path style="opacity:1" fill="#59595b" d="M 418.5,207.5 C 413.842,210.837 408.509,212.837 402.5,213.5C 407.537,210.929 412.871,208.929 418.5,207.5 Z"/></g>
<g><path style="opacity:1" fill="#2f2b35" d="M 402.5,213.5 C 400.786,214.738 398.786,215.405 396.5,215.5C 398.102,213.926 400.102,213.259 402.5,213.5 Z"/></g>
<g><path style="opacity:1" fill="#333234" d="M 396.5,215.5 C 392.902,217.74 388.902,219.074 384.5,219.5C 388.098,217.26 392.098,215.926 396.5,215.5 Z"/></g>
<g><path style="opacity:1" fill="#3c3b40" d="M 384.5,219.5 C 377.305,222.883 369.639,224.883 361.5,225.5C 368.955,223.052 376.622,221.052 384.5,219.5 Z"/></g>
<g><path style="opacity:1" fill="#292a2d" d="M 159.5,222.5 C 162.428,222.565 165.095,223.232 167.5,224.5C 164.447,224.889 161.78,224.223 159.5,222.5 Z"/></g>
<g><path style="opacity:1" fill="#2f2e2f" d="M 52.5,198.5 C 51.4718,210.144 50.8051,221.811 50.5,233.5C 50.1667,233.5 49.8333,233.5 49.5,233.5C 49.3712,221.592 50.3712,209.925 52.5,198.5 Z"/></g>
<g><path style="opacity:1" fill="#36373a" d="M 167.5,224.5 C 176.206,225.835 185.039,227.835 194,230.5C 194.414,230.043 194.914,229.709 195.5,229.5C 198.238,229.887 200.572,230.887 202.5,232.5C 190.465,230.906 178.799,228.239 167.5,224.5 Z"/></g>
<g><path style="opacity:1" fill="#5a565a" d="M 361.5,225.5 C 350.612,229.345 339.278,231.678 327.5,232.5C 338.714,230.172 350.047,227.839 361.5,225.5 Z"/></g>
<g><path style="opacity:1" fill="#47474e" d="M 203.5,232.5 C 207.371,232.558 211.371,232.558 215.5,232.5C 216.739,232.942 217.739,233.609 218.5,234.5C 213.343,234.706 208.343,234.039 203.5,232.5 Z"/></g>
<g><path style="opacity:1" fill="#444449" d="M 219.5,234.5 C 221.598,233.516 223.598,233.849 225.5,235.5C 223.379,235.675 221.379,235.341 219.5,234.5 Z"/></g>
<g><path style="opacity:1" fill="#5f5e61" d="M 327.5,232.5 C 312.121,235.53 296.454,237.197 280.5,237.5C 281.919,236.549 283.585,236.216 285.5,236.5C 299.485,235.169 313.485,233.836 327.5,232.5 Z"/></g>
<g><path style="opacity:1" fill="#3f3e41" d="M 285.5,236.5 C 283.585,236.216 281.919,236.549 280.5,237.5C 265.657,237.829 250.99,237.496 236.5,236.5C 252.999,236.167 269.332,236.167 285.5,236.5 Z"/></g>
<g><path style="opacity:1" fill="#2d2d2e" d="M 91.5,236.5 C 94.4815,236.182 96.8148,237.182 98.5,239.5C 95.7594,239.293 93.4261,238.293 91.5,236.5 Z"/></g>
<g><path style="opacity:1" fill="#191a1b" d="M 98.5,239.5 C 101.443,239.98 104.11,240.98 106.5,242.5C 103.351,242.585 100.684,241.585 98.5,239.5 Z"/></g>
<g><path style="opacity:1" fill="#4e4e55" d="M 106.5,242.5 C 109.649,242.415 112.316,243.415 114.5,245.5C 111.458,245.267 108.792,244.267 106.5,242.5 Z"/></g>
<g><path style="opacity:1" fill="#4a494d" d="M 481.5,206.5 C 482.969,213.95 483.803,221.617 484,229.5C 484.83,253.337 484.663,277.004 483.5,300.5C 483.5,294.833 483.5,289.167 483.5,283.5C 483.785,257.804 483.118,232.137 481.5,206.5 Z"/></g>
<g><path style="opacity:1" fill="#515357" d="M 114.5,245.5 C 117.716,245.345 120.383,246.345 122.5,248.5C 119.458,248.267 116.792,247.267 114.5,245.5 Z"/></g>
<g><path style="opacity:1" fill="#383839" d="M 446.5,311.5 C 447.42,286.839 447.586,262.172 447,237.5C 446.692,236.692 446.192,236.025 445.5,235.5C 436.78,239.698 427.78,243.031 418.5,245.5C 428.218,240.981 438.218,236.981 448.5,233.5C 448.667,255.169 448.5,276.836 448,298.5C 447.825,303.019 447.325,307.353 446.5,311.5 Z"/></g>
<g><path style="opacity:1" fill="#4c4c4e" d="M 418.5,245.5 C 415.311,247.89 411.644,249.223 407.5,249.5C 410.797,247.399 414.463,246.065 418.5,245.5 Z"/></g>
<g><path style="opacity:1" fill="#313133" d="M 122.5,248.5 C 124.199,248.34 125.866,248.506 127.5,249C 129.97,250.021 132.304,251.188 134.5,252.5C 130.098,252.074 126.098,250.74 122.5,248.5 Z"/></g>
<g><path style="opacity:1" fill="#424143" d="M 407.5,249.5 C 403.805,251.432 399.805,252.765 395.5,253.5C 399.085,251.194 403.085,249.861 407.5,249.5 Z"/></g>
<g><path style="opacity:1" fill="#414248" d="M 134.5,252.5 C 138.286,252.32 141.619,253.32 144.5,255.5C 140.884,255.101 137.55,254.101 134.5,252.5 Z"/></g>
<g><path style="opacity:1" fill="#79787c" d="M 49.5,233.5 C 49.8333,233.5 50.1667,233.5 50.5,233.5C 50.5,252.167 50.5,270.833 50.5,289.5C 50.1667,289.5 49.8333,289.5 49.5,289.5C 48.4108,270.655 48.4108,251.988 49.5,233.5 Z"/></g>
<g><path style="opacity:1" fill="#26252d" d="M 91.5,236.5 C 89.5,236.167 87.5,235.833 85.5,235.5C 85.5,253.167 85.5,270.833 85.5,288.5C 84.1725,270.329 84.1725,251.996 85.5,233.5C 87.78,234.136 89.78,235.136 91.5,236.5 Z"/></g>
<g><path style="opacity:1" fill="#4a434a" d="M 395.5,253.5 C 392.45,255.101 389.116,256.101 385.5,256.5C 388.381,254.32 391.714,253.32 395.5,253.5 Z"/></g>
<g><path style="opacity:1" fill="#36363d" d="M 144.5,255.5 C 148.534,255.517 152.201,256.517 155.5,258.5C 151.573,258.074 147.907,257.074 144.5,255.5 Z"/></g>
<g><path style="opacity:1" fill="#434344" d="M 385.5,256.5 C 382.063,257.945 378.397,258.945 374.5,259.5C 377.686,257.126 381.353,256.126 385.5,256.5 Z"/></g>
<g><path style="opacity:1" fill="#454547" d="M 156.5,258.5 C 160.534,258.517 164.201,259.517 167.5,261.5C 163.521,261.258 159.854,260.258 156.5,258.5 Z"/></g>
<g><path style="opacity:1" fill="#454446" d="M 373.5,259.5 C 371.162,261.04 368.495,261.706 365.5,261.5C 367.78,259.777 370.447,259.111 373.5,259.5 Z"/></g>
<g><path style="opacity:1" fill="#484748" d="M 168.5,261.5 C 173.412,261.898 178.079,262.898 182.5,264.5C 177.523,264.419 172.857,263.419 168.5,261.5 Z"/></g>
<g><path style="opacity:1" fill="#727275" d="M 183.5,264.5 C 189.194,264.24 194.527,265.24 199.5,267.5C 193.858,267.504 188.525,266.504 183.5,264.5 Z"/></g>
<g><path style="opacity:1" fill="#656466" d="M 201.5,267.5 C 209.052,267.874 216.385,268.874 223.5,270.5C 215.9,270.468 208.566,269.468 201.5,267.5 Z"/></g>
<g><path style="opacity:1" fill="#5c5b5e" d="M 364.5,261.5 C 357.089,263.833 349.423,265.666 341.5,267C 306.51,272.764 271.51,274.264 236.5,271.5C 279.598,273.4 322.264,270.067 364.5,261.5 Z"/></g>
<g><path style="opacity:1" fill="#7f7f81" d="M 483.5,283.5 C 483.5,289.167 483.5,294.833 483.5,300.5C 483.65,307.721 482.983,314.721 481.5,321.5C 481.326,308.636 481.993,295.969 483.5,283.5 Z"/></g>
<g><path style="opacity:1" fill="#232225" d="M 86.5,302.5 C 87.7675,310.638 88.4342,318.971 88.5,327.5C 87.0375,319.377 86.3709,311.044 86.5,302.5 Z"/></g>
<g><path style="opacity:1" fill="#343236" d="M 49.5,289.5 C 49.8333,289.5 50.1667,289.5 50.5,289.5C 50.8092,302.853 51.4759,316.186 52.5,329.5C 51.1751,323.182 50.1751,316.682 49.5,310C 49.6113,303.335 49.6113,296.502 49.5,289.5 Z"/></g>
<g><path style="opacity:1" fill="#4a494b" d="M 446.5,312.5 C 446.509,321.422 445.509,330.089 443.5,338.5C 443.961,329.632 444.961,320.966 446.5,312.5 Z"/></g>
<g><path style="opacity:1" fill="#424142" d="M 52.5,330.5 C 54.3459,337.917 55.3459,345.583 55.5,353.5C 53.7286,346.075 52.7286,338.408 52.5,330.5 Z"/></g>
<g><path style="opacity:1" fill="#4d4952" d="M 88.5,329.5 C 90.3439,336.586 91.3439,343.92 91.5,351.5C 89.3683,344.459 88.3683,337.126 88.5,329.5 Z"/></g>
<g><path style="opacity:1" fill="#4a4a4c" d="M 481.5,321.5 C 480.641,339.733 478.141,357.733 474,375.5C 473.14,378.633 471.64,381.3 469.5,383.5C 471.622,377.967 473.455,372.3 475,366.5C 477.36,351.381 479.527,336.381 481.5,321.5 Z"/></g>
<g><path style="opacity:1" fill="#414143" d="M 56.5,359.5 C 58.0757,366.568 60.0757,373.568 62.5,380.5C 61.2101,379.942 60.3768,378.942 60,377.5C 57.6789,371.709 56.5122,365.709 56.5,359.5 Z"/></g>
<g><path style="opacity:1" fill="#434345" d="M 92.5,357.5 C 93.9215,362.351 95.9215,367.017 98.5,371.5C 94.4031,367.838 92.4031,363.171 92.5,357.5 Z"/></g>
<g><path style="opacity:1" fill="#59595b" d="M 98.5,371.5 C 100.833,373.167 102.833,375.167 104.5,377.5C 101.5,376.5 99.5,374.5 98.5,371.5 Z"/></g>
<g><path style="opacity:1" fill="#414043" d="M 442.5,347.5 C 442.957,359.747 438.624,369.914 429.5,378C 428.255,378.791 426.922,379.291 425.5,379.5C 435.904,371.359 441.571,360.692 442.5,347.5 Z"/></g>
<g><path style="opacity:1" fill="#4e4e4f" d="M 104.5,377.5 C 106.027,377.427 107.027,378.094 107.5,379.5C 105.973,379.573 104.973,378.906 104.5,377.5 Z"/></g>
<g><path style="opacity:1" fill="#555555" d="M 109.5,380.5 C 111.786,380.595 113.786,381.262 115.5,382.5C 113.102,382.741 111.102,382.074 109.5,380.5 Z"/></g>
<g><path style="opacity:1" fill="#585759" d="M 425.5,379.5 C 423.478,381.693 420.811,382.693 417.5,382.5C 419.936,381.129 422.603,380.129 425.5,379.5 Z"/></g>
<g><path style="opacity:1" fill="#4f4f51" d="M 417.5,382.5 C 416.048,383.302 414.382,383.802 412.5,384C 406.843,384.499 401.176,384.666 395.5,384.5C 402.665,383.59 409.998,382.923 417.5,382.5 Z"/></g>
<g><path style="opacity:1" fill="#525252" d="M 62.5,380.5 C 64.0075,382.181 65.0075,384.181 65.5,386.5C 63.461,385.089 62.461,383.089 62.5,380.5 Z"/></g>
<g><path style="opacity:1" fill="#555456" d="M 115.5,382.5 C 145.299,385.022 174.965,387.356 204.5,389.5C 176.107,388.661 147.773,386.828 119.5,384C 117.942,383.79 116.609,383.29 115.5,382.5 Z"/></g>
<g><path style="opacity:1" fill="#424244" d="M 370.5,386.5 C 356.393,388.628 342.06,389.628 327.5,389.5C 341.647,387.99 355.981,386.99 370.5,386.5 Z"/></g>
<g><path style="opacity:1" fill="#424242" d="M 468.5,385.5 C 467.149,389.542 464.815,392.875 461.5,395.5C 463.344,391.808 465.677,388.475 468.5,385.5 Z"/></g>
<g><path style="opacity:1" fill="#424146" d="M 65.5,386.5 C 67.3264,388.147 68.6597,390.147 69.5,392.5C 67.1782,391.198 65.8449,389.198 65.5,386.5 Z"/></g>
<g><path style="opacity:1" fill="#575559" d="M 207.5,389.5 C 245.5,390.822 283.5,390.822 321.5,389.5C 302.187,390.951 282.687,391.618 263,391.5C 244.311,391.646 225.811,390.98 207.5,389.5 Z"/></g>
<g><path style="opacity:1" fill="#4e4e4f" d="M 69.5,392.5 C 74.1667,396.5 78.5,400.833 82.5,405.5C 77.1667,402.167 72.8333,397.833 69.5,392.5 Z"/></g>
<g><path style="opacity:1" fill="#343434" d="M 454.5,402.5 C 453.415,404.587 451.749,405.92 449.5,406.5C 450.585,404.413 452.251,403.08 454.5,402.5 Z"/></g>
<g><path style="opacity:1" fill="#606060" d="M 82.5,405.5 C 84.0269,405.427 85.0269,406.094 85.5,407.5C 83.9731,407.573 82.9731,406.906 82.5,405.5 Z"/></g>
<g><path style="opacity:1" fill="#5d5d5e" d="M 85.5,407.5 C 87.0269,407.427 88.0269,408.094 88.5,409.5C 86.9731,409.573 85.9731,408.906 85.5,407.5 Z"/></g>
<g><path style="opacity:1" fill="#505051" d="M 88.5,409.5 C 90.8185,409.992 92.8185,410.992 94.5,412.5C 91.911,412.539 89.911,411.539 88.5,409.5 Z"/></g>
<g><path style="opacity:1" fill="#444447" d="M 449.5,406.5 C 444.531,411.389 438.531,414.389 431.5,415.5C 437.461,412.519 443.461,409.519 449.5,406.5 Z"/></g>
<g><path style="opacity:1" fill="#545454" d="M 94.5,412.5 C 97.1573,412.935 99.4907,413.935 101.5,415.5C 98.6538,415.448 96.3204,414.448 94.5,412.5 Z"/></g>
<g><path style="opacity:1" fill="#5e5d61" d="M 101.5,415.5 C 105.986,416.269 110.32,417.269 114.5,418.5C 109.739,418.876 105.405,417.876 101.5,415.5 Z"/></g>
<g><path style="opacity:1" fill="#5c5c5d" d="M 117.5,418.5 C 129.047,418.76 140.38,419.76 151.5,421.5C 139.931,421.541 128.598,420.541 117.5,418.5 Z"/></g>
<g><path style="opacity:1" fill="#4d4d4e" d="M 431.5,415.5 C 426.905,417.858 421.905,419.025 416.5,419C 400.217,420.925 383.884,422.092 367.5,422.5C 388.768,420.767 410.102,418.433 431.5,415.5 Z"/></g>
<g><path style="opacity:1" fill="#545456" d="M 166.5,422.5 C 175.683,422.718 184.683,423.385 193.5,424.5C 184.278,424.824 175.278,424.157 166.5,422.5 Z"/></g>
<g><path style="opacity:1" fill="#545456" d="M 366.5,422.5 C 351.057,424.625 335.391,425.625 319.5,425.5C 334.982,423.982 350.648,422.982 366.5,422.5 Z"/></g>
</svg>
