<?xml version="1.0" encoding="UTF-8"?>
<!DOCTYPE svg PUBLIC "-//W3C//DTD SVG 1.1//EN" "http://www.w3.org/Graphics/SVG/1.1/DTD/svg11.dtd">
<svg xmlns="http://www.w3.org/2000/svg" version="1.1" width="295px" height="305px" style="shape-rendering:geometricPrecision; text-rendering:geometricPrecision; image-rendering:optimizeQuality; fill-rule:evenodd; clip-rule:evenodd" xmlns:xlink="http://www.w3.org/1999/xlink">
<g><path style="opacity:1" fill="#faf0dc" d="M 170.5,32.5 C 168.143,30.6479 165.643,28.9813 163,27.5C 162.05,28.0223 161.216,28.689 160.5,29.5C 159.289,28.7261 159.289,27.8928 160.5,27C 156.643,23.7382 152.31,21.5716 147.5,20.5C 147.5,21.5 147.5,22.5 147.5,23.5C 143.37,23.2759 139.87,22.2759 137,20.5C 135.286,21.0762 134.119,22.2429 133.5,24C 130.123,24.4517 126.789,25.1184 123.5,26C 122.643,26.6891 121.977,27.5224 121.5,28.5C 121.543,30.5611 122.209,32.7278 123.5,35C 122.584,35.3742 121.75,35.8742 121,36.5C 120.804,34.7139 119.971,33.3805 118.5,32.5C 117.269,33.6507 117.269,34.8173 118.5,36C 114.309,37.1892 112.143,40.0225 112,44.5C 111.667,44.1667 111.333,43.8333 111,43.5C 110.667,46.8333 110.333,50.1667 110,53.5C 109.5,54 109,54.5 108.5,55C 103.648,55.8151 98.9811,55.6484 94.5,54.5C 99.0323,54.8182 103.366,54.4849 107.5,53.5C 111.864,26.6513 127.531,15.4847 154.5,20C 158.828,21.8287 162.828,24.162 166.5,27C 168.464,28.451 169.797,30.2843 170.5,32.5 Z"/></g>
<g><path style="opacity:1" fill="#fadebb" d="M 170.5,32.5 C 172.223,34.2528 173.723,36.2528 175,38.5C 176.537,43.2858 177.704,48.1191 178.5,53C 193.163,53.4999 207.83,53.6666 222.5,53.5C 207.672,54.6611 192.672,54.8277 177.5,54C 176.51,50.2405 175.677,46.4072 175,42.5C 172.828,39.4869 171.328,36.1536 170.5,32.5 Z"/></g>
<g><path style="opacity:1" fill="#fae1c1" d="M 107.5,53.5 C 103.366,54.4849 99.0323,54.8182 94.5,54.5C 81.1625,54.3334 67.8292,54.5001 54.5,55C 51.4055,55.7138 48.4055,56.7138 45.5,58C 43.6298,60.0396 41.6298,61.8729 39.5,63.5C 41.9619,57.9215 46.2952,54.7548 52.5,54C 70.8303,53.5001 89.1636,53.3334 107.5,53.5 Z"/></g>
<g><path style="opacity:1" fill="#f9f9f6" d="M 170.5,32.5 C 171.328,36.1536 172.828,39.4869 175,42.5C 175.677,46.4072 176.51,50.2405 177.5,54C 192.672,54.8277 207.672,54.6611 222.5,53.5C 226.501,54.4957 229.834,56.4957 232.5,59.5C 233.517,62.5798 234.684,65.5798 236,68.5C 236.823,83.4079 236.657,98.2413 235.5,113C 239.604,114.686 243.938,115.519 248.5,115.5C 248.833,115.5 249.167,115.5 249.5,115.5C 253.181,119.192 257.348,122.526 262,125.5C 264.899,129.621 267.566,133.954 270,138.5C 270.831,145.192 270.664,151.858 269.5,158.5C 267.394,161.541 266.06,164.875 265.5,168.5C 264.488,169.872 263.488,171.205 262.5,172.5C 262.083,171.876 261.416,171.543 260.5,171.5C 258.952,173.376 256.952,174.376 254.5,174.5C 254.567,175.959 254.234,177.292 253.5,178.5C 251.316,180.585 248.649,181.585 245.5,181.5C 242.482,181.335 239.482,181.502 236.5,182C 235.643,182.689 234.977,183.522 234.5,184.5C 235.65,199.455 235.817,214.455 235,229.5C 233.579,232.009 231.912,234.343 230,236.5C 229.308,237.437 229.475,238.103 230.5,238.5C 228.316,240.585 225.649,241.585 222.5,241.5C 207.588,241.824 192.755,241.491 178,240.5C 176.424,243.926 176.258,247.26 177.5,250.5C 177.5,251.167 177.167,251.5 176.5,251.5C 170.945,252.913 168.612,256.58 169.5,262.5C 167.088,262.756 165.421,261.756 164.5,259.5C 162.878,261.439 161.044,261.772 159,260.5C 159.148,261.825 158.982,262.992 158.5,264C 167.159,261.319 168.159,262.986 161.5,269C 157.717,269.554 155.05,271.554 153.5,275C 152.5,275.333 151.5,275.667 150.5,276C 143.285,274.971 135.951,274.471 128.5,274.5C 128.167,274.5 127.833,274.5 127.5,274.5C 127.5,273.5 127.5,272.5 127.5,271.5C 124.497,270.166 121.497,268.833 118.5,267.5C 114.498,260.26 111.165,252.927 108.5,245.5C 108.443,244.391 108.11,243.391 107.5,242.5C 87.9806,241.785 68.3139,241.119 48.5,240.5C 44.9796,239.647 42.3129,237.647 40.5,234.5C 40.6621,232.473 40.4955,230.473 40,228.5C 39.6667,228.833 39.3333,229.167 39,229.5C 38.5,210.17 38.3334,190.836 38.5,171.5C 38.5,170.167 38.5,168.833 38.5,167.5C 41.1627,165.943 43.1627,166.61 44.5,169.5C 45.1575,167.563 45.4908,165.73 45.5,164C 48.3592,163.447 51.1925,163.614 54,164.5C 55.8951,164.385 57.5618,163.718 59,162.5C 60.5691,163.122 62.2358,163.456 64,163.5C 67.3103,162.595 70.4769,161.262 73.5,159.5C 73.8333,159.167 74.1667,158.833 74.5,158.5C 73.7174,153.553 73.2174,148.553 73,143.5C 72.7216,142.584 72.2216,141.918 71.5,141.5C 69.5,139.5 67.5,137.5 65.5,135.5C 64.7375,134.732 63.7375,134.232 62.5,134C 56.1754,133.5 49.8421,133.334 43.5,133.5C 41.9835,131.814 40.6502,129.981 39.5,128C 39.6448,127.228 39.9781,126.561 40.5,126C 39.7362,123.931 39.2362,121.764 39,119.5C 38.3333,102.167 38.3333,84.8333 39,67.5C 40.5106,66.436 40.6772,65.1026 39.5,63.5C 41.6298,61.8729 43.6298,60.0396 45.5,58C 48.4055,56.7138 51.4055,55.7138 54.5,55C 67.8292,54.5001 81.1625,54.3334 94.5,54.5C 98.9811,55.6484 103.648,55.8151 108.5,55C 109,54.5 109.5,54 110,53.5C 110.333,50.1667 110.667,46.8333 111,43.5C 111.333,43.8333 111.667,44.1667 112,44.5C 112.143,40.0225 114.309,37.1892 118.5,36C 117.269,34.8173 117.269,33.6507 118.5,32.5C 119.971,33.3805 120.804,34.7139 121,36.5C 121.75,35.8742 122.584,35.3742 123.5,35C 122.209,32.7278 121.543,30.5611 121.5,28.5C 121.977,27.5224 122.643,26.6891 123.5,26C 126.789,25.1184 130.123,24.4517 133.5,24C 134.119,22.2429 135.286,21.0762 137,20.5C 139.87,22.2759 143.37,23.2759 147.5,23.5C 147.5,22.5 147.5,21.5 147.5,20.5C 152.31,21.5716 156.643,23.7382 160.5,27C 159.289,27.8928 159.289,28.7261 160.5,29.5C 161.216,28.689 162.05,28.0223 163,27.5C 165.643,28.9813 168.143,30.6479 170.5,32.5 Z M 139.5,39.5 C 145.528,39.0166 150.528,41.0166 154.5,45.5C 155.261,52.4522 155.761,59.4522 156,66.5C 156.432,70.0717 158.265,72.405 161.5,73.5C 161.918,74.2216 162.584,74.7216 163.5,75C 180.83,75.4999 198.163,75.6666 215.5,75.5C 215.333,92.8365 215.5,110.17 216,127.5C 216.833,131 219,133.167 222.5,134C 229.426,135.339 236.426,135.839 243.5,135.5C 251.126,140.548 252.959,147.215 249,155.5C 247.549,157.464 245.716,158.797 243.5,159.5C 241.958,160.301 240.292,160.634 238.5,160.5C 232.755,160.211 227.088,160.711 221.5,162C 218.507,163.159 216.84,165.325 216.5,168.5C 215.503,185.325 215.17,202.325 215.5,219.5C 198.574,220.319 181.574,220.819 164.5,221C 161.975,221.424 159.975,222.59 158.5,224.5C 158.5,224.833 158.5,225.167 158.5,225.5C 156.933,226.681 156.099,228.347 156,230.5C 155.922,237.274 155.255,243.941 154,250.5C 150.505,254.722 146.005,256.722 140.5,256.5C 136.038,254.994 132.871,251.994 131,247.5C 130.667,241.167 130.333,234.833 130,228.5C 128.917,224.582 126.417,222.248 122.5,221.5C 101.671,220.668 80.6707,220.168 59.5,220C 58.5399,216.27 58.2065,212.437 58.5,208.5C 59.4435,205.332 59.4435,201.999 58.5,198.5C 58.2175,193.073 58.5509,187.74 59.5,182.5C 69.7121,182.882 78.0454,179.215 84.5,171.5C 88.0957,168.643 90.429,164.976 91.5,160.5C 94.1433,154.915 95.1433,148.915 94.5,142.5C 93.6257,138.422 91.959,134.755 89.5,131.5C 89.573,129.973 88.9063,128.973 87.5,128.5C 80.7156,118.268 71.0489,112.935 58.5,112.5C 59.4757,105.003 59.4757,97.6699 58.5,90.5C 58.1975,85.57 58.5308,80.7367 59.5,76C 80.5,75.6667 101.5,75.3333 122.5,75C 126.333,73.8333 128.833,71.3333 130,67.5C 130.333,61.1667 130.667,54.8333 131,48.5C 131.513,47.4734 132.013,46.4734 132.5,45.5C 134.269,42.7234 136.602,40.7234 139.5,39.5 Z"/></g>
<g><path style="opacity:1" fill="#f6d2bd" d="M 154.5,45.5 C 155.966,46.347 156.8,47.6803 157,49.5C 157.333,55.1667 157.667,60.8333 158,66.5C 158.716,68.8791 159.883,70.8791 161.5,72.5C 161.5,72.8333 161.5,73.1667 161.5,73.5C 158.265,72.405 156.432,70.0717 156,66.5C 155.761,59.4522 155.261,52.4522 154.5,45.5 Z"/></g>
<g><path style="opacity:1" fill="#f9f5e9" d="M 139.5,39.5 C 136.602,40.7234 134.269,42.7234 132.5,45.5C 131.25,45.5774 130.417,46.244 130,47.5C 129.667,53.8333 129.333,60.1667 129,66.5C 127.084,70.0849 124.251,72.5849 120.5,74C 99.836,74.5 79.1694,74.6666 58.5,74.5C 58.9867,73.5266 59.4867,72.5266 60,71.5C 79.755,71.2015 99.5883,71.5348 119.5,72.5C 120.5,72 121.5,71.5 122.5,71C 122.833,70 123.167,69 123.5,68C 120.54,68.3201 117.54,68.3201 114.5,68C 118.039,65.1423 121.872,64.9757 126,67.5C 126.173,62.0427 126.506,56.376 127,50.5C 128.094,47.3082 129.927,44.6416 132.5,42.5C 131.05,41.1502 130.383,39.4835 130.5,37.5C 133.739,37.4129 136.739,38.0795 139.5,39.5 Z"/></g>
<g><path style="opacity:1" fill="#f9f2e5" d="M 217.5,75.5 C 216.833,75.5 216.167,75.5 215.5,75.5C 197.647,74.7805 179.647,74.1138 161.5,73.5C 161.5,73.1667 161.5,72.8333 161.5,72.5C 163.044,72.2969 164.378,71.6302 165.5,70.5C 173.487,72.0419 181.821,72.7086 190.5,72.5C 197.357,72.4533 204.19,72.1199 211,71.5C 214.107,71.4634 216.274,72.7967 217.5,75.5 Z"/></g>
<g><path style="opacity:1" fill="#f9d3af" d="M 132.5,45.5 C 132.013,46.4734 131.513,47.4734 131,48.5C 130.667,54.8333 130.333,61.1667 130,67.5C 128.833,71.3333 126.333,73.8333 122.5,75C 101.5,75.3333 80.5,75.6667 59.5,76C 58.5308,80.7367 58.1975,85.57 58.5,90.5C 57.2101,86.3901 57.2101,81.0568 58.5,74.5C 79.1694,74.6666 99.836,74.5 120.5,74C 124.251,72.5849 127.084,70.0849 129,66.5C 129.333,60.1667 129.667,53.8333 130,47.5C 130.417,46.244 131.25,45.5774 132.5,45.5 Z"/></g>
<g><path style="opacity:1" fill="#f9ceaa" d="M 161.5,73.5 C 179.647,74.1138 197.647,74.7805 215.5,75.5C 198.163,75.6666 180.83,75.4999 163.5,75C 162.584,74.7216 161.918,74.2216 161.5,73.5 Z"/></g>
<g><path style="opacity:1" fill="#faf3da" d="M 39.5,63.5 C 40.6772,65.1026 40.5106,66.436 39,67.5C 38.3333,84.8333 38.3333,102.167 39,119.5C 39.2362,121.764 39.7362,123.931 40.5,126C 39.9781,126.561 39.6448,127.228 39.5,128C 40.6502,129.981 41.9835,131.814 43.5,133.5C 41.2512,132.92 39.5846,131.587 38.5,129.5C 37.561,109.523 37.2277,89.5228 37.5,69.5C 37.2594,67.1016 37.9261,65.1016 39.5,63.5 Z"/></g>
<g><path style="opacity:1" fill="#f9d8bc" d="M 215.5,75.5 C 216.167,75.5 216.833,75.5 217.5,75.5C 217.333,93.1698 217.5,110.836 218,128.5C 220.08,130.123 222.246,131.623 224.5,133C 230.167,133.333 235.833,133.667 241.5,134C 242.416,134.278 243.082,134.778 243.5,135.5C 236.426,135.839 229.426,135.339 222.5,134C 219,133.167 216.833,131 216,127.5C 215.5,110.17 215.333,92.8365 215.5,75.5 Z"/></g>
<g><path style="opacity:1" fill="#fadbae" d="M 232.5,59.5 C 234.746,61.6489 236.246,64.3156 237,67.5C 237.333,82.5 237.667,97.5 238,112.5C 241.662,113.24 245.162,114.24 248.5,115.5C 243.938,115.519 239.604,114.686 235.5,113C 236.657,98.2413 236.823,83.4079 236,68.5C 234.684,65.5798 233.517,62.5798 232.5,59.5 Z"/></g>
<g><path style="opacity:1" fill="#faddb1" d="M 37.5,69.5 C 37.2277,89.5228 37.561,109.523 38.5,129.5C 37.7321,128.737 37.2321,127.737 37,126.5C 36.1711,107.329 36.3377,88.3289 37.5,69.5 Z"/></g>
<g><path style="opacity:1" fill="#faeace" d="M 58.5,112.5 C 71.0489,112.935 80.7156,118.268 87.5,128.5C 81.368,126.105 76.368,122.272 72.5,117C 67.5363,115.673 62.8696,114.173 58.5,112.5 Z"/></g>
<g><path style="opacity:1" fill="#fad7c3" d="M 43.5,133.5 C 49.8421,133.334 56.1754,133.5 62.5,134C 63.7375,134.232 64.7375,134.732 65.5,135.5C 59.8236,135.666 54.1569,135.499 48.5,135C 46.6183,134.802 44.9516,134.302 43.5,133.5 Z"/></g>
<g><path style="opacity:1" fill="#fae3c6" d="M 89.5,131.5 C 91.959,134.755 93.6257,138.422 94.5,142.5C 93.8333,146.167 93.1667,149.833 92.5,153.5C 92.2279,146.046 91.2279,138.713 89.5,131.5 Z"/></g>
<g><path style="opacity:1" fill="#faecd3" d="M 249.5,115.5 C 267.38,122.903 274.88,136.237 272,155.5C 270.862,160.443 268.695,164.776 265.5,168.5C 266.06,164.875 267.394,161.541 269.5,158.5C 270.664,151.858 270.831,145.192 270,138.5C 267.566,133.954 264.899,129.621 262,125.5C 257.348,122.526 253.181,119.192 249.5,115.5 Z"/></g>
<g><path style="opacity:1" fill="#f9c59a" d="M 94.5,142.5 C 95.1433,148.915 94.1433,154.915 91.5,160.5C 91.6741,158.139 92.0074,155.806 92.5,153.5C 93.1667,149.833 93.8333,146.167 94.5,142.5 Z"/></g>
<g><path style="opacity:1" fill="#f9dbbb" d="M 243.5,135.5 C 244.978,135.238 246.311,135.571 247.5,136.5C 248.188,137.855 249.188,138.855 250.5,139.5C 252.291,143.326 253.124,147.326 253,151.5C 251.439,154.783 249.273,157.617 246.5,160C 245.251,160.74 244.251,160.573 243.5,159.5C 245.716,158.797 247.549,157.464 249,155.5C 252.959,147.215 251.126,140.548 243.5,135.5 Z"/></g>
<g><path style="opacity:1" fill="#f9f5e6" d="M 250.5,139.5 C 252.084,140.382 253.751,141.215 255.5,142C 254.903,143.062 254.57,144.228 254.5,145.5C 255.732,148.078 256.399,150.578 256.5,153C 255.747,154.487 254.914,154.654 254,153.5C 252.505,155.11 252.339,156.776 253.5,158.5C 249.773,159.636 246.606,161.636 244,164.5C 243.667,164.167 243.333,163.833 243,163.5C 239,164.167 235,164.833 231,165.5C 226.559,163.425 222.393,164.091 218.5,167.5C 219.219,165.112 220.885,163.612 223.5,163C 228.933,163.118 233.933,162.285 238.5,160.5C 240.292,160.634 241.958,160.301 243.5,159.5C 244.251,160.573 245.251,160.74 246.5,160C 249.273,157.617 251.439,154.783 253,151.5C 253.124,147.326 252.291,143.326 250.5,139.5 Z"/></g>
<g><path style="opacity:1" fill="#fadca8" d="M 238.5,160.5 C 233.933,162.285 228.933,163.118 223.5,163C 220.885,163.612 219.219,165.112 218.5,167.5C 217.833,167.833 217.167,168.167 216.5,168.5C 216.84,165.325 218.507,163.159 221.5,162C 227.088,160.711 232.755,160.211 238.5,160.5 Z"/></g>
<g><path style="opacity:1" fill="#faedd7" d="M 71.5,141.5 C 72.2216,141.918 72.7216,142.584 73,143.5C 73.2174,148.553 73.7174,153.553 74.5,158.5C 74.1667,158.833 73.8333,159.167 73.5,159.5C 70.4769,161.262 67.3103,162.595 64,163.5C 62.2358,163.456 60.5691,163.122 59,162.5C 57.5618,163.718 55.8951,164.385 54,164.5C 51.1925,163.614 48.3592,163.447 45.5,164C 45.4908,165.73 45.1575,167.563 44.5,169.5C 43.1627,166.61 41.1627,165.943 38.5,167.5C 39.2543,164.909 40.921,163.076 43.5,162C 49.1667,161.667 54.8333,161.333 60.5,161C 71.0409,158.421 74.7075,151.921 71.5,141.5 Z"/></g>
<g><path style="opacity:1" fill="#fae8ca" d="M 262.5,172.5 C 259.987,175.255 256.987,177.255 253.5,178.5C 254.234,177.292 254.567,175.959 254.5,174.5C 256.952,174.376 258.952,173.376 260.5,171.5C 261.416,171.543 262.083,171.876 262.5,172.5 Z"/></g>
<g><path style="opacity:1" fill="#fad8b7" d="M 84.5,171.5 C 78.0454,179.215 69.7121,182.882 59.5,182.5C 63.6929,181.286 68.0262,180.12 72.5,179C 76.2301,175.995 80.2301,173.495 84.5,171.5 Z"/></g>
<g><path style="opacity:1" fill="#fad9b3" d="M 38.5,167.5 C 38.5,168.833 38.5,170.167 38.5,171.5C 37.5031,189.993 37.1698,208.659 37.5,227.5C 36.3377,208.671 36.1711,189.671 37,170.5C 37.2321,169.263 37.7321,168.263 38.5,167.5 Z"/></g>
<g><path style="opacity:1" fill="#fad7ad" d="M 59.5,182.5 C 58.5509,187.74 58.2175,193.073 58.5,198.5C 57.5139,194.03 57.1805,189.363 57.5,184.5C 57.5,183.167 58.1667,182.5 59.5,182.5 Z"/></g>
<g><path style="opacity:1" fill="#f9e1c9" d="M 218.5,167.5 C 217.85,169.435 217.517,171.435 217.5,173.5C 219.099,173.232 220.432,173.566 221.5,174.5C 220.85,174.804 220.183,175.137 219.5,175.5C 218.667,190.155 218.167,204.822 218,219.5C 217.583,220.756 216.75,221.423 215.5,221.5C 215.5,220.833 215.5,220.167 215.5,219.5C 215.17,202.325 215.503,185.325 216.5,168.5C 217.167,168.167 217.833,167.833 218.5,167.5 Z"/></g>
<g><path style="opacity:1" fill="#fae3c5" d="M 245.5,181.5 C 243.107,182.21 240.607,182.877 238,183.5C 237.667,198.833 237.333,214.167 237,229.5C 235.791,233.276 233.624,236.276 230.5,238.5C 229.475,238.103 229.308,237.437 230,236.5C 231.912,234.343 233.579,232.009 235,229.5C 235.817,214.455 235.65,199.455 234.5,184.5C 234.977,183.522 235.643,182.689 236.5,182C 239.482,181.502 242.482,181.335 245.5,181.5 Z"/></g>
<g><path style="opacity:1" fill="#faf0da" d="M 38.5,171.5 C 38.3334,190.836 38.5,210.17 39,229.5C 39.3333,229.167 39.6667,228.833 40,228.5C 40.4955,230.473 40.6621,232.473 40.5,234.5C 38.7073,232.574 37.7073,230.241 37.5,227.5C 37.1698,208.659 37.5031,189.993 38.5,171.5 Z"/></g>
<g><path style="opacity:1" fill="#fadbaf" d="M 215.5,219.5 C 215.5,220.167 215.5,220.833 215.5,221.5C 198.83,221.333 182.163,221.5 165.5,222C 163.559,223.903 161.226,224.736 158.5,224.5C 159.975,222.59 161.975,221.424 164.5,221C 181.574,220.819 198.574,220.319 215.5,219.5 Z"/></g>
<g><path style="opacity:1" fill="#fae0c0" d="M 58.5,208.5 C 58.2065,212.437 58.5399,216.27 59.5,220C 80.6707,220.168 101.671,220.668 122.5,221.5C 122.5,221.833 122.5,222.167 122.5,222.5C 101.156,222.833 79.8229,222.5 58.5,221.5C 57.1629,216.454 57.1629,212.12 58.5,208.5 Z"/></g>
<g><path style="opacity:1" fill="#f9f7eb" d="M 57.5,184.5 C 57.1805,189.363 57.5139,194.03 58.5,198.5C 59.4435,201.999 59.4435,205.332 58.5,208.5C 57.1629,212.12 57.1629,216.454 58.5,221.5C 79.8229,222.5 101.156,222.833 122.5,222.5C 126.282,223.788 128.449,226.455 129,230.5C 129.499,234.486 129.666,238.486 129.5,242.5C 127.968,241.323 126.468,239.989 125,238.5C 124.582,235.183 124.749,232.183 125.5,229.5C 124.619,228.029 123.286,227.196 121.5,227C 122.696,226.346 122.696,225.846 121.5,225.5C 120.037,225.632 118.537,225.965 117,226.5C 115.739,226.241 114.739,225.574 114,224.5C 113.667,224.833 113.333,225.167 113,225.5C 99.4014,224.693 85.7347,224.026 72,223.5C 66.0969,224.629 60.2635,224.462 54.5,223C 53.0148,218.4 53.6815,214.067 56.5,210C 55.0947,201.298 55.4281,192.798 57.5,184.5 Z"/></g>
<g><path style="opacity:1" fill="#f9f8ee" d="M 221.5,174.5 C 220.999,185.916 220.999,197.416 221.5,209C 221.241,210.261 220.574,211.261 219.5,212C 220.114,213.13 220.114,214.463 219.5,216C 219.667,216.833 219.833,217.667 220,218.5C 220.415,216.709 221.415,215.376 223,214.5C 223.167,215.5 223.333,216.5 223.5,217.5C 222.797,219.769 221.63,221.769 220,223.5C 202.491,224.771 184.824,224.771 167,223.5C 164.36,225.895 161.86,228.395 159.5,231C 161.851,236.084 161.517,240.917 158.5,245.5C 159.519,238.795 159.519,232.128 158.5,225.5C 158.5,225.167 158.5,224.833 158.5,224.5C 161.226,224.736 163.559,223.903 165.5,222C 182.163,221.5 198.83,221.333 215.5,221.5C 216.75,221.423 217.583,220.756 218,219.5C 218.167,204.822 218.667,190.155 219.5,175.5C 220.183,175.137 220.85,174.804 221.5,174.5 Z"/></g>
<g><path style="opacity:1" fill="#f9e4cd" d="M 158.5,225.5 C 159.519,232.128 159.519,238.795 158.5,245.5C 155.732,252.259 150.732,256.593 143.5,258.5C 141.97,258.36 140.97,257.693 140.5,256.5C 146.005,256.722 150.505,254.722 154,250.5C 155.255,243.941 155.922,237.274 156,230.5C 156.099,228.347 156.933,226.681 158.5,225.5 Z"/></g>
<g><path style="opacity:1" fill="#fad1a7" d="M 122.5,222.5 C 122.5,222.167 122.5,221.833 122.5,221.5C 126.417,222.248 128.917,224.582 130,228.5C 130.333,234.833 130.667,241.167 131,247.5C 132.871,251.994 136.038,254.994 140.5,256.5C 131.723,256.041 128.056,251.374 129.5,242.5C 129.666,238.486 129.499,234.486 129,230.5C 128.449,226.455 126.282,223.788 122.5,222.5 Z"/></g>
<g><path style="opacity:1" fill="#fad2b3" d="M 48.5,240.5 C 68.3139,241.119 87.9806,241.785 107.5,242.5C 88.8304,242.667 70.1637,242.5 51.5,242C 50.2625,241.768 49.2625,241.268 48.5,240.5 Z"/></g>
<g><path style="opacity:1" fill="#fad6af" d="M 222.5,241.5 C 208.01,242.496 193.343,242.829 178.5,242.5C 177.908,245.127 177.575,247.794 177.5,250.5C 176.258,247.26 176.424,243.926 178,240.5C 192.755,241.491 207.588,241.824 222.5,241.5 Z"/></g>
<g><path style="opacity:1" fill="#f9dab8" d="M 108.5,245.5 C 111.165,252.927 114.498,260.26 118.5,267.5C 112.491,261.475 109.157,254.141 108.5,245.5 Z"/></g>
<g><path style="opacity:1" fill="#fadbb7" d="M 118.5,267.5 C 121.497,268.833 124.497,270.166 127.5,271.5C 127.5,272.5 127.5,273.5 127.5,274.5C 124.19,272.518 121.19,270.185 118.5,267.5 Z"/></g>
<g><path style="opacity:1" fill="#faeddf" d="M 176.5,251.5 C 174.08,262.428 167.746,270.261 157.5,275C 147.607,279.757 137.941,279.59 128.5,274.5C 135.951,274.471 143.285,274.971 150.5,276C 151.5,275.667 152.5,275.333 153.5,275C 155.05,271.554 157.717,269.554 161.5,269C 168.159,262.986 167.159,261.319 158.5,264C 158.982,262.992 159.148,261.825 159,260.5C 161.044,261.772 162.878,261.439 164.5,259.5C 165.421,261.756 167.088,262.756 169.5,262.5C 168.612,256.58 170.945,252.913 176.5,251.5 Z"/></g>
</svg>
