<?xml version="1.0" encoding="UTF-8"?>
<!DOCTYPE svg PUBLIC "-//W3C//DTD SVG 1.1//EN" "http://www.w3.org/Graphics/SVG/1.1/DTD/svg11.dtd">
<svg xmlns="http://www.w3.org/2000/svg" version="1.1" width="558px" height="447px" style="shape-rendering:geometricPrecision; text-rendering:geometricPrecision; image-rendering:optimizeQuality; fill-rule:evenodd; clip-rule:evenodd" xmlns:xlink="http://www.w3.org/1999/xlink">
<g><path style="opacity:1" fill="#fbe9c1" d="M 313.5,28.5 C 282.498,28.3334 251.498,28.5 220.5,29C 218.372,29.6552 216.372,30.4886 214.5,31.5C 214.953,30.5416 215.619,29.7083 216.5,29C 218.762,28.3581 220.929,27.5248 223,26.5C 251.914,27.4007 280.748,27.4007 309.5,26.5C 311.026,26.9943 312.359,27.661 313.5,28.5 Z"/></g>
<g><path style="opacity:1" fill="#f9f9f8" d="M 313.5,28.5 C 313.833,28.5 314.167,28.5 314.5,28.5C 314.525,31.179 315.858,32.5123 318.5,32.5C 318.231,34.4286 318.731,36.0953 320,37.5C 320.169,52.3391 320.669,67.0057 321.5,81.5C 323.305,83.1969 325.639,84.0302 328.5,84C 350.5,84.3333 372.5,84.6667 394.5,85C 397.862,86.3426 400.862,88.176 403.5,90.5C 403.5,90.8333 403.5,91.1667 403.5,91.5C 403.667,126.502 403.5,161.502 403,196.5C 402.326,199.26 401.493,201.927 400.5,204.5C 399.426,205.885 398.093,207.051 396.5,208C 371.836,208.5 347.169,208.667 322.5,208.5C 321.883,208.611 321.383,208.944 321,209.5C 320.5,218.16 320.334,226.827 320.5,235.5C 323.044,235.104 325.211,235.771 327,237.5C 327.308,236.692 327.808,236.025 328.5,235.5C 356.154,236.184 383.821,236.85 411.5,237.5C 416.179,241.18 420.179,245.514 423.5,250.5C 424.038,252.117 424.371,253.784 424.5,255.5C 425.5,255.5 426.5,255.5 427.5,255.5C 428.196,258.554 429.696,261.22 432,263.5C 434.773,264.902 437.273,266.569 439.5,268.5C 445.842,274.843 451.842,281.509 457.5,288.5C 458.569,293.178 458.569,297.844 457.5,302.5C 456.284,305.217 454.284,307.05 451.5,308C 451.957,308.414 452.291,308.914 452.5,309.5C 449.176,310.159 447.843,312.159 448.5,315.5C 447.167,315.5 445.833,315.5 444.5,315.5C 444.502,317.831 443.669,319.831 442,321.5C 440.899,323.394 439.566,324.061 438,323.5C 437.506,325.134 437.34,326.801 437.5,328.5C 436.243,331.427 434.243,333.761 431.5,335.5C 428.644,336.414 426.144,338.081 424,340.5C 423.667,340.167 423.333,339.833 423,339.5C 422.506,341.134 422.34,342.801 422.5,344.5C 419.5,344.167 418.167,345.5 418.5,348.5C 417.448,348.351 416.448,348.517 415.5,349C 416.337,350.011 416.67,351.178 416.5,352.5C 414.363,355.973 411.363,358.306 407.5,359.5C 378.995,359.169 350.662,359.502 322.5,360.5C 322.017,376.751 321.017,393.084 319.5,409.5C 318.833,410.833 317.833,411.833 316.5,412.5C 314.599,412.433 312.766,412.767 311,413.5C 309.989,413.108 309.489,412.441 309.5,411.5C 307.775,412.015 306.108,412.682 304.5,413.5C 277.5,414.833 250.5,414.833 223.5,413.5C 221.343,412.21 219.01,411.376 216.5,411C 214.346,408.526 212.846,405.692 212,402.5C 211.831,388.327 211.331,374.327 210.5,360.5C 210.167,360.5 209.833,360.5 209.5,360.5C 187.337,359.668 165.004,359.168 142.5,359C 139.58,356.557 136.58,354.39 133.5,352.5C 132.54,317.184 132.207,281.851 132.5,246.5C 132.924,240.742 135.924,237.075 141.5,235.5C 163.521,235.196 185.521,235.696 207.5,237C 208,237.5 208.5,238 209,238.5C 209.419,237.328 210.085,236.328 211,235.5C 211.5,225.839 211.666,216.172 211.5,206.5C 184.167,206.5 156.833,206.5 129.5,206.5C 127.099,204.438 124.433,202.771 121.5,201.5C 121.456,197.91 119.789,195.41 116.5,194C 117.956,193.577 118.456,192.744 118,191.5C 115.766,188.251 112.766,186.251 109,185.5C 108.333,184.833 108.333,184.167 109,183.5C 109.654,184.696 110.154,184.696 110.5,183.5C 109.902,182.205 109.402,180.872 109,179.5C 108.167,180.5 107.333,181.5 106.5,182.5C 103.405,179.308 101.072,175.641 99.5,171.5C 96.8333,170.833 95.1667,169.167 94.5,166.5C 93.914,166.709 93.414,167.043 93,167.5C 92.6667,166.167 92.3333,164.833 92,163.5C 91.1072,164.711 90.2739,164.711 89.5,163.5C 87.2519,161.263 85.9186,158.596 85.5,155.5C 83.8333,155.5 82.1667,155.5 80.5,155.5C 80.2437,153.063 79.5771,150.729 78.5,148.5C 80.181,145.207 80.5143,141.874 79.5,138.5C 80.5,138.5 81.5,138.5 82.5,138.5C 82.1756,135.306 83.3422,134.306 86,135.5C 86.4828,134.552 86.6495,133.552 86.5,132.5C 87.9778,132.762 89.3112,132.429 90.5,131.5C 89.5721,130.232 89.4054,128.899 90,127.5C 91.9654,124.201 94.632,121.535 98,119.5C 99.3277,116.688 100.828,114.022 102.5,111.5C 105.072,107.255 108.406,103.589 112.5,100.5C 116.786,96.3877 121.286,92.3877 126,88.5C 126.791,87.255 127.291,85.9217 127.5,84.5C 155.502,84.6666 183.502,84.5 211.5,84C 212.184,70.3759 212.85,56.7092 213.5,43C 213.04,41.6994 212.706,40.366 212.5,39C 213.86,36.7298 214.527,34.2298 214.5,31.5C 216.372,30.4886 218.372,29.6552 220.5,29C 251.498,28.5 282.498,28.3334 313.5,28.5 Z M 240.5,57.5 C 257.833,57.5 275.167,57.5 292.5,57.5C 292.5,65.5 292.5,73.5 292.5,81.5C 274.931,82.8243 257.264,82.8243 239.5,81.5C 240.087,73.3576 240.42,65.3576 240.5,57.5 Z M 141.5,112.5 C 219.5,112.5 297.5,112.5 375.5,112.5C 375.5,134.5 375.5,156.5 375.5,178.5C 374.167,178.5 372.833,178.5 371.5,178.5C 294.497,178.833 217.497,178.5 140.5,177.5C 138.479,175.479 136.479,173.479 134.5,171.5C 130.873,166.206 126.54,161.539 121.5,157.5C 119.854,154.19 117.52,151.523 114.5,149.5C 114.297,147.956 113.63,146.622 112.5,145.5C 114.475,142.195 116.809,139.195 119.5,136.5C 123.839,132.159 127.839,127.492 131.5,122.5C 134.86,119.14 138.194,115.806 141.5,112.5 Z M 292.5,208.5 C 292.5,217.167 292.5,225.833 292.5,234.5C 278.833,234.5 265.167,234.5 251.5,234.5C 248.412,233.932 245.412,233.932 242.5,234.5C 240.484,234.484 239.484,233.484 239.5,231.5C 240.498,224.311 240.832,216.811 240.5,209C 257.83,208.5 275.163,208.333 292.5,208.5 Z M 161.5,264.5 C 239.834,264.333 318.167,264.5 396.5,265C 399.335,269.001 402.668,272.501 406.5,275.5C 408.43,279.1 411.097,282.1 414.5,284.5C 418.016,288.852 421.349,293.352 424.5,298C 421.275,301.717 418.275,305.55 415.5,309.5C 408.583,315.33 402.583,321.996 397.5,329.5C 318.904,330.497 240.237,330.83 161.5,330.5C 161.5,308.5 161.5,286.5 161.5,264.5 Z M 240.5,361.5 C 257.833,361.5 275.167,361.5 292.5,361.5C 292.5,369.5 292.5,377.5 292.5,385.5C 275.256,385.175 258.09,385.508 241,386.5C 240.769,378.805 240.269,371.138 239.5,363.5C 239.543,362.584 239.876,361.917 240.5,361.5 Z"/></g>
<g><path style="opacity:1" fill="#fce4c3" d="M 293.5,57.5 C 293.826,65.6841 293.492,73.6841 292.5,81.5C 292.5,73.5 292.5,65.5 292.5,57.5C 275.167,57.5 257.833,57.5 240.5,57.5C 240.918,56.7784 241.584,56.2784 242.5,56C 259.167,55.3333 275.833,55.3333 292.5,56C 293.056,56.3826 293.389,56.8826 293.5,57.5 Z"/></g>
<g><path style="opacity:1" fill="#faf5dd" d="M 314.5,28.5 C 318.498,30.1443 320.831,33.1443 321.5,37.5C 321.5,52.1667 321.5,66.8333 321.5,81.5C 320.669,67.0057 320.169,52.3391 320,37.5C 318.731,36.0953 318.231,34.4286 318.5,32.5C 315.858,32.5123 314.525,31.179 314.5,28.5 Z"/></g>
<g><path style="opacity:1" fill="#fbebce" d="M 214.5,31.5 C 214.527,34.2298 213.86,36.7298 212.5,39C 212.706,40.366 213.04,41.6994 213.5,43C 212.85,56.7092 212.184,70.3759 211.5,84C 183.502,84.5 155.502,84.6666 127.5,84.5C 127.918,83.7784 128.584,83.2784 129.5,83C 156.165,82.5 182.831,82.3334 209.5,82.5C 209.333,67.8295 209.5,53.1629 210,38.5C 210.687,35.5428 212.187,33.2094 214.5,31.5 Z"/></g>
<g><path style="opacity:1" fill="#faf5dc" d="M 293.5,57.5 C 294.657,65.6563 294.823,73.9896 294,82.5C 293.5,83 293,83.5 292.5,84C 274.836,84.4999 257.17,84.6666 239.5,84.5C 239.5,83.5 239.5,82.5 239.5,81.5C 257.264,82.8243 274.931,82.8243 292.5,81.5C 293.492,73.6841 293.826,65.6841 293.5,57.5 Z"/></g>
<g><path style="opacity:1" fill="#fbebcb" d="M 321.5,37.5 C 322.496,52.324 322.829,67.324 322.5,82.5C 346.836,82.3334 371.169,82.5 395.5,83C 399.344,84.3467 402.011,86.8467 403.5,90.5C 400.862,88.176 397.862,86.3426 394.5,85C 372.5,84.6667 350.5,84.3333 328.5,84C 325.639,84.0302 323.305,83.1969 321.5,81.5C 321.5,66.8333 321.5,52.1667 321.5,37.5 Z"/></g>
<g><path style="opacity:1" fill="#fae3c8" d="M 127.5,84.5 C 127.291,85.9217 126.791,87.255 126,88.5C 121.286,92.3877 116.786,96.3877 112.5,100.5C 115.429,96.3939 118.596,92.3939 122,88.5C 123.451,86.5359 125.284,85.2026 127.5,84.5 Z"/></g>
<g><path style="opacity:1" fill="#f7dcbe" d="M 403.5,91.5 C 404.117,91.6107 404.617,91.944 405,92.5C 405.667,127.5 405.667,162.5 405,197.5C 404.313,200.457 402.813,202.791 400.5,204.5C 401.493,201.927 402.326,199.26 403,196.5C 403.5,161.502 403.667,126.502 403.5,91.5 Z"/></g>
<g><path style="opacity:1" fill="#faf1d8" d="M 376.5,111.5 C 297.998,111.167 219.665,111.501 141.5,112.5C 138.194,115.806 134.86,119.14 131.5,122.5C 130.323,120.968 128.989,119.468 127.5,118C 129.464,117.376 131.131,117.876 132.5,119.5C 133.59,118.609 133.59,117.609 132.5,116.5C 135.105,115.528 137.105,113.861 138.5,111.5C 217.999,110.168 297.332,110.168 376.5,111.5 Z"/></g>
<g><path style="opacity:1" fill="#fbead0" d="M 102.5,111.5 C 100.828,114.022 99.3277,116.688 98,119.5C 94.632,121.535 91.9654,124.201 90,127.5C 89.4054,128.899 89.5721,130.232 90.5,131.5C 89.3112,132.429 87.9778,132.762 86.5,132.5C 86.6495,133.552 86.4828,134.552 86,135.5C 83.3422,134.306 82.1756,135.306 82.5,138.5C 81.5,138.5 80.5,138.5 79.5,138.5C 80.5143,141.874 80.181,145.207 78.5,148.5C 79.5771,150.729 80.2437,153.063 80.5,155.5C 76.3259,150.463 75.4925,144.797 78,138.5C 85.7135,128.96 93.8802,119.96 102.5,111.5 Z"/></g>
<g><path style="opacity:1" fill="#fddcc3" d="M 119.5,136.5 C 116.809,139.195 114.475,142.195 112.5,145.5C 113.63,146.622 114.297,147.956 114.5,149.5C 110.177,148.042 109.51,145.542 112.5,142C 112.265,141.127 111.931,140.293 111.5,139.5C 112.934,138.77 114.1,137.77 115,136.5C 116.299,136.966 117.799,136.966 119.5,136.5 Z"/></g>
<g><path style="opacity:1" fill="#fba890" d="M 141.5,112.5 C 219.665,111.501 297.998,111.167 376.5,111.5C 376.831,134.339 376.497,157.006 375.5,179.5C 373.901,179.768 372.568,179.434 371.5,178.5C 372.833,178.5 374.167,178.5 375.5,178.5C 375.5,156.5 375.5,134.5 375.5,112.5C 297.5,112.5 219.5,112.5 141.5,112.5 Z"/></g>
<g><path style="opacity:1" fill="#f9d8b1" d="M 121.5,157.5 C 126.54,161.539 130.873,166.206 134.5,171.5C 130.664,168.483 126.831,165.483 123,162.5C 122.392,160.846 121.892,159.179 121.5,157.5 Z"/></g>
<g><path style="opacity:1" fill="#fbe9d1" d="M 80.5,155.5 C 82.1667,155.5 83.8333,155.5 85.5,155.5C 85.9186,158.596 87.2519,161.263 89.5,163.5C 90.2739,164.711 91.1072,164.711 92,163.5C 92.3333,164.833 92.6667,166.167 93,167.5C 93.414,167.043 93.914,166.709 94.5,166.5C 95.1667,169.167 96.8333,170.833 99.5,171.5C 101.072,175.641 103.405,179.308 106.5,182.5C 107.333,181.5 108.167,180.5 109,179.5C 109.402,180.872 109.902,182.205 110.5,183.5C 110.154,184.696 109.654,184.696 109,183.5C 108.333,184.167 108.333,184.833 109,185.5C 112.766,186.251 115.766,188.251 118,191.5C 118.456,192.744 117.956,193.577 116.5,194C 119.789,195.41 121.456,197.91 121.5,201.5C 107.862,186.192 94.1954,170.859 80.5,155.5 Z"/></g>
<g><path style="opacity:1" fill="#faead4" d="M 134.5,171.5 C 136.479,173.479 138.479,175.479 140.5,177.5C 217.497,178.5 294.497,178.833 371.5,178.5C 372.568,179.434 373.901,179.768 375.5,179.5C 297.098,180.168 218.598,180.835 140,181.5C 137.01,178.708 135.177,175.375 134.5,171.5 Z"/></g>
<g><path style="opacity:1" fill="#f9e9cb" d="M 129.5,206.5 C 156.833,206.5 184.167,206.5 211.5,206.5C 211.666,216.172 211.5,225.839 211,235.5C 210.085,236.328 209.419,237.328 209,238.5C 208.5,238 208,237.5 207.5,237C 185.521,235.696 163.521,235.196 141.5,235.5C 163.994,234.503 186.661,234.169 209.5,234.5C 209.5,225.833 209.5,217.167 209.5,208.5C 182.833,207.833 156.167,207.167 129.5,206.5 Z"/></g>
<g><path style="opacity:1" fill="#fceecc" d="M 293.5,208.5 C 293.167,208.5 292.833,208.5 292.5,208.5C 275.163,208.333 257.83,208.5 240.5,209C 240.832,216.811 240.498,224.311 239.5,231.5C 238.507,223.35 238.174,215.017 238.5,206.5C 256.503,206.333 274.503,206.5 292.5,207C 293.056,207.383 293.389,207.883 293.5,208.5 Z"/></g>
<g><path style="opacity:1" fill="#fae6bb" d="M 121.5,201.5 C 124.433,202.771 127.099,204.438 129.5,206.5C 156.167,207.167 182.833,207.833 209.5,208.5C 182.498,208.667 155.498,208.5 128.5,208C 125.669,206.334 123.336,204.168 121.5,201.5 Z"/></g>
<g><path style="opacity:1" fill="#fad3a1" d="M 292.5,208.5 C 292.833,208.5 293.167,208.5 293.5,208.5C 293.5,217.5 293.5,226.5 293.5,235.5C 279.323,235.829 265.323,235.496 251.5,234.5C 265.167,234.5 278.833,234.5 292.5,234.5C 292.5,225.833 292.5,217.167 292.5,208.5 Z"/></g>
<g><path style="opacity:1" fill="#fbebcc" d="M 322.5,208.5 C 322.183,217.085 322.517,225.585 323.5,234C 351.833,234.333 380.167,234.667 408.5,235C 409.942,235.377 410.942,236.21 411.5,237.5C 383.821,236.85 356.154,236.184 328.5,235.5C 327.808,236.025 327.308,236.692 327,237.5C 325.211,235.771 323.044,235.104 320.5,235.5C 320.334,226.827 320.5,218.16 321,209.5C 321.383,208.944 321.883,208.611 322.5,208.5 Z"/></g>
<g><path style="opacity:1" fill="#fce3be" d="M 423.5,250.5 C 429.205,256.203 434.538,262.203 439.5,268.5C 437.273,266.569 434.773,264.902 432,263.5C 429.696,261.22 428.196,258.554 427.5,255.5C 426.5,255.5 425.5,255.5 424.5,255.5C 424.371,253.784 424.038,252.117 423.5,250.5 Z"/></g>
<g><path style="opacity:1" fill="#fed7b6" d="M 406.5,275.5 C 402.668,272.501 399.335,269.001 396.5,265C 318.167,264.5 239.834,264.333 161.5,264.5C 161.5,264.167 161.5,263.833 161.5,263.5C 240.332,262.334 319.332,262.168 398.5,263C 399.376,264.586 400.376,266.086 401.5,267.5C 401.833,266.167 402.167,264.833 402.5,263.5C 403.478,263.977 404.311,264.643 405,265.5C 406.043,268.757 406.543,272.09 406.5,275.5 Z"/></g>
<g><path style="opacity:1" fill="#faddbb" d="M 132.5,246.5 C 132.207,281.851 132.54,317.184 133.5,352.5C 132.71,351.391 132.21,350.058 132,348.5C 131.169,314.331 131.336,280.331 132.5,246.5 Z"/></g>
<g><path style="opacity:1" fill="#faead2" d="M 414.5,284.5 C 416.199,284.34 417.866,284.506 419.5,285C 419.167,285.333 418.833,285.667 418.5,286C 419.224,288.67 420.891,290.17 423.5,290.5C 423.284,292.681 424.117,294.347 426,295.5C 427.459,299.858 426.126,302.858 422,304.5C 421.418,308.251 419.251,309.918 415.5,309.5C 418.275,305.55 421.275,301.717 424.5,298C 421.349,293.352 418.016,288.852 414.5,284.5 Z"/></g>
<g><path style="opacity:1" fill="#fbe4c1" d="M 457.5,288.5 C 460.783,293.457 461.283,298.79 459,304.5C 452.31,313.018 445.143,321.018 437.5,328.5C 437.34,326.801 437.506,325.134 438,323.5C 439.566,324.061 440.899,323.394 442,321.5C 443.669,319.831 444.502,317.831 444.5,315.5C 445.833,315.5 447.167,315.5 448.5,315.5C 447.843,312.159 449.176,310.159 452.5,309.5C 452.291,308.914 451.957,308.414 451.5,308C 454.284,307.05 456.284,305.217 457.5,302.5C 458.569,297.844 458.569,293.178 457.5,288.5 Z"/></g>
<g><path style="opacity:1" fill="#fbdfb0" d="M 415.5,309.5 C 415.649,310.552 415.483,311.552 415,312.5C 408.961,317.705 403.461,323.371 398.5,329.5C 398.167,329.5 397.833,329.5 397.5,329.5C 402.583,321.996 408.583,315.33 415.5,309.5 Z"/></g>
<g><path style="opacity:1" fill="#faeacd" d="M 161.5,263.5 C 161.5,263.833 161.5,264.167 161.5,264.5C 161.5,286.5 161.5,308.5 161.5,330.5C 240.237,330.83 318.904,330.497 397.5,329.5C 397.833,329.5 398.167,329.5 398.5,329.5C 398.5,330.5 398.5,331.5 398.5,332.5C 319.499,332.667 240.499,332.5 161.5,332C 160.572,331.612 159.905,330.945 159.5,330C 160.151,307.693 160.818,285.527 161.5,263.5 Z"/></g>
<g><path style="opacity:1" fill="#fae4c1" d="M 431.5,335.5 C 426.843,341.489 421.843,347.156 416.5,352.5C 416.67,351.178 416.337,350.011 415.5,349C 416.448,348.517 417.448,348.351 418.5,348.5C 418.167,345.5 419.5,344.167 422.5,344.5C 422.34,342.801 422.506,341.134 423,339.5C 423.333,339.833 423.667,340.167 424,340.5C 426.144,338.081 428.644,336.414 431.5,335.5 Z"/></g>
<g><path style="opacity:1" fill="#fcdcb9" d="M 133.5,352.5 C 136.58,354.39 139.58,356.557 142.5,359C 165.004,359.168 187.337,359.668 209.5,360.5C 193.991,360.17 178.658,360.504 163.5,361.5C 156.094,361.848 148.761,361.348 141.5,360C 137.703,358.702 135.036,356.202 133.5,352.5 Z"/></g>
<g><path style="opacity:1" fill="#fbe6bd" d="M 322.5,360.5 C 350.662,359.502 378.995,359.169 407.5,359.5C 404.155,361.217 400.489,361.884 396.5,361.5C 372.006,360.502 347.339,360.169 322.5,360.5 Z"/></g>
<g><path style="opacity:1" fill="#fbc85e" d="M 163.5,361.5 C 178.658,360.504 193.991,360.17 209.5,360.5C 209.833,360.5 210.167,360.5 210.5,360.5C 210.5,375.5 210.5,390.5 210.5,405.5C 209.504,391.01 209.171,376.343 209.5,361.5C 194.167,361.5 178.833,361.5 163.5,361.5 Z"/></g>
<g><path style="opacity:1" fill="#fbcd5c" d="M 240.5,361.5 C 257.659,360.503 274.992,360.17 292.5,360.5C 293.493,368.65 293.826,376.983 293.5,385.5C 293.167,385.5 292.833,385.5 292.5,385.5C 292.5,377.5 292.5,369.5 292.5,361.5C 275.167,361.5 257.833,361.5 240.5,361.5 Z"/></g>
<g><path style="opacity:1" fill="#fbd870" d="M 322.5,360.5 C 347.339,360.169 372.006,360.502 396.5,361.5C 371.833,361.5 347.167,361.5 322.5,361.5C 322.667,376.17 322.5,390.837 322,405.5C 321.392,407.066 320.558,408.4 319.5,409.5C 321.017,393.084 322.017,376.751 322.5,360.5 Z"/></g>
<g><path style="opacity:1" fill="#fce2bd" d="M 292.5,360.5 C 274.992,360.17 257.659,360.503 240.5,361.5C 239.876,361.917 239.543,362.584 239.5,363.5C 240.269,371.138 240.769,378.805 241,386.5C 258.09,385.508 275.256,385.175 292.5,385.5C 292.833,385.5 293.167,385.5 293.5,385.5C 293.389,386.117 293.056,386.617 292.5,387C 275.302,387.187 258.135,387.687 241,388.5C 240.228,388.355 239.561,388.022 239,387.5C 238.183,378.255 238.35,369.089 239.5,360C 257.338,359.171 275.005,359.338 292.5,360.5 Z"/></g>
<g><path style="opacity:1" fill="#fcd8b9" d="M 210.5,360.5 C 211.331,374.327 211.831,388.327 212,402.5C 212.846,405.692 214.346,408.526 216.5,411C 219.01,411.376 221.343,412.21 223.5,413.5C 250.5,414.833 277.5,414.833 304.5,413.5C 306.108,412.682 307.775,412.015 309.5,411.5C 309.489,412.441 309.989,413.108 311,413.5C 312.766,412.767 314.599,412.433 316.5,412.5C 314.615,414.311 312.281,415.478 309.5,416C 280.833,416.667 252.167,416.667 223.5,416C 217.151,414.845 212.818,411.345 210.5,405.5C 210.5,390.5 210.5,375.5 210.5,360.5 Z"/></g>
</svg>
