<?xml version="1.0" encoding="UTF-8"?>
<!DOCTYPE svg PUBLIC "-//W3C//DTD SVG 1.1//EN" "http://www.w3.org/Graphics/SVG/1.1/DTD/svg11.dtd">
<svg xmlns="http://www.w3.org/2000/svg" version="1.1" width="490px" height="442px" style="shape-rendering:geometricPrecision; text-rendering:geometricPrecision; image-rendering:optimizeQuality; fill-rule:evenodd; clip-rule:evenodd" xmlns:xlink="http://www.w3.org/1999/xlink">
<g><path style="opacity:1" fill="#f6f6f6" d="M 398.5,52.5 C 401.788,80.1766 399.621,107.51 392,134.5C 388.516,146.787 384.349,158.787 379.5,170.5C 376.742,173.678 374.742,177.345 373.5,181.5C 363.806,200.203 351.639,217.203 337,232.5C 321.561,248.112 305.394,262.779 288.5,276.5C 287.883,276.611 287.383,276.944 287,277.5C 285.036,303.312 284.202,328.978 284.5,354.5C 283.42,360.486 280.42,365.319 275.5,369C 251.044,383.064 226.71,397.397 202.5,412C 197.414,415.21 192.081,417.876 186.5,420C 181.266,420.977 176.266,420.31 171.5,418C 164.293,412.294 157.96,405.794 152.5,398.5C 150.896,395.019 149.896,391.352 149.5,387.5C 150.352,382.432 151.352,377.432 152.5,372.5C 156.29,358.174 160.624,344.007 165.5,330C 149.529,313.028 133.196,296.362 116.5,280C 99.4582,284.566 82.4582,289.566 65.5,295C 58.424,296.356 51.7574,295.356 45.5,292C 39.6667,286.167 33.8333,280.333 28,274.5C 23.206,266.058 23.5393,257.724 29,249.5C 44.2523,223.997 59.2523,198.331 74,172.5C 77.4791,166.349 82.6458,162.516 89.5,161C 106.844,159.722 124.177,158.555 141.5,157.5C 150.372,158.82 159.372,158.654 168.5,157C 169.252,156.329 169.586,155.496 169.5,154.5C 194.24,122.921 223.24,96.0881 256.5,74C 264.975,68.429 273.975,63.929 283.5,60.5C 305.676,52.6211 328.343,47.2877 351.5,44.5C 363.66,43.3401 375.993,43.1735 388.5,44C 393.273,45.2824 396.606,48.1157 398.5,52.5 Z M 374.5,103.5 C 372.057,112.284 370.057,121.284 368.5,130.5C 358.69,160.79 343.19,187.79 322,211.5C 306.405,228.099 289.905,243.599 272.5,258C 242.951,275.941 212.951,293.108 182.5,309.5C 166.032,294.866 150.365,279.366 135.5,263C 151.609,233.283 168.109,203.783 185,174.5C 205.869,149.298 229.035,126.464 254.5,106C 266.338,97.9112 278.671,90.5779 291.5,84C 309.974,77.0722 328.974,72.2389 348.5,69.5C 357.82,68.8711 367.154,68.5378 376.5,68.5C 376.315,80.1965 375.649,91.8632 374.5,103.5 Z M 321.5,117.5 C 328.713,123.033 329.879,129.699 325,137.5C 317.956,142.956 311.456,142.289 305.5,135.5C 303.997,130.364 304.33,125.364 306.5,120.5C 307.167,120.5 307.5,120.167 307.5,119.5C 311.972,117.784 316.638,117.118 321.5,117.5 Z M 264.5,157.5 C 270.5,164.167 276.833,170.5 283.5,176.5C 292.432,183.716 292.599,191.049 284,198.5C 272,186.5 260,174.5 248,162.5C 247.517,161.552 247.351,160.552 247.5,159.5C 248.833,158.833 249.833,157.833 250.5,156.5C 252.607,155.7 254.774,155.033 257,154.5C 259.708,155.109 262.208,156.109 264.5,157.5 Z M 148.5,182.5 C 149.289,182.783 149.956,183.283 150.5,184C 149.086,185.993 148.086,188.16 147.5,190.5C 135.238,212.184 122.571,233.684 109.5,255C 92.9008,259.978 76.4008,265.145 60,270.5C 57.1667,267.667 54.3333,264.833 51.5,262C 65.9947,236.687 80.6613,211.52 95.5,186.5C 105.403,185.174 115.403,184.507 125.5,184.5C 133.266,183.863 140.933,183.196 148.5,182.5 Z M 175.5,387.5 C 175.586,386.504 175.252,385.671 174.5,385C 177.865,376.04 180.532,366.873 182.5,357.5C 185.264,351.143 187.43,344.476 189,337.5C 189.785,335.714 190.951,334.214 192.5,333C 215.382,320.307 238.216,307.474 261,294.5C 261,312.179 260.333,329.846 259,347.5C 258.535,348.931 257.701,350.097 256.5,351C 232.5,365 208.5,379 184.5,393C 183.5,393.667 182.5,393.667 181.5,393C 179.63,390.96 177.63,389.127 175.5,387.5 Z"/></g>
<g><path style="opacity:1" fill="#cdcdcf" d="M 351.5,44.5 C 328.343,47.2877 305.676,52.6211 283.5,60.5C 305.09,51.104 327.757,45.7707 351.5,44.5 Z"/></g>
<g><path style="opacity:1" fill="#c4c5c9" d="M 374.5,103.5 C 375.649,91.8632 376.315,80.1965 376.5,68.5C 367.154,68.5378 357.82,68.8711 348.5,69.5C 350.292,68.6909 352.292,68.1909 354.5,68C 362.159,67.5003 369.826,67.3336 377.5,67.5C 377.958,79.7699 376.958,91.7699 374.5,103.5 Z"/></g>
<g><path style="opacity:1" fill="#c3c3c7" d="M 333.5,96.5 C 322.632,91.6329 311.632,91.2996 300.5,95.5C 305.12,92.4672 310.286,91.1338 316,91.5C 322.573,91.0967 328.406,92.7634 333.5,96.5 Z"/></g>
<g><path style="opacity:1" fill="#f8f8f8" d="M 333.5,96.5 C 340.439,99.1057 345.439,103.772 348.5,110.5C 356.07,129.432 352.404,145.765 337.5,159.5C 329.057,164.027 320.057,165.86 310.5,165C 308.471,164.319 306.471,163.986 304.5,164C 307.067,166.396 309.4,168.896 311.5,171.5C 318.7,184.548 317.866,197.215 309,209.5C 302.91,216.096 296.41,222.096 289.5,227.5C 285.363,227.854 281.363,227.354 277.5,226C 258,206.5 238.5,187 219,167.5C 217.175,163.238 217.008,158.905 218.5,154.5C 224.167,149.5 229.5,144.167 234.5,138.5C 235.708,135.956 237.708,134.622 240.5,134.5C 250.2,130.011 260.2,129.344 270.5,132.5C 272.153,132.66 273.486,133.326 274.5,134.5C 276.771,136.266 278.937,138.266 281,140.5C 280.757,136.219 280.257,131.886 279.5,127.5C 280.303,120.759 282.303,114.426 285.5,108.5C 287.927,102.905 291.927,98.738 297.5,96C 298.448,95.5172 299.448,95.3505 300.5,95.5C 311.632,91.2996 322.632,91.6329 333.5,96.5 Z M 321.5,117.5 C 328.713,123.033 329.879,129.699 325,137.5C 317.956,142.956 311.456,142.289 305.5,135.5C 303.997,130.364 304.33,125.364 306.5,120.5C 307.167,120.5 307.5,120.167 307.5,119.5C 311.972,117.784 316.638,117.118 321.5,117.5 Z M 264.5,157.5 C 270.5,164.167 276.833,170.5 283.5,176.5C 292.432,183.716 292.599,191.049 284,198.5C 272,186.5 260,174.5 248,162.5C 247.517,161.552 247.351,160.552 247.5,159.5C 248.833,158.833 249.833,157.833 250.5,156.5C 252.607,155.7 254.774,155.033 257,154.5C 259.708,155.109 262.208,156.109 264.5,157.5 Z"/></g>
<g><path style="opacity:1" fill="#bdbcc2" d="M 374.5,103.5 C 373.757,112.894 371.757,121.894 368.5,130.5C 370.057,121.284 372.057,112.284 374.5,103.5 Z"/></g>
<g><path style="opacity:1" fill="#bebcbb" d="M 321.5,117.5 C 316.638,117.118 311.972,117.784 307.5,119.5C 309.884,117.029 312.884,115.696 316.5,115.5C 318.557,115.436 320.223,116.102 321.5,117.5 Z"/></g>
<g><path style="opacity:1" fill="#c2c1c3" d="M 285.5,108.5 C 282.303,114.426 280.303,120.759 279.5,127.5C 280.257,131.886 280.757,136.219 281,140.5C 278.937,138.266 276.771,136.266 274.5,134.5C 276.17,134.751 277.67,135.418 279,136.5C 278.177,130.518 278.511,124.518 280,118.5C 281.086,114.654 282.919,111.32 285.5,108.5 Z"/></g>
<g><path style="opacity:1" fill="#bec0c2" d="M 306.5,120.5 C 304.33,125.364 303.997,130.364 305.5,135.5C 304.883,135.389 304.383,135.056 304,134.5C 303.333,130.833 303.333,127.167 304,123.5C 304.377,122.058 305.21,121.058 306.5,120.5 Z"/></g>
<g><path style="opacity:1" fill="#cbc9ce" d="M 270.5,132.5 C 260.2,129.344 250.2,130.011 240.5,134.5C 240.577,133.25 241.244,132.417 242.5,132C 252.095,127.392 261.429,127.559 270.5,132.5 Z"/></g>
<g><path style="opacity:1" fill="#bfbdbf" d="M 398.5,52.5 C 399.966,53.347 400.8,54.6803 401,56.5C 404.016,96.579 396.849,134.579 379.5,170.5C 384.349,158.787 388.516,146.787 392,134.5C 399.621,107.51 401.788,80.1766 398.5,52.5 Z"/></g>
<g><path style="opacity:1" fill="#c3c2c5" d="M 234.5,138.5 C 229.5,144.167 224.167,149.5 218.5,154.5C 222.833,148.167 228.167,142.833 234.5,138.5 Z"/></g>
<g><path style="opacity:1" fill="#bcbabf" d="M 264.5,157.5 C 262.208,156.109 259.708,155.109 257,154.5C 254.774,155.033 252.607,155.7 250.5,156.5C 251.692,154.078 253.692,153.078 256.5,153.5C 260.029,153.264 262.695,154.597 264.5,157.5 Z"/></g>
<g><path style="opacity:1" fill="#bab9ba" d="M 348.5,110.5 C 350.856,113.715 352.356,117.381 353,121.5C 355.768,137.605 350.601,150.272 337.5,159.5C 352.404,145.765 356.07,129.432 348.5,110.5 Z"/></g>
<g><path style="opacity:1" fill="#d1cfd1" d="M 169.5,154.5 C 169.586,155.496 169.252,156.329 168.5,157C 159.372,158.654 150.372,158.82 141.5,157.5C 147.842,157.666 154.175,157.5 160.5,157C 163.811,156.943 166.811,156.11 169.5,154.5 Z"/></g>
<g><path style="opacity:1" fill="#b8b6b7" d="M 337.5,159.5 C 329.311,165.706 319.978,168.206 309.5,167C 310.582,168.33 311.249,169.83 311.5,171.5C 309.4,168.896 307.067,166.396 304.5,164C 306.471,163.986 308.471,164.319 310.5,165C 320.057,165.86 329.057,164.027 337.5,159.5 Z"/></g>
<g><path style="opacity:1" fill="#d1d1d3" d="M 247.5,159.5 C 247.351,160.552 247.517,161.552 248,162.5C 260,174.5 272,186.5 284,198.5C 292.599,191.049 292.432,183.716 283.5,176.5C 291.407,180.246 293.574,186.246 290,194.5C 288.142,197.412 285.642,198.912 282.5,199C 270.333,186.833 258.167,174.667 246,162.5C 245.415,161.002 245.915,160.002 247.5,159.5 Z"/></g>
<g><path style="opacity:1" fill="#c0bfc0" d="M 379.5,170.5 C 378.258,174.655 376.258,178.322 373.5,181.5C 374.742,177.345 376.742,173.678 379.5,170.5 Z"/></g>
<g><path style="opacity:1" fill="#c8c8c9" d="M 125.5,184.5 C 115.403,184.507 105.403,185.174 95.5,186.5C 98.008,184.763 101.008,183.93 104.5,184C 111.679,183.179 118.679,183.345 125.5,184.5 Z"/></g>
<g><path style="opacity:1" fill="#c5bac1" d="M 148.5,182.5 C 149.708,181.218 151.042,181.218 152.5,182.5C 151.309,185.568 149.642,188.235 147.5,190.5C 148.086,188.16 149.086,185.993 150.5,184C 149.956,183.283 149.289,182.783 148.5,182.5 Z"/></g>
<g><path style="opacity:1" fill="#c6c6ca" d="M 218.5,154.5 C 217.008,158.905 217.175,163.238 219,167.5C 238.5,187 258,206.5 277.5,226C 281.363,227.354 285.363,227.854 289.5,227.5C 285.227,230.102 280.893,229.935 276.5,227C 257,207.5 237.5,188 218,168.5C 214.598,163.545 214.765,158.878 218.5,154.5 Z"/></g>
<g><path style="opacity:1" fill="#ccc8c8" d="M 288.5,276.5 C 286.819,302.475 285.485,328.475 284.5,354.5C 284.202,328.978 285.036,303.312 287,277.5C 287.383,276.944 287.883,276.611 288.5,276.5 Z"/></g>
<g><path style="opacity:1" fill="#c9c3c2" d="M 182.5,357.5 C 180.532,366.873 177.865,376.04 174.5,385C 175.252,385.671 175.586,386.504 175.5,387.5C 174.305,387.134 173.639,386.301 173.5,385C 176.236,375.626 179.236,366.46 182.5,357.5 Z"/></g>
<g><path style="opacity:1" fill="#cecccc" d="M 152.5,372.5 C 151.352,377.432 150.352,382.432 149.5,387.5C 149.896,391.352 150.896,395.019 152.5,398.5C 149.614,395.517 148.28,391.851 148.5,387.5C 148.764,382.104 150.097,377.104 152.5,372.5 Z"/></g>
</svg>
