<?xml version="1.0" encoding="UTF-8"?>
<!DOCTYPE svg PUBLIC "-//W3C//DTD SVG 1.1//EN" "http://www.w3.org/Graphics/SVG/1.1/DTD/svg11.dtd">
<svg xmlns="http://www.w3.org/2000/svg" version="1.1" width="567px" height="440px" style="shape-rendering:geometricPrecision; text-rendering:geometricPrecision; image-rendering:optimizeQuality; fill-rule:evenodd; clip-rule:evenodd" xmlns:xlink="http://www.w3.org/1999/xlink">
<g><path style="opacity:1" fill="#f8f8f8" d="M 160.5,46.5 C 160.931,54.5636 161.264,62.5636 161.5,70.5C 159.801,70.6602 158.134,70.4935 156.5,70C 157.641,69.2588 157.641,68.4255 156.5,67.5C 157.5,66.8333 158.5,66.1667 159.5,65.5C 159.333,65.1667 159.167,64.8333 159,64.5C 158.259,65.6405 157.425,65.6405 156.5,64.5C 155.534,66.396 155.201,68.396 155.5,70.5C 154.167,70.5 152.833,70.5 151.5,70.5C 150.021,67.5419 148.521,64.5419 147,61.5C 146.329,60.7476 145.496,60.4142 144.5,60.5C 144.5,60.1667 144.5,59.8333 144.5,59.5C 143.323,55.1267 141.99,50.7934 140.5,46.5C 147.167,46.5 153.833,46.5 160.5,46.5 Z"/></g>
<g><path style="opacity:1" fill="#f5f4f4" d="M 160.5,46.5 C 170.5,46.5 180.5,46.5 190.5,46.5C 190.5,52.8333 190.5,59.1667 190.5,65.5C 184.132,65.1703 177.798,65.5037 171.5,66.5C 171.855,67.5223 172.522,68.189 173.5,68.5C 173.5,69.1667 173.833,69.5 174.5,69.5C 176.091,72.3516 177.424,75.3516 178.5,78.5C 178.317,80.9363 178.984,83.103 180.5,85C 177.724,86.7787 178.057,87.7787 181.5,88C 184.097,90.3167 184.93,93.15 184,96.5C 179.92,97.3002 175.753,97.8002 171.5,98C 175.833,98.3333 180.167,98.6667 184.5,99C 183.663,100.011 183.33,101.178 183.5,102.5C 178.156,102.666 172.823,102.499 167.5,102C 167,99.4788 165.667,97.6455 163.5,96.5C 157.179,84.5748 150.846,72.5748 144.5,60.5C 145.496,60.4142 146.329,60.7476 147,61.5C 148.521,64.5419 150.021,67.5419 151.5,70.5C 152.833,70.5 154.167,70.5 155.5,70.5C 155.201,68.396 155.534,66.396 156.5,64.5C 157.425,65.6405 158.259,65.6405 159,64.5C 159.167,64.8333 159.333,65.1667 159.5,65.5C 158.5,66.1667 157.5,66.8333 156.5,67.5C 157.641,68.4255 157.641,69.2588 156.5,70C 158.134,70.4935 159.801,70.6602 161.5,70.5C 161.264,62.5636 160.931,54.5636 160.5,46.5 Z"/></g>
<g><path style="opacity:1" fill="#f8f8f8" d="M 190.5,46.5 C 200.172,46.3335 209.839,46.5002 219.5,47C 220.771,49.5539 221.438,52.3872 221.5,55.5C 221.078,58.8733 221.078,62.04 221.5,65C 211.172,65.4998 200.839,65.6665 190.5,65.5C 190.5,59.1667 190.5,52.8333 190.5,46.5 Z"/></g>
<g><path style="opacity:1" fill="#f3f3f3" d="M 334.5,46.5 C 335.121,53.3072 335.121,59.6405 334.5,65.5C 335.808,66.6256 337.142,66.6256 338.5,65.5C 338.918,66.2216 339.584,66.7216 340.5,67C 338.563,69.5094 337.563,72.3427 337.5,75.5C 337.267,77.0618 336.6,78.3951 335.5,79.5C 333.822,80.7471 332.489,82.4138 331.5,84.5C 330.325,83.1451 329.325,83.3117 328.5,85C 328.833,85.3333 329.167,85.6667 329.5,86C 327.865,86.5396 326.532,86.0396 325.5,84.5C 324.304,84.8457 324.304,85.3457 325.5,86C 323.866,86.4935 322.199,86.6602 320.5,86.5C 320.5,85.1667 320.5,83.8333 320.5,82.5C 321.873,82.6567 323.207,82.49 324.5,82C 322.5,81.3333 320.5,81.3333 318.5,82C 319.38,83.3561 319.714,84.8561 319.5,86.5C 316.482,86.6646 313.482,86.498 310.5,86C 310.752,83.3339 311.419,80.5006 312.5,77.5C 316.992,67.1824 321.992,57.1824 327.5,47.5C 329.717,46.6314 332.05,46.298 334.5,46.5 Z"/></g>
<g><path style="opacity:1" fill="#f8f8f8" d="M 334.5,46.5 C 342.5,46.5 350.5,46.5 358.5,46.5C 358.5,52.8333 358.5,59.1667 358.5,65.5C 351.833,65.5 345.167,65.5 338.5,65.5C 337.142,66.6256 335.808,66.6256 334.5,65.5C 335.121,59.6405 335.121,53.3072 334.5,46.5 Z"/></g>
<g><path style="opacity:1" fill="#f9f8f8" d="M 358.5,46.5 C 370.505,46.3335 382.505,46.5001 394.5,47C 395.482,54.747 395.815,62.5803 395.5,70.5C 394.167,70.5 392.833,70.5 391.5,70.5C 391.5,68.8333 391.5,67.1667 391.5,65.5C 380.5,65.5 369.5,65.5 358.5,65.5C 358.5,59.1667 358.5,52.8333 358.5,46.5 Z"/></g>
<g><path style="opacity:1" fill="#f4f4f4" d="M 236.5,49.5 C 239.164,54.8288 241.831,60.1621 244.5,65.5C 244.286,67.1439 244.62,68.6439 245.5,70C 239.509,70.4995 233.509,70.6662 227.5,70.5C 227.167,65.1667 226.833,65.1667 226.5,70.5C 224.41,70.5499 223.077,69.5499 222.5,67.5C 223.025,66.8076 223.692,66.3076 224.5,66C 222.566,59.7887 221.899,53.2887 222.5,46.5C 226.167,46.5 229.833,46.5 233.5,46.5C 233.343,47.8734 233.51,49.2068 234,50.5C 234.671,49.7476 235.504,49.4142 236.5,49.5 Z"/></g>
<g><path style="opacity:1" fill="#464546" d="M 220.5,67.5 C 204.797,66.8493 189.464,67.5159 174.5,69.5C 173.833,69.5 173.5,69.1667 173.5,68.5C 180.97,67.169 188.804,66.5023 197,66.5C 205.007,66.5003 212.841,66.8336 220.5,67.5 Z"/></g>
<g><path style="opacity:1" fill="#dbdbdb" d="M 405.5,84.5 C 405.167,84.5 404.833,84.5 404.5,84.5C 403.721,82.0728 402.554,82.0728 401,84.5C 399.829,83.1068 398.329,82.2735 396.5,82C 399.426,81.7822 402.26,81.2822 405,80.5C 405.378,77.5881 405.878,74.5881 406.5,71.5C 402.079,71.9563 397.746,71.9563 393.5,71.5C 391.575,71.5904 390.408,72.5904 390,74.5C 389.667,73.8333 389.333,73.1667 389,72.5C 388.583,73.756 387.75,74.4226 386.5,74.5C 387.212,72.0721 388.212,69.7388 389.5,67.5C 373.514,66.5006 357.514,66.1672 341.5,66.5C 340.958,69.9122 339.625,72.9122 337.5,75.5C 337.563,72.3427 338.563,69.5094 340.5,67C 339.584,66.7216 338.918,66.2216 338.5,65.5C 345.167,65.5 351.833,65.5 358.5,65.5C 369.5,65.5 380.5,65.5 391.5,65.5C 391.5,67.1667 391.5,68.8333 391.5,70.5C 392.833,70.5 394.167,70.5 395.5,70.5C 395.815,62.5803 395.482,54.747 394.5,47C 382.505,46.5001 370.505,46.3335 358.5,46.5C 350.5,46.5 342.5,46.5 334.5,46.5C 332.05,46.298 329.717,46.6314 327.5,47.5C 327.414,46.5041 327.748,45.6708 328.5,45C 359.833,44.3333 391.167,44.3333 422.5,45C 423.598,47.4977 423.432,49.9977 422,52.5C 416.2,63.1024 410.7,73.7691 405.5,84.5 Z"/></g>
<g><path style="opacity:1" fill="#bfbcbe" d="M 236.5,49.5 C 235.504,49.4142 234.671,49.7476 234,50.5C 233.51,49.2068 233.343,47.8734 233.5,46.5C 229.833,46.5 226.167,46.5 222.5,46.5C 221.899,53.2887 222.566,59.7887 224.5,66C 223.692,66.3076 223.025,66.8076 222.5,67.5C 223.077,69.5499 224.41,70.5499 226.5,70.5C 226.833,65.1667 227.167,65.1667 227.5,70.5C 233.509,70.6662 239.509,70.4995 245.5,70C 244.62,68.6439 244.286,67.1439 244.5,65.5C 246.536,68.5789 248.202,71.9122 249.5,75.5C 247.871,74.3747 246.371,73.0414 245,71.5C 244.667,72.1667 244.333,72.8333 244,73.5C 241.959,72.2478 239.625,71.5812 237,71.5C 233.991,71.9632 231.157,71.9632 228.5,71.5C 229.089,73.3733 228.422,75.04 226.5,76.5C 227.127,77.4168 227.461,78.4168 227.5,79.5C 225.195,75.5677 222.862,71.5677 220.5,67.5C 212.841,66.8336 205.007,66.5003 197,66.5C 188.804,66.5023 180.97,67.169 173.5,68.5C 172.522,68.189 171.855,67.5223 171.5,66.5C 177.798,65.5037 184.132,65.1703 190.5,65.5C 200.839,65.6665 211.172,65.4998 221.5,65C 221.078,62.04 221.078,58.8733 221.5,55.5C 221.438,52.3872 220.771,49.5539 219.5,47C 209.839,46.5002 200.172,46.3335 190.5,46.5C 180.5,46.5 170.5,46.5 160.5,46.5C 153.833,46.5 147.167,46.5 140.5,46.5C 141.99,50.7934 143.323,55.1267 144.5,59.5C 142.346,55.8642 140.179,52.1975 138,48.5C 137.316,47.2161 137.483,46.0495 138.5,45C 169.833,44.3333 201.167,44.3333 232.5,45C 234.751,45.7475 236.084,47.2475 236.5,49.5 Z"/></g>
<g><path style="opacity:1" fill="#f7f7f6" d="M 404.5,84.5 C 403.27,86.2972 402.604,88.2972 402.5,90.5C 396.925,91.4524 391.259,91.7857 385.5,91.5C 385.5,90.1667 385.5,88.8333 385.5,87.5C 387.446,87.8072 389.113,87.8072 390.5,87.5C 387.833,86.8333 385.167,86.1667 382.5,85.5C 384.253,81.9002 385.587,78.2335 386.5,74.5C 387.75,74.4226 388.583,73.756 389,72.5C 389.333,73.1667 389.667,73.8333 390,74.5C 390.408,72.5904 391.575,71.5904 393.5,71.5C 397.746,71.9563 402.079,71.9563 406.5,71.5C 405.878,74.5881 405.378,77.5881 405,80.5C 402.26,81.2822 399.426,81.7822 396.5,82C 398.329,82.2735 399.829,83.1068 401,84.5C 402.554,82.0728 403.721,82.0728 404.5,84.5 Z"/></g>
<g><path style="opacity:1" fill="#6f686f" d="M 404.5,84.5 C 404.833,84.5 405.167,84.5 405.5,84.5C 405.008,86.8185 404.008,88.8185 402.5,90.5C 402.604,88.2972 403.27,86.2972 404.5,84.5 Z"/></g>
<g><path style="opacity:1" fill="#f2f1f1" d="M 249.5,75.5 C 252.485,81.4209 255.485,87.4209 258.5,93.5C 258.104,96.0444 258.771,98.2111 260.5,100C 257.562,103.422 255.895,103.256 255.5,99.5C 254.614,100.325 254.281,101.325 254.5,102.5C 252.712,102.785 251.045,102.452 249.5,101.5C 250.506,100.604 250.506,99.9377 249.5,99.5C 248.614,100.325 248.281,101.325 248.5,102.5C 245.098,102.658 241.764,102.324 238.5,101.5C 234.32,94.4733 230.653,87.14 227.5,79.5C 227.461,78.4168 227.127,77.4168 226.5,76.5C 228.422,75.04 229.089,73.3733 228.5,71.5C 231.157,71.9632 233.991,71.9632 237,71.5C 239.625,71.5812 241.959,72.2478 244,73.5C 244.333,72.8333 244.667,72.1667 245,71.5C 246.371,73.0414 247.871,74.3747 249.5,75.5 Z"/></g>
<g><path style="opacity:1" fill="#f2f2f2" d="M 385.5,124.5 C 381.578,133.077 377.245,141.411 372.5,149.5C 370.104,151.951 367.104,152.951 363.5,152.5C 363.5,150.833 363.5,149.167 363.5,147.5C 367.5,147.167 367.5,146.833 363.5,146.5C 363.5,145.167 363.5,143.833 363.5,142.5C 365.924,142.808 368.257,142.474 370.5,141.5C 370,141.167 369.5,140.833 369,140.5C 366.945,141.692 364.945,141.692 363,140.5C 361.933,141.191 360.766,141.691 359.5,142C 360.448,142.483 361.448,142.649 362.5,142.5C 362.5,143.833 362.5,145.167 362.5,146.5C 360.549,146.773 359.049,146.107 358,144.5C 356.599,146.192 354.766,146.859 352.5,146.5C 353.854,142.156 355.188,137.823 356.5,133.5C 360.027,125.294 364.027,117.294 368.5,109.5C 370.82,108.041 372.82,106.208 374.5,104C 376.749,103.137 378.582,103.637 380,105.5C 380.374,104.584 380.874,103.75 381.5,103C 380.234,102.691 379.067,102.191 378,101.5C 376.989,102.337 375.822,102.67 374.5,102.5C 374.33,101.178 374.663,100.011 375.5,99C 378.482,98.502 381.482,98.3354 384.5,98.5C 384.773,100.451 384.107,101.951 382.5,103C 384.115,106.077 385.115,109.41 385.5,113C 384.833,114.333 384.167,115.667 383.5,117C 384.867,119.301 385.534,121.801 385.5,124.5 Z"/></g>
<g><path style="opacity:1" fill="#eae9e9" d="M 178.5,78.5 C 183.884,88.3279 188.884,98.3279 193.5,108.5C 191.107,107.647 189.774,105.981 189.5,103.5C 186.05,102.756 184.384,104.09 184.5,107.5C 185.552,107.351 186.552,107.517 187.5,108C 186.151,108.772 185.318,109.939 185,111.5C 184.734,118.024 184.234,124.524 183.5,131C 183.799,133.633 184.965,135.799 187,137.5C 188.067,135.717 189.567,135.217 191.5,136C 190.518,140.014 189.852,144.181 189.5,148.5C 180.31,131.453 171.643,114.12 163.5,96.5C 165.667,97.6455 167,99.4788 167.5,102C 172.823,102.499 178.156,102.666 183.5,102.5C 183.33,101.178 183.663,100.011 184.5,99C 180.167,98.6667 175.833,98.3333 171.5,98C 175.753,97.8002 179.92,97.3002 184,96.5C 184.93,93.15 184.097,90.3167 181.5,88C 178.057,87.7787 177.724,86.7787 180.5,85C 178.984,83.103 178.317,80.9363 178.5,78.5 Z"/></g>
<g><path style="opacity:1" fill="#e7e7e7" d="M 258.5,93.5 C 261.341,97.8489 263.674,102.516 265.5,107.5C 263.888,108.452 262.388,108.786 261,108.5C 259.991,106.975 259.491,105.308 259.5,103.5C 258.167,103.5 256.833,103.5 255.5,103.5C 255.831,107.672 255.831,111.839 255.5,116C 253.109,116.691 253.109,117.691 255.5,119C 255.354,123.219 255.354,127.719 255.5,132.5C 256.301,134.042 256.634,135.708 256.5,137.5C 250.323,125.667 244.323,113.667 238.5,101.5C 241.764,102.324 245.098,102.658 248.5,102.5C 248.281,101.325 248.614,100.325 249.5,99.5C 250.506,99.9377 250.506,100.604 249.5,101.5C 251.045,102.452 252.712,102.785 254.5,102.5C 254.281,101.325 254.614,100.325 255.5,99.5C 255.895,103.256 257.562,103.422 260.5,100C 258.771,98.2111 258.104,96.0444 258.5,93.5 Z"/></g>
<g><path style="opacity:1" fill="#ececec" d="M 312.5,77.5 C 311.419,80.5006 310.752,83.3339 310.5,86C 313.482,86.498 316.482,86.6646 319.5,86.5C 319.714,84.8561 319.38,83.3561 318.5,82C 320.5,81.3333 322.5,81.3333 324.5,82C 323.207,82.49 321.873,82.6567 320.5,82.5C 320.5,83.8333 320.5,85.1667 320.5,86.5C 322.199,86.6602 323.866,86.4935 325.5,86C 324.304,85.3457 324.304,84.8457 325.5,84.5C 326.532,86.0396 327.865,86.5396 329.5,86C 329.167,85.6667 328.833,85.3333 328.5,85C 329.325,83.3117 330.325,83.1451 331.5,84.5C 332.489,82.4138 333.822,80.7471 335.5,79.5C 323.392,103.443 311.059,127.277 298.5,151C 299.167,152 299.833,153 300.5,154C 307.728,156.641 315.061,158.974 322.5,161C 324.879,161.716 326.879,162.883 328.5,164.5C 325.467,164.433 322.467,164.433 319.5,164.5C 319.5,165.5 319.5,166.5 319.5,167.5C 312.655,167.213 305.655,167.213 298.5,167.5C 294.162,167.622 293.828,167.955 297.5,168.5C 297.5,170.5 297.5,172.5 297.5,174.5C 295.5,174.5 293.5,174.5 291.5,174.5C 278.923,173.745 266.589,175.078 254.5,178.5C 255.974,177.325 257.64,176.325 259.5,175.5C 249.517,174.668 239.517,174.168 229.5,174C 238.16,173.5 246.827,173.334 255.5,173.5C 267.465,173.98 279.465,173.98 291.5,173.5C 290.632,170.065 290.632,166.731 291.5,163.5C 286.167,163.167 286.167,162.833 291.5,162.5C 291.5,161.167 291.5,159.833 291.5,158.5C 286.167,158.167 286.167,157.833 291.5,157.5C 291.5,156.167 291.5,154.833 291.5,153.5C 286.167,153.167 286.167,152.833 291.5,152.5C 291.5,150.833 291.5,149.167 291.5,147.5C 286.167,147.167 286.167,146.833 291.5,146.5C 291.831,139.137 291.497,131.803 290.5,124.5C 289.16,125.867 287.827,127.2 286.5,128.5C 294.409,111.103 303.075,94.1028 312.5,77.5 Z"/></g>
<g><path style="opacity:1" fill="#e8e7e8" d="M 386.5,74.5 C 385.587,78.2335 384.253,81.9002 382.5,85.5C 385.167,86.1667 387.833,86.8333 390.5,87.5C 389.113,87.8072 387.446,87.8072 385.5,87.5C 385.5,88.8333 385.5,90.1667 385.5,91.5C 391.259,91.7857 396.925,91.4524 402.5,90.5C 396.814,101.872 391.147,113.205 385.5,124.5C 385.534,121.801 384.867,119.301 383.5,117C 384.167,115.667 384.833,114.333 385.5,113C 385.115,109.41 384.115,106.077 382.5,103C 384.107,101.951 384.773,100.451 384.5,98.5C 381.482,98.3354 378.482,98.502 375.5,99C 374.663,100.011 374.33,101.178 374.5,102.5C 375.822,102.67 376.989,102.337 378,101.5C 379.067,102.191 380.234,102.691 381.5,103C 380.874,103.75 380.374,104.584 380,105.5C 378.582,103.637 376.749,103.137 374.5,104C 372.82,106.208 370.82,108.041 368.5,109.5C 374.248,97.669 380.248,86.0024 386.5,74.5 Z"/></g>
<g><path style="opacity:1" fill="#f6f6f6" d="M 265.5,107.5 C 268.326,111.818 270.659,116.484 272.5,121.5C 273.199,125.236 274.199,128.903 275.5,132.5C 275.21,134.044 274.544,135.377 273.5,136.5C 273.846,137.696 274.346,137.696 275,136.5C 275.498,139.817 275.665,143.15 275.5,146.5C 274.167,146.5 272.833,146.5 271.5,146.5C 271.357,144.738 271.691,143.071 272.5,141.5C 271.172,116.255 270.506,116.255 270.5,141.5C 269.167,141.5 267.833,141.5 266.5,141.5C 266.167,137.5 265.833,137.5 265.5,141.5C 263.387,140.744 261.387,140.577 259.5,141C 259.833,140.667 260.167,140.333 260.5,140C 259.692,139.692 259.025,139.192 258.5,138.5C 259.716,137.904 261.049,137.737 262.5,138C 261.47,134.976 260.804,132.143 260.5,129.5C 259.06,130.952 257.394,131.952 255.5,132.5C 255.354,127.719 255.354,123.219 255.5,119C 253.109,117.691 253.109,116.691 255.5,116C 255.831,111.839 255.831,107.672 255.5,103.5C 256.833,103.5 258.167,103.5 259.5,103.5C 259.491,105.308 259.991,106.975 261,108.5C 262.388,108.786 263.888,108.452 265.5,107.5 Z"/></g>
<g><path style="opacity:1" fill="#f3f2f2" d="M 193.5,108.5 C 203.008,126.182 212.008,144.182 220.5,162.5C 219.312,161.316 218.145,161.316 217,162.5C 216.798,160.744 216.298,159.078 215.5,157.5C 214.575,156.359 213.741,156.359 213,157.5C 211.956,156.377 211.29,155.044 211,153.5C 210.878,155.437 210.045,156.77 208.5,157.5C 206.955,156.77 206.122,155.437 206,153.5C 205.502,156.482 205.335,159.482 205.5,162.5C 203.234,162.859 201.401,162.192 200,160.5C 199.577,161.956 198.744,162.456 197.5,162C 196.287,159.313 195.62,156.48 195.5,153.5C 197.355,153.728 198.188,153.061 198,151.5C 196.612,152.554 195.112,152.72 193.5,152C 192.264,150.612 190.931,149.446 189.5,148.5C 189.852,144.181 190.518,140.014 191.5,136C 189.567,135.217 188.067,135.717 187,137.5C 184.965,135.799 183.799,133.633 183.5,131C 184.234,124.524 184.734,118.024 185,111.5C 185.318,109.939 186.151,108.772 187.5,108C 186.552,107.517 185.552,107.351 184.5,107.5C 184.384,104.09 186.05,102.756 189.5,103.5C 189.774,105.981 191.107,107.647 193.5,108.5 Z"/></g>
<g><path style="opacity:1" fill="#cecdd0" d="M 189.5,148.5 C 190.931,149.446 192.264,150.612 193.5,152C 195.112,152.72 196.612,152.554 198,151.5C 198.188,153.061 197.355,153.728 195.5,153.5C 195.62,156.48 196.287,159.313 197.5,162C 198.744,162.456 199.577,161.956 200,160.5C 201.401,162.192 203.234,162.859 205.5,162.5C 205.335,159.482 205.502,156.482 206,153.5C 206.122,155.437 206.955,156.77 208.5,157.5C 206.925,159.114 206.259,161.114 206.5,163.5C 204.143,163.337 201.81,163.503 199.5,164C 200.337,165.011 200.67,166.178 200.5,167.5C 201.873,167.343 203.207,167.51 204.5,168C 203.426,168.739 202.759,169.739 202.5,171C 203.66,172.997 203.66,174.831 202.5,176.5C 199.772,176.829 197.438,176.163 195.5,174.5C 198.011,174.838 200.345,174.838 202.5,174.5C 197.611,166.054 193.277,157.388 189.5,148.5 Z"/></g>
<g><path style="opacity:1" fill="#f7f7f7" d="M 255.5,173.5 C 255.5,173.167 255.5,172.833 255.5,172.5C 255.5,171.167 255.5,169.833 255.5,168.5C 257.492,168.328 259.158,168.995 260.5,170.5C 261.696,170.154 261.696,169.654 260.5,169C 262.167,168.667 263.833,168.333 265.5,168C 262.104,166.661 258.77,166.494 255.5,167.5C 255.5,166.167 255.5,164.833 255.5,163.5C 257.527,163.662 259.527,163.495 261.5,163C 260.62,161.644 260.286,160.144 260.5,158.5C 263.187,158.664 265.854,158.497 268.5,158C 266.744,157.798 265.078,157.298 263.5,156.5C 264.376,155.749 265.376,155.249 266.5,155C 265.864,152.606 265.864,150.106 266.5,147.5C 269.5,147.5 272.5,147.5 275.5,147.5C 275.833,154.167 276.167,154.167 276.5,147.5C 278.167,147.5 279.833,147.5 281.5,147.5C 282.727,149.773 282.727,149.44 281.5,146.5C 279.833,146.5 278.167,146.5 276.5,146.5C 276.5,143.167 276.5,139.833 276.5,136.5C 277.5,136.5 278.5,136.5 279.5,136.5C 279.312,138.103 279.812,139.437 281,140.5C 282.191,138.153 284.024,137.32 286.5,138C 286.167,138.333 285.833,138.667 285.5,139C 286.191,140.067 286.691,141.234 287,142.5C 287.236,140.236 287.736,138.069 288.5,136C 287.833,135.333 287.167,134.667 286.5,134C 286.854,132.374 286.854,130.541 286.5,128.5C 287.827,127.2 289.16,125.867 290.5,124.5C 291.497,131.803 291.831,139.137 291.5,146.5C 286.167,146.833 286.167,147.167 291.5,147.5C 291.5,149.167 291.5,150.833 291.5,152.5C 286.167,152.833 286.167,153.167 291.5,153.5C 291.5,154.833 291.5,156.167 291.5,157.5C 286.167,157.833 286.167,158.167 291.5,158.5C 291.5,159.833 291.5,161.167 291.5,162.5C 286.167,162.833 286.167,163.167 291.5,163.5C 290.632,166.731 290.632,170.065 291.5,173.5C 279.465,173.98 267.465,173.98 255.5,173.5 Z"/></g>
<g><path style="opacity:1" fill="#e9e9e9" d="M 356.5,133.5 C 355.188,137.823 353.854,142.156 352.5,146.5C 354.766,146.859 356.599,146.192 358,144.5C 359.049,146.107 360.549,146.773 362.5,146.5C 362.5,145.167 362.5,143.833 362.5,142.5C 361.448,142.649 360.448,142.483 359.5,142C 360.766,141.691 361.933,141.191 363,140.5C 364.945,141.692 366.945,141.692 369,140.5C 369.5,140.833 370,141.167 370.5,141.5C 368.257,142.474 365.924,142.808 363.5,142.5C 363.5,143.833 363.5,145.167 363.5,146.5C 367.5,146.833 367.5,147.167 363.5,147.5C 363.5,149.167 363.5,150.833 363.5,152.5C 367.104,152.951 370.104,151.951 372.5,149.5C 369.299,157.374 365.632,165.041 361.5,172.5C 369.323,173.167 376.99,173.833 384.5,174.5C 377.08,174.203 369.746,174.536 362.5,175.5C 359.09,175.384 357.756,177.05 358.5,180.5C 357.539,178.735 357.205,176.735 357.5,174.5C 355.833,174.5 354.167,174.5 352.5,174.5C 352.5,175.833 352.5,177.167 352.5,178.5C 353.873,178.343 355.207,178.51 356.5,179C 353.518,179.498 350.518,179.665 347.5,179.5C 347.813,186.755 347.48,193.921 346.5,201C 347.823,201.816 348.489,202.983 348.5,204.5C 345.833,202.5 343.5,200.167 341.5,197.5C 343.17,197.751 344.67,198.418 346,199.5C 346.325,192.696 346.492,185.696 346.5,178.5C 346.833,173.167 347.167,173.167 347.5,178.5C 348.833,178.5 350.167,178.5 351.5,178.5C 351.135,173.658 351.135,168.658 351.5,163.5C 347.956,163.72 344.622,163.72 341.5,163.5C 346.502,153.491 351.502,143.491 356.5,133.5 Z"/></g>
<g><path style="opacity:1" fill="#e9e8e9" d="M 272.5,121.5 C 275.559,126.613 278.392,131.947 281,137.5C 283.304,134.702 285.138,131.702 286.5,128.5C 286.854,130.541 286.854,132.374 286.5,134C 287.167,134.667 287.833,135.333 288.5,136C 287.736,138.069 287.236,140.236 287,142.5C 286.691,141.234 286.191,140.067 285.5,139C 285.833,138.667 286.167,138.333 286.5,138C 284.024,137.32 282.191,138.153 281,140.5C 279.812,139.437 279.312,138.103 279.5,136.5C 278.5,136.5 277.5,136.5 276.5,136.5C 276.5,139.833 276.5,143.167 276.5,146.5C 278.167,146.5 279.833,146.5 281.5,146.5C 282.727,149.44 282.727,149.773 281.5,147.5C 279.833,147.5 278.167,147.5 276.5,147.5C 276.167,154.167 275.833,154.167 275.5,147.5C 272.5,147.5 269.5,147.5 266.5,147.5C 265.864,150.106 265.864,152.606 266.5,155C 265.376,155.249 264.376,155.749 263.5,156.5C 265.078,157.298 266.744,157.798 268.5,158C 265.854,158.497 263.187,158.664 260.5,158.5C 260.286,160.144 260.62,161.644 261.5,163C 259.527,163.495 257.527,163.662 255.5,163.5C 255.5,164.833 255.5,166.167 255.5,167.5C 258.77,166.494 262.104,166.661 265.5,168C 263.833,168.333 262.167,168.667 260.5,169C 261.696,169.654 261.696,170.154 260.5,170.5C 259.158,168.995 257.492,168.328 255.5,168.5C 255.5,169.833 255.5,171.167 255.5,172.5C 254.566,171.432 254.232,170.099 254.5,168.5C 245.633,168.942 237.133,168.942 229,168.5C 226.132,169.361 223.798,171.028 222,173.5C 221.691,172.234 221.191,171.067 220.5,170C 221.136,167.606 221.136,165.106 220.5,162.5C 221.65,164.603 222.983,166.603 224.5,168.5C 237.157,161.67 250.491,156.67 264.5,153.5C 261.807,148.114 259.14,142.78 256.5,137.5C 256.634,135.708 256.301,134.042 255.5,132.5C 257.394,131.952 259.06,130.952 260.5,129.5C 260.804,132.143 261.47,134.976 262.5,138C 261.049,137.737 259.716,137.904 258.5,138.5C 259.025,139.192 259.692,139.692 260.5,140C 260.167,140.333 259.833,140.667 259.5,141C 261.387,140.577 263.387,140.744 265.5,141.5C 265.833,137.5 266.167,137.5 266.5,141.5C 267.833,141.5 269.167,141.5 270.5,141.5C 270.506,116.255 271.172,116.255 272.5,141.5C 271.691,143.071 271.357,144.738 271.5,146.5C 272.833,146.5 274.167,146.5 275.5,146.5C 275.665,143.15 275.498,139.817 275,136.5C 274.346,137.696 273.846,137.696 273.5,136.5C 274.544,135.377 275.21,134.044 275.5,132.5C 274.199,128.903 273.199,125.236 272.5,121.5 Z"/></g>
<g><path style="opacity:1" fill="#f6f6f6" d="M 220.5,162.5 C 221.136,165.106 221.136,167.606 220.5,170C 221.191,171.067 221.691,172.234 222,173.5C 223.798,171.028 226.132,169.361 229,168.5C 237.133,168.942 245.633,168.942 254.5,168.5C 254.232,170.099 254.566,171.432 255.5,172.5C 255.5,172.833 255.5,173.167 255.5,173.5C 246.827,173.334 238.16,173.5 229.5,174C 239.517,174.168 249.517,174.668 259.5,175.5C 257.64,176.325 255.974,177.325 254.5,178.5C 253.791,179.404 252.791,179.737 251.5,179.5C 248.728,179.78 246.228,179.113 244,177.5C 238.865,178.352 233.365,178.685 227.5,178.5C 227.167,173.167 226.833,173.167 226.5,178.5C 225.167,178.5 223.833,178.5 222.5,178.5C 222.167,173.167 221.833,173.167 221.5,178.5C 219.833,178.5 218.167,178.5 216.5,178.5C 216.167,171.833 215.833,171.833 215.5,178.5C 214.167,178.5 212.833,178.5 211.5,178.5C 211.768,176.901 211.434,175.568 210.5,174.5C 209.167,174.5 207.833,174.5 206.5,174.5C 206.5,175.5 206.5,176.5 206.5,177.5C 205.167,177.5 203.833,177.5 202.5,177.5C 202.5,177.167 202.5,176.833 202.5,176.5C 203.66,174.831 203.66,172.997 202.5,171C 202.759,169.739 203.426,168.739 204.5,168C 203.207,167.51 201.873,167.343 200.5,167.5C 200.67,166.178 200.337,165.011 199.5,164C 201.81,163.503 204.143,163.337 206.5,163.5C 206.259,161.114 206.925,159.114 208.5,157.5C 210.045,156.77 210.878,155.437 211,153.5C 211.29,155.044 211.956,156.377 213,157.5C 213.741,156.359 214.575,156.359 215.5,157.5C 216.298,159.078 216.798,160.744 217,162.5C 218.145,161.316 219.312,161.316 220.5,162.5 Z"/></g>
<g><path style="opacity:1" fill="#f6f6f6" d="M 328.5,164.5 C 331.843,165.059 334.843,166.392 337.5,168.5C 339.082,166.985 340.416,165.319 341.5,163.5C 344.622,163.72 347.956,163.72 351.5,163.5C 351.135,168.658 351.135,173.658 351.5,178.5C 350.167,178.5 348.833,178.5 347.5,178.5C 347.167,173.167 346.833,173.167 346.5,178.5C 345.167,178.5 343.833,178.5 342.5,178.5C 342.167,174.5 341.833,174.5 341.5,178.5C 339.833,178.5 338.167,178.5 336.5,178.5C 336.167,174.5 335.833,174.5 335.5,178.5C 330.238,178.805 325.072,178.471 320,177.5C 316.276,180.305 314.109,179.638 313.5,175.5C 308.478,173.64 303.478,172.974 298.5,173.5C 298.5,171.5 298.5,169.5 298.5,167.5C 305.655,167.213 312.655,167.213 319.5,167.5C 319.5,166.5 319.5,165.5 319.5,164.5C 322.467,164.433 325.467,164.433 328.5,164.5 Z"/></g>
<g><path style="opacity:1" fill="#ebebeb" d="M 358.5,180.5 C 358.599,191.987 358.599,203.32 358.5,214.5C 358.621,215.894 358.954,217.228 359.5,218.5C 361.901,220.562 364.567,222.229 367.5,223.5C 366.313,223.554 364.98,223.887 363.5,224.5C 365.546,226.782 366.546,229.449 366.5,232.5C 366.877,234.258 367.544,235.925 368.5,237.5C 374.472,238.33 380.472,238.83 386.5,239C 385.009,241.022 385.342,242.688 387.5,244C 385.901,245.786 385.067,247.953 385,250.5C 384.501,246.848 384.335,243.182 384.5,239.5C 379.325,239.832 373.992,239.832 368.5,239.5C 368.804,242.522 369.304,245.522 370,248.5C 371.281,248.381 372.448,248.881 373.5,250C 372.09,250.368 371.09,251.201 370.5,252.5C 371.624,253.859 372.958,254.859 374.5,255.5C 373.5,255.5 372.5,255.5 371.5,255.5C 371.666,261.176 371.499,266.843 371,272.5C 370.796,275.797 369.963,278.797 368.5,281.5C 373.499,252.839 366.833,227.172 348.5,204.5C 348.489,202.983 347.823,201.816 346.5,201C 347.48,193.921 347.813,186.755 347.5,179.5C 350.518,179.665 353.518,179.498 356.5,179C 355.207,178.51 353.873,178.343 352.5,178.5C 352.5,177.167 352.5,175.833 352.5,174.5C 354.167,174.5 355.833,174.5 357.5,174.5C 357.205,176.735 357.539,178.735 358.5,180.5 Z"/></g>
<g><path style="opacity:1" fill="#f4f3f3" d="M 384.5,174.5 C 385.167,174.5 385.833,174.5 386.5,174.5C 390.115,176.428 393.782,178.095 397.5,179.5C 393.854,179.542 389.854,179.542 385.5,179.5C 384.512,184.64 384.179,189.974 384.5,195.5C 378.824,195.334 373.157,195.501 367.5,196C 368.293,197.085 368.96,198.252 369.5,199.5C 366.74,199.512 366.24,200.845 368,203.5C 369.084,201.218 370.584,200.884 372.5,202.5C 381.639,214.219 387.306,227.552 389.5,242.5C 387.887,240.572 386.887,238.238 386.5,235.5C 386.043,234.702 385.376,234.369 384.5,234.5C 386.594,230.201 385.26,228.201 380.5,228.5C 380.167,233.833 379.833,233.833 379.5,228.5C 375.486,228.666 371.486,228.499 367.5,228C 371.982,228.063 376.148,227.23 380,225.5C 380.71,226.973 381.876,227.64 383.5,227.5C 383.191,224.654 381.525,223.154 378.5,223C 378.833,222.667 379.167,222.333 379.5,222C 376.312,218.532 372.479,217.699 368,219.5C 367.085,218.672 366.419,217.672 366,216.5C 364.25,219.994 362.416,220.161 360.5,217C 361.428,216.612 362.095,215.945 362.5,215C 361.873,212.589 361.873,210.089 362.5,207.5C 358.5,207.167 358.5,206.833 362.5,206.5C 362.5,197.5 362.5,188.5 362.5,179.5C 358.5,179.167 358.5,178.833 362.5,178.5C 362.5,177.5 362.5,176.5 362.5,175.5C 369.746,174.536 377.08,174.203 384.5,174.5 Z"/></g>
<g><path style="opacity:1" fill="#f1f1f1" d="M 195.5,174.5 C 197.438,176.163 199.772,176.829 202.5,176.5C 202.5,176.833 202.5,177.167 202.5,177.5C 201.778,177.918 201.278,178.584 201,179.5C 200.667,184.833 200.333,190.167 200,195.5C 199.5,195 199,194.5 198.5,194C 199.469,189.263 199.803,184.43 199.5,179.5C 198.167,179.5 196.833,179.5 195.5,179.5C 195.666,185.176 195.499,190.843 195,196.5C 193.961,197.71 192.794,198.71 191.5,199.5C 191.631,198.761 191.464,198.094 191,197.5C 187.833,199.333 184.667,201.167 181.5,203C 179.5,205.667 177.5,208.333 175.5,211C 170.47,212.952 165.47,214.786 160.5,216.5C 160.472,214.418 161.139,212.584 162.5,211C 161.663,209.989 161.33,208.822 161.5,207.5C 159.234,207.141 157.401,207.808 156,209.5C 155.626,208.584 155.126,207.75 154.5,207C 155.767,205.204 155.767,203.371 154.5,201.5C 155.5,200.167 156.5,200.167 157.5,201.5C 155.764,205.44 157.097,207.107 161.5,206.5C 161.418,197.822 161.418,189.155 161.5,180.5C 160.167,180.5 158.833,180.5 157.5,180.5C 169.539,175.335 182.206,173.335 195.5,174.5 Z"/></g>
<g><path style="opacity:1" fill="#a3a2a4" d="M 386.5,174.5 C 392.826,175.392 398.826,177.059 404.5,179.5C 402.167,179.5 399.833,179.5 397.5,179.5C 393.782,178.095 390.115,176.428 386.5,174.5 Z"/></g>
<g><path style="opacity:1" fill="#f5f4f4" d="M 210.5,174.5 C 210.5,175.833 210.5,177.167 210.5,178.5C 207.753,178.187 205.086,178.52 202.5,179.5C 202.667,179.833 202.833,180.167 203,180.5C 207.066,179.536 211.233,179.203 215.5,179.5C 215.187,186.755 215.52,193.921 216.5,201C 214.575,200.865 212.575,200.698 210.5,200.5C 210.119,202.942 210.786,203.609 212.5,202.5C 213.386,203.325 213.719,204.325 213.5,205.5C 209.801,210.856 206.134,216.19 202.5,221.5C 200.283,222.369 197.95,222.702 195.5,222.5C 195.167,217.167 194.833,217.167 194.5,222.5C 192.549,222.773 191.049,222.107 190,220.5C 188.829,221.893 187.329,222.727 185.5,223C 186.793,223.49 188.127,223.657 189.5,223.5C 189.833,228.833 190.167,228.833 190.5,223.5C 191.833,223.5 193.167,223.5 194.5,223.5C 194.714,225.144 194.38,226.644 193.5,228C 194.938,228.219 196.271,228.719 197.5,229.5C 196.754,230.736 196.421,232.07 196.5,233.5C 194.61,233.297 193.11,233.963 192,235.5C 190.982,234.294 190.482,234.627 190.5,236.5C 193.573,240.314 193.906,244.481 191.5,249C 187.514,249.499 183.514,249.666 179.5,249.5C 179.657,248.127 179.49,246.793 179,245.5C 177.807,246.978 177.307,248.312 177.5,249.5C 176.167,246.167 176.167,242.833 177.5,239.5C 180.808,237.551 180.808,235.218 177.5,232.5C 178.374,230.253 178.708,227.92 178.5,225.5C 180.94,215.82 185.274,207.153 191.5,199.5C 192.794,198.71 193.961,197.71 195,196.5C 195.499,190.843 195.666,185.176 195.5,179.5C 196.833,179.5 198.167,179.5 199.5,179.5C 199.803,184.43 199.469,189.263 198.5,194C 199,194.5 199.5,195 200,195.5C 200.333,190.167 200.667,184.833 201,179.5C 201.278,178.584 201.778,177.918 202.5,177.5C 203.833,177.5 205.167,177.5 206.5,177.5C 206.5,176.5 206.5,175.5 206.5,174.5C 207.833,174.5 209.167,174.5 210.5,174.5 Z"/></g>
<g><path style="opacity:1" fill="#e7e7e7" d="M 251.5,179.5 C 237.006,185.298 224.34,193.965 213.5,205.5C 213.719,204.325 213.386,203.325 212.5,202.5C 210.786,203.609 210.119,202.942 210.5,200.5C 212.575,200.698 214.575,200.865 216.5,201C 215.52,193.921 215.187,186.755 215.5,179.5C 211.233,179.203 207.066,179.536 203,180.5C 202.833,180.167 202.667,179.833 202.5,179.5C 205.086,178.52 207.753,178.187 210.5,178.5C 210.5,177.167 210.5,175.833 210.5,174.5C 211.434,175.568 211.768,176.901 211.5,178.5C 212.833,178.5 214.167,178.5 215.5,178.5C 215.833,171.833 216.167,171.833 216.5,178.5C 218.167,178.5 219.833,178.5 221.5,178.5C 221.833,173.167 222.167,173.167 222.5,178.5C 223.833,178.5 225.167,178.5 226.5,178.5C 226.833,173.167 227.167,173.167 227.5,178.5C 233.365,178.685 238.865,178.352 244,177.5C 246.228,179.113 248.728,179.78 251.5,179.5 Z"/></g>
<g><path style="opacity:1" fill="#eaeaea" d="M 298.5,167.5 C 298.5,169.5 298.5,171.5 298.5,173.5C 303.478,172.974 308.478,173.64 313.5,175.5C 314.109,179.638 316.276,180.305 320,177.5C 325.072,178.471 330.238,178.805 335.5,178.5C 335.833,174.5 336.167,174.5 336.5,178.5C 338.167,178.5 339.833,178.5 341.5,178.5C 341.833,174.5 342.167,174.5 342.5,178.5C 343.833,178.5 345.167,178.5 346.5,178.5C 346.492,185.696 346.325,192.696 346,199.5C 344.67,198.418 343.17,197.751 341.5,197.5C 326.823,185.494 310.156,177.828 291.5,174.5C 293.5,174.5 295.5,174.5 297.5,174.5C 297.5,172.5 297.5,170.5 297.5,168.5C 293.828,167.955 294.162,167.622 298.5,167.5 Z"/></g>
<g><path style="opacity:1" fill="#f8f8f8" d="M 385.5,179.5 C 389.854,179.542 393.854,179.542 397.5,179.5C 399.833,179.5 402.167,179.5 404.5,179.5C 406.007,184.175 407.007,189.008 407.5,194C 407.539,195.245 407.205,196.578 406.5,198C 409.027,199.453 410.694,201.62 411.5,204.5C 411.167,204.833 410.833,205.167 410.5,205.5C 405.388,201.696 399.721,199.363 393.5,198.5C 393.167,198.5 392.833,198.5 392.5,198.5C 390.355,197.022 388.021,195.688 385.5,194.5C 387.991,193.459 387.991,192.626 385.5,192C 385.629,188.045 385.629,183.878 385.5,179.5 Z"/></g>
<g><path style="opacity:1" fill="#f4f3f3" d="M 157.5,180.5 C 158.833,180.5 160.167,180.5 161.5,180.5C 161.418,189.155 161.418,197.822 161.5,206.5C 157.097,207.107 155.764,205.44 157.5,201.5C 156.5,200.167 155.5,200.167 154.5,201.5C 155.767,203.371 155.767,205.204 154.5,207C 155.126,207.75 155.626,208.584 156,209.5C 157.401,207.808 159.234,207.141 161.5,207.5C 161.33,208.822 161.663,209.989 162.5,211C 161.139,212.584 160.472,214.418 160.5,216.5C 157.68,218.745 154.68,220.745 151.5,222.5C 152.412,221.262 152.579,219.928 152,218.5C 151.016,220.795 150.183,220.461 149.5,217.5C 150.188,207.735 150.521,198.069 150.5,188.5C 150.484,186.484 149.484,185.484 147.5,185.5C 150.368,183.088 153.701,181.421 157.5,180.5 Z"/></g>
<g><path style="opacity:1" fill="#f7f7f7" d="M 147.5,185.5 C 149.484,185.484 150.484,186.484 150.5,188.5C 150.521,198.069 150.188,207.735 149.5,217.5C 150.183,220.461 151.016,220.795 152,218.5C 152.579,219.928 152.412,221.262 151.5,222.5C 149.876,222.64 148.71,221.973 148,220.5C 145.894,222.291 143.394,222.958 140.5,222.5C 140.633,217.432 140.633,212.432 140.5,207.5C 144.5,207.167 144.5,206.833 140.5,206.5C 140.654,203.219 140.654,200.219 140.5,197.5C 139.692,197.808 139.025,198.308 138.5,199C 140.077,201.957 139.744,204.624 137.5,207C 139.414,211.858 140.081,217.025 139.5,222.5C 138.167,222.5 136.833,222.5 135.5,222.5C 135.757,214.547 135.757,206.713 135.5,199C 137.544,196.943 138.71,194.443 139,191.5C 139.333,192.833 139.667,194.167 140,195.5C 140.384,192.94 141.217,190.606 142.5,188.5C 143.659,186.75 145.326,185.75 147.5,185.5 Z"/></g>
<g><path style="opacity:1" fill="#e9e8e9" d="M 404.5,179.5 C 412.488,181.832 419.488,185.832 425.5,191.5C 425.119,192.931 424.119,193.764 422.5,194C 423.167,194.667 423.833,195.333 424.5,196C 424.055,202.379 423.721,208.545 423.5,214.5C 424.393,218.342 426.726,220.842 430.5,222C 429.862,223.707 429.862,225.54 430.5,227.5C 420.794,214.459 408.461,204.792 393.5,198.5C 399.721,199.363 405.388,201.696 410.5,205.5C 410.833,205.167 411.167,204.833 411.5,204.5C 410.694,201.62 409.027,199.453 406.5,198C 407.205,196.578 407.539,195.245 407.5,194C 407.007,189.008 406.007,184.175 404.5,179.5 Z"/></g>
<g><path style="opacity:1" fill="#c2bfc2" d="M 385.5,179.5 C 385.629,183.878 385.629,188.045 385.5,192C 387.991,192.626 387.991,193.459 385.5,194.5C 388.021,195.688 390.355,197.022 392.5,198.5C 385.247,197.176 377.913,196.509 370.5,196.5C 370.704,198.685 371.37,200.685 372.5,202.5C 370.584,200.884 369.084,201.218 368,203.5C 366.24,200.845 366.74,199.512 369.5,199.5C 368.96,198.252 368.293,197.085 367.5,196C 373.157,195.501 378.824,195.334 384.5,195.5C 384.179,189.974 384.512,184.64 385.5,179.5 Z"/></g>
<g><path style="opacity:1" fill="#a29ea3" d="M 288.5,229.5 C 287.833,229.167 287.167,228.833 286.5,228.5C 285.382,222.188 283.549,215.854 281,209.5C 279.875,212.784 278.875,216.117 278,219.5C 277.617,220.056 277.117,220.389 276.5,220.5C 277.759,216.952 278.593,213.285 279,209.5C 279.423,208.044 280.256,207.544 281.5,208C 285.119,214.692 287.452,221.859 288.5,229.5 Z"/></g>
<g><path style="opacity:1" fill="#f1f1f1" d="M 425.5,191.5 C 436.113,198.672 444.446,208.005 450.5,219.5C 449.735,222.096 449.401,224.763 449.5,227.5C 443.167,227.5 436.833,227.5 430.5,227.5C 429.862,225.54 429.862,223.707 430.5,222C 426.726,220.842 424.393,218.342 423.5,214.5C 423.721,208.545 424.055,202.379 424.5,196C 423.833,195.333 423.167,194.667 422.5,194C 424.119,193.764 425.119,192.931 425.5,191.5 Z"/></g>
<g><path style="opacity:1" fill="#f1f0f0" d="M 142.5,188.5 C 141.217,190.606 140.384,192.94 140,195.5C 139.667,194.167 139.333,192.833 139,191.5C 138.71,194.443 137.544,196.943 135.5,199C 135.757,206.713 135.757,214.547 135.5,222.5C 136.833,222.5 138.167,222.5 139.5,222.5C 140.081,217.025 139.414,211.858 137.5,207C 139.744,204.624 140.077,201.957 138.5,199C 139.025,198.308 139.692,197.808 140.5,197.5C 140.654,200.219 140.654,203.219 140.5,206.5C 144.5,206.833 144.5,207.167 140.5,207.5C 140.633,212.432 140.633,217.432 140.5,222.5C 143.394,222.958 145.894,222.291 148,220.5C 148.71,221.973 149.876,222.64 151.5,222.5C 145.847,228.472 141.18,235.139 137.5,242.5C 136.504,242.586 135.671,242.252 135,241.5C 135,240.167 135,238.833 135,237.5C 133.644,238.38 132.144,238.714 130.5,238.5C 130.5,237.167 130.5,235.833 130.5,234.5C 135.833,234.167 135.833,233.833 130.5,233.5C 130.167,226.833 129.833,226.833 129.5,233.5C 128.167,233.5 126.833,233.5 125.5,233.5C 125.665,230.15 125.498,226.817 125,223.5C 125.209,227.459 123.375,229.126 119.5,228.5C 119.167,233.833 118.833,233.833 118.5,228.5C 115.672,229.461 113.005,229.295 110.5,228C 113.146,227.503 115.813,227.336 118.5,227.5C 118.5,226.167 118.5,224.833 118.5,223.5C 115.206,222.947 113.54,223.947 113.5,226.5C 112.808,225.975 112.308,225.308 112,224.5C 111.329,225.252 110.496,225.586 109.5,225.5C 116.342,211.479 126.009,199.645 138.5,190C 139.745,189.209 141.078,188.709 142.5,188.5 Z"/></g>
<g><path style="opacity:1" fill="#f9f9f9" d="M 362.5,175.5 C 362.5,176.5 362.5,177.5 362.5,178.5C 358.5,178.833 358.5,179.167 362.5,179.5C 362.5,188.5 362.5,197.5 362.5,206.5C 358.5,206.833 358.5,207.167 362.5,207.5C 361.873,210.089 361.873,212.589 362.5,215C 362.095,215.945 361.428,216.612 360.5,217C 362.416,220.161 364.25,219.994 366,216.5C 366.419,217.672 367.085,218.672 368,219.5C 372.479,217.699 376.312,218.532 379.5,222C 379.167,222.333 378.833,222.667 378.5,223C 381.525,223.154 383.191,224.654 383.5,227.5C 381.876,227.64 380.71,226.973 380,225.5C 376.148,227.23 371.982,228.063 367.5,228C 371.486,228.499 375.486,228.666 379.5,228.5C 379.833,233.833 380.167,233.833 380.5,228.5C 385.26,228.201 386.594,230.201 384.5,234.5C 378.5,233.833 372.5,233.167 366.5,232.5C 366.546,229.449 365.546,226.782 363.5,224.5C 364.98,223.887 366.313,223.554 367.5,223.5C 364.567,222.229 361.901,220.562 359.5,218.5C 358.954,217.228 358.621,215.894 358.5,214.5C 358.599,203.32 358.599,191.987 358.5,180.5C 357.756,177.05 359.09,175.384 362.5,175.5 Z"/></g>
<g><path style="opacity:1" fill="#8e8d90" d="M 274.5,227.5 C 274.568,231.57 273.568,235.237 271.5,238.5C 271.882,234.554 272.882,230.888 274.5,227.5 Z"/></g>
<g><path style="opacity:1" fill="#edeced" d="M 450.5,219.5 C 456.258,229.274 459.758,239.941 461,251.5C 461.428,259.204 461.595,266.704 461.5,274C 459.808,286.92 455.475,298.753 448.5,309.5C 448.449,307.43 449.115,305.597 450.5,304C 450.097,302.527 449.43,301.194 448.5,300C 449.5,299.667 450.5,299.333 451.5,299C 450.831,296.738 450.498,294.571 450.5,292.5C 452.331,293.052 453.997,293.052 455.5,292.5C 456.357,289.549 456.357,286.549 455.5,283.5C 453.833,283.5 452.167,283.5 450.5,283.5C 449.473,276.875 449.139,267.542 449.5,255.5C 445.5,255.167 445.5,254.833 449.5,254.5C 449.5,253.167 449.5,251.833 449.5,250.5C 446.5,250.5 443.5,250.5 440.5,250.5C 440.666,258.507 440.5,266.507 440,274.5C 439.802,276.382 439.302,278.048 438.5,279.5C 441.858,261.13 439.192,243.797 430.5,227.5C 436.833,227.5 443.167,227.5 449.5,227.5C 449.401,224.763 449.735,222.096 450.5,219.5 Z"/></g>
<g><path style="opacity:1" fill="#f6f6f6" d="M 137.5,242.5 C 137.5,243.167 137.167,243.5 136.5,243.5C 135.438,245.482 134.105,247.315 132.5,249C 128.179,249.499 123.846,249.666 119.5,249.5C 119.5,247.833 119.5,246.167 119.5,244.5C 123.5,245.167 125.167,243.5 124.5,239.5C 122.833,239.5 121.167,239.5 119.5,239.5C 119.378,235.162 119.045,234.828 118.5,238.5C 115.482,238.665 112.482,238.498 109.5,238C 112.096,236.203 111.763,234.869 108.5,234C 108.603,231.375 108.936,228.541 109.5,225.5C 110.496,225.586 111.329,225.252 112,224.5C 112.308,225.308 112.808,225.975 113.5,226.5C 113.54,223.947 115.206,222.947 118.5,223.5C 118.5,224.833 118.5,226.167 118.5,227.5C 115.813,227.336 113.146,227.503 110.5,228C 113.005,229.295 115.672,229.461 118.5,228.5C 118.833,233.833 119.167,233.833 119.5,228.5C 123.375,229.126 125.209,227.459 125,223.5C 125.498,226.817 125.665,230.15 125.5,233.5C 126.833,233.5 128.167,233.5 129.5,233.5C 129.833,226.833 130.167,226.833 130.5,233.5C 135.833,233.833 135.833,234.167 130.5,234.5C 130.5,235.833 130.5,237.167 130.5,238.5C 132.144,238.714 133.644,238.38 135,237.5C 135,238.833 135,240.167 135,241.5C 135.671,242.252 136.504,242.586 137.5,242.5 Z"/></g>
<g><path style="opacity:1" fill="#7d7c7e" d="M 104.5,237.5 C 104.599,240.237 104.265,242.904 103.5,245.5C 103.073,248.01 102.407,250.343 101.5,252.5C 101.739,247.231 102.739,242.231 104.5,237.5 Z"/></g>
<g><path style="opacity:1" fill="#ededee" d="M 109.5,225.5 C 108.936,228.541 108.603,231.375 108.5,234C 111.763,234.869 112.096,236.203 109.5,238C 112.482,238.498 115.482,238.665 118.5,238.5C 119.045,234.828 119.378,235.162 119.5,239.5C 121.167,239.5 122.833,239.5 124.5,239.5C 125.167,243.5 123.5,245.167 119.5,244.5C 119.5,246.167 119.5,247.833 119.5,249.5C 123.846,249.666 128.179,249.499 132.5,249C 134.105,247.315 135.438,245.482 136.5,243.5C 133.65,252.602 132.317,261.935 132.5,271.5C 131.833,265.833 131.167,260.167 130.5,254.5C 129.986,253.375 129.653,252.209 129.5,251C 126.183,250.502 122.85,250.335 119.5,250.5C 119.5,251.833 119.5,253.167 119.5,254.5C 123.5,254.833 123.5,255.167 119.5,255.5C 119.182,264.751 119.515,273.917 120.5,283C 119.865,286.603 119.198,290.103 118.5,293.5C 118.773,291.549 118.107,290.049 116.5,289C 117.804,288.196 118.471,287.029 118.5,285.5C 117.86,275.953 117.86,265.953 118.5,255.5C 116.508,255.328 114.842,255.995 113.5,257.5C 111.78,256.045 109.78,255.212 107.5,255C 109.433,254.749 111.266,254.249 113,253.5C 114.699,254.406 116.533,254.739 118.5,254.5C 118.5,253.167 118.5,251.833 118.5,250.5C 114.486,250.666 110.486,250.499 106.5,250C 108.473,249.505 110.473,249.338 112.5,249.5C 112.5,247.833 112.5,246.167 112.5,244.5C 109.391,244.264 106.391,244.597 103.5,245.5C 104.265,242.904 104.599,240.237 104.5,237.5C 105.571,233.17 107.238,229.17 109.5,225.5 Z"/></g>
<g><path style="opacity:1" fill="#f5f4f4" d="M 286.5,228.5 C 285.883,228.611 285.383,228.944 285,229.5C 283.582,227.637 281.749,227.137 279.5,228C 281.192,229.401 281.859,231.234 281.5,233.5C 276.5,234.003 276.833,234.336 282.5,234.5C 282.5,235.833 282.5,237.167 282.5,238.5C 287.833,238.833 287.833,239.167 282.5,239.5C 282.5,240.833 282.5,242.167 282.5,243.5C 284.451,243.773 285.951,243.107 287,241.5C 287.499,245.821 287.666,250.154 287.5,254.5C 285.833,254.5 284.167,254.5 282.5,254.5C 282.167,249.167 281.833,249.167 281.5,254.5C 279.833,254.5 278.167,254.5 276.5,254.5C 276.5,253.167 276.5,251.833 276.5,250.5C 272.649,249.971 269.149,250.638 266,252.5C 263.916,249.967 261.916,249.967 260,252.5C 259.5,251.333 258.667,250.5 257.5,250C 258.416,249.722 259.082,249.222 259.5,248.5C 262.833,248.5 266.167,248.5 269.5,248.5C 270.374,245.211 271.041,241.877 271.5,238.5C 273.568,235.237 274.568,231.57 274.5,227.5C 274.721,224.933 275.388,222.599 276.5,220.5C 277.117,220.389 277.617,220.056 278,219.5C 278.875,216.117 279.875,212.784 281,209.5C 283.549,215.854 285.382,222.188 286.5,228.5 Z"/></g>
<g><path style="opacity:1" fill="#c0bfc1" d="M 288.5,229.5 C 290.867,235.098 292.867,240.931 294.5,247C 306.5,247.333 318.5,247.667 330.5,248C 330.833,248.333 331.167,248.667 331.5,249C 327.846,253.154 323.513,256.321 318.5,258.5C 318.389,257.883 318.056,257.383 317.5,257C 319.119,256.764 320.119,255.931 320.5,254.5C 321.189,253.293 321.355,251.959 321,250.5C 322.907,250.421 324.907,250.754 327,251.5C 327.833,250.667 328.667,249.833 329.5,249C 317.5,248.667 305.5,248.333 293.5,248C 292.421,245.957 290.754,244.624 288.5,244C 289.167,243.667 289.833,243.333 290.5,243C 289.643,242.311 288.977,241.478 288.5,240.5C 289.319,236.882 289.319,233.216 288.5,229.5 Z"/></g>
<g><path style="opacity:1" fill="#d2d1d2" d="M 271.5,238.5 C 271.041,241.877 270.374,245.211 269.5,248.5C 266.167,248.5 262.833,248.5 259.5,248.5C 251.826,248.334 244.159,248.5 236.5,249C 243.167,249.333 249.833,249.667 256.5,250C 255.874,250.75 255.374,251.584 255,252.5C 253.271,249.921 251.438,249.921 249.5,252.5C 245.759,250.669 241.759,250.003 237.5,250.5C 237.281,251.675 237.614,252.675 238.5,253.5C 242.682,253.441 245.016,255.441 245.5,259.5C 241.721,257.438 238.054,255.104 234.5,252.5C 232.679,251.272 231.679,249.606 231.5,247.5C 243.833,247.5 256.167,247.5 268.5,247.5C 268.928,244.215 269.928,241.215 271.5,238.5 Z"/></g>
<g><path style="opacity:1" fill="#f7f7f7" d="M 366.5,232.5 C 372.5,233.167 378.5,233.833 384.5,234.5C 385.376,234.369 386.043,234.702 386.5,235.5C 386.887,238.238 387.887,240.572 389.5,242.5C 389.958,245.394 389.291,247.894 387.5,250C 388.667,250.5 389.5,251.333 390,252.5C 390.798,260.246 390.631,267.913 389.5,275.5C 388.596,274.791 388.263,273.791 388.5,272.5C 387.5,272.5 386.5,272.5 385.5,272.5C 384.09,271.743 383.757,266.076 384.5,255.5C 382.549,255.227 381.049,255.893 380,257.5C 378.599,255.808 376.766,255.141 374.5,255.5C 372.958,254.859 371.624,253.859 370.5,252.5C 371.09,251.201 372.09,250.368 373.5,250C 372.448,248.881 371.281,248.381 370,248.5C 369.304,245.522 368.804,242.522 368.5,239.5C 373.992,239.832 379.325,239.832 384.5,239.5C 384.335,243.182 384.501,246.848 385,250.5C 385.067,247.953 385.901,245.786 387.5,244C 385.342,242.688 385.009,241.022 386.5,239C 380.472,238.83 374.472,238.33 368.5,237.5C 367.544,235.925 366.877,234.258 366.5,232.5 Z"/></g>
<g><path style="opacity:1" fill="#f8f8f8" d="M 450.5,292.5 C 449.89,290.15 449.556,290.483 449.5,293.5C 444.658,293.135 439.658,293.135 434.5,293.5C 437.061,289.267 438.394,284.601 438.5,279.5C 439.302,278.048 439.802,276.382 440,274.5C 440.5,266.507 440.666,258.507 440.5,250.5C 443.5,250.5 446.5,250.5 449.5,250.5C 449.5,251.833 449.5,253.167 449.5,254.5C 445.5,254.833 445.5,255.167 449.5,255.5C 449.139,267.542 449.473,276.875 450.5,283.5C 452.167,283.5 453.833,283.5 455.5,283.5C 456.357,286.549 456.357,289.549 455.5,292.5C 453.997,293.052 452.331,293.052 450.5,292.5 Z"/></g>
<g><path style="opacity:1" fill="#f8f7f7" d="M 130.5,254.5 C 131.167,260.167 131.833,265.833 132.5,271.5C 132.807,277.093 132.473,282.593 131.5,288C 132.416,288.374 133.25,288.874 134,289.5C 134.037,291.974 134.87,293.974 136.5,295.5C 136.317,297.936 136.984,300.103 138.5,302C 137.437,303.188 136.103,303.688 134.5,303.5C 134.5,305.5 134.5,307.5 134.5,309.5C 130.5,309.833 130.5,310.167 134.5,310.5C 134.5,311.833 134.5,313.167 134.5,314.5C 133.167,314.5 131.833,314.5 130.5,314.5C 130.5,312.833 130.5,311.167 130.5,309.5C 130.5,306.167 130.5,302.833 130.5,299.5C 137.167,299.167 137.167,298.833 130.5,298.5C 130.167,294.5 129.833,294.5 129.5,298.5C 128.167,298.5 126.833,298.5 125.5,298.5C 125.5,297.167 125.5,295.833 125.5,294.5C 127.167,294.5 128.833,294.5 130.5,294.5C 130.649,293.448 130.483,292.448 130,291.5C 128.951,293.107 127.451,293.773 125.5,293.5C 125.782,280.98 125.782,268.314 125.5,255.5C 126.822,255.33 127.989,255.663 129,256.5C 129.717,255.956 130.217,255.289 130.5,254.5 Z"/></g>
<g><path style="opacity:1" fill="#f1f1f1" d="M 118.5,293.5 C 115.762,294.035 113.928,293.035 113,290.5C 112.517,291.448 112.351,292.448 112.5,293.5C 107.461,294.917 106.461,293.417 109.5,289C 108.874,288.25 108.374,287.416 108,286.5C 106.989,287.337 105.822,287.67 104.5,287.5C 102.252,282.177 100.919,276.511 100.5,270.5C 100.852,264.533 101.185,258.533 101.5,252.5C 102.407,250.343 103.073,248.01 103.5,245.5C 106.391,244.597 109.391,244.264 112.5,244.5C 112.5,246.167 112.5,247.833 112.5,249.5C 110.473,249.338 108.473,249.505 106.5,250C 110.486,250.499 114.486,250.666 118.5,250.5C 118.5,251.833 118.5,253.167 118.5,254.5C 116.533,254.739 114.699,254.406 113,253.5C 111.266,254.249 109.433,254.749 107.5,255C 109.78,255.212 111.78,256.045 113.5,257.5C 114.842,255.995 116.508,255.328 118.5,255.5C 117.86,265.953 117.86,275.953 118.5,285.5C 118.471,287.029 117.804,288.196 116.5,289C 118.107,290.049 118.773,291.549 118.5,293.5 Z"/></g>
<g><path style="opacity:1" fill="#ecebec" d="M 202.5,221.5 C 190.812,245.913 189.478,270.913 198.5,296.5C 198.317,298.936 198.984,301.103 200.5,303C 199.577,305.041 199.244,307.208 199.5,309.5C 198.167,309.5 196.833,309.5 195.5,309.5C 195.663,307.143 195.497,304.81 195,302.5C 193.601,303.227 192.101,303.727 190.5,304C 191.793,304.49 193.127,304.657 194.5,304.5C 193.632,307.935 193.632,311.269 194.5,314.5C 193.167,314.5 191.833,314.5 190.5,314.5C 190.703,312.61 190.037,311.11 188.5,310C 189.61,307.263 189.777,304.429 189,301.5C 187.122,304.069 185.622,303.736 184.5,300.5C 186.078,299.702 187.744,299.202 189.5,299C 187.5,298.667 185.5,298.333 183.5,298C 184.167,297.667 184.833,297.333 185.5,297C 182.955,294.293 180.621,291.46 178.5,288.5C 175.145,278.565 173.812,268.232 174.5,257.5C 173.902,246.454 175.235,235.787 178.5,225.5C 178.708,227.92 178.374,230.253 177.5,232.5C 180.808,235.218 180.808,237.551 177.5,239.5C 176.167,242.833 176.167,246.167 177.5,249.5C 177.307,248.312 177.807,246.978 179,245.5C 179.49,246.793 179.657,248.127 179.5,249.5C 183.514,249.666 187.514,249.499 191.5,249C 193.906,244.481 193.573,240.314 190.5,236.5C 190.482,234.627 190.982,234.294 192,235.5C 193.11,233.963 194.61,233.297 196.5,233.5C 196.421,232.07 196.754,230.736 197.5,229.5C 196.271,228.719 194.938,228.219 193.5,228C 194.38,226.644 194.714,225.144 194.5,223.5C 193.167,223.5 191.833,223.5 190.5,223.5C 190.167,228.833 189.833,228.833 189.5,223.5C 188.127,223.657 186.793,223.49 185.5,223C 187.329,222.727 188.829,221.893 190,220.5C 191.049,222.107 192.549,222.773 194.5,222.5C 194.833,217.167 195.167,217.167 195.5,222.5C 197.95,222.702 200.283,222.369 202.5,221.5 Z"/></g>
<g><path style="opacity:1" fill="#f3f2f2" d="M 259.5,248.5 C 259.082,249.222 258.416,249.722 257.5,250C 258.667,250.5 259.5,251.333 260,252.5C 261.916,249.967 263.916,249.967 266,252.5C 269.149,250.638 272.649,249.971 276.5,250.5C 276.5,251.833 276.5,253.167 276.5,254.5C 278.167,254.5 279.833,254.5 281.5,254.5C 281.833,249.167 282.167,249.167 282.5,254.5C 284.167,254.5 285.833,254.5 287.5,254.5C 287.38,267.032 287.713,279.032 288.5,290.5C 285.628,289.474 283.128,287.807 281,285.5C 278.108,289.022 274.608,291.689 270.5,293.5C 268.193,293.986 266.027,293.986 264,293.5C 263.25,294.126 262.416,294.626 261.5,295C 260.97,296.256 260.97,297.756 261.5,299.5C 259.028,301.811 256.195,303.477 253,304.5C 252.699,301.493 252.865,298.493 253.5,295.5C 255.037,287.227 257.37,279.227 260.5,271.5C 255.652,267.251 250.652,263.251 245.5,259.5C 245.016,255.441 242.682,253.441 238.5,253.5C 237.614,252.675 237.281,251.675 237.5,250.5C 241.759,250.003 245.759,250.669 249.5,252.5C 251.438,249.921 253.271,249.921 255,252.5C 255.374,251.584 255.874,250.75 256.5,250C 249.833,249.667 243.167,249.333 236.5,249C 244.159,248.5 251.826,248.334 259.5,248.5 Z"/></g>
<g><path style="opacity:1" fill="#f7f7f6" d="M 286.5,228.5 C 287.167,228.833 287.833,229.167 288.5,229.5C 289.319,233.216 289.319,236.882 288.5,240.5C 288.977,241.478 289.643,242.311 290.5,243C 289.833,243.333 289.167,243.667 288.5,244C 290.754,244.624 292.421,245.957 293.5,248C 305.5,248.333 317.5,248.667 329.5,249C 328.667,249.833 327.833,250.667 327,251.5C 324.907,250.754 322.907,250.421 321,250.5C 321.355,251.959 321.189,253.293 320.5,254.5C 312.999,254.667 305.666,254.667 298.5,254.5C 298.228,258.902 298.561,263.235 299.5,267.5C 298.376,268.914 297.376,270.414 296.5,272C 296.465,275.401 296.632,278.901 297,282.5C 296.667,282.167 296.333,281.833 296,281.5C 294.933,282.191 293.766,282.691 292.5,283C 294.134,283.494 295.801,283.66 297.5,283.5C 297.5,286.833 297.5,290.167 297.5,293.5C 294.406,292.787 291.406,291.787 288.5,290.5C 287.713,279.032 287.38,267.032 287.5,254.5C 287.666,250.154 287.499,245.821 287,241.5C 285.951,243.107 284.451,243.773 282.5,243.5C 282.5,242.167 282.5,240.833 282.5,239.5C 287.833,239.167 287.833,238.833 282.5,238.5C 282.5,237.167 282.5,235.833 282.5,234.5C 276.833,234.336 276.5,234.003 281.5,233.5C 281.859,231.234 281.192,229.401 279.5,228C 281.749,227.137 283.582,227.637 285,229.5C 285.383,228.944 285.883,228.611 286.5,228.5 Z"/></g>
<g><path style="opacity:1" fill="#e9e8e8" d="M 320.5,254.5 C 320.119,255.931 319.119,256.764 317.5,257C 318.056,257.383 318.389,257.883 318.5,258.5C 312.781,262.359 307.448,266.693 302.5,271.5C 305.511,281.878 308.678,292.211 312,302.5C 312.808,304.579 312.641,306.579 311.5,308.5C 303.217,303.209 295.55,297.209 288.5,290.5C 291.406,291.787 294.406,292.787 297.5,293.5C 297.5,290.167 297.5,286.833 297.5,283.5C 295.801,283.66 294.134,283.494 292.5,283C 293.766,282.691 294.933,282.191 296,281.5C 296.333,281.833 296.667,282.167 297,282.5C 296.632,278.901 296.465,275.401 296.5,272C 297.376,270.414 298.376,268.914 299.5,267.5C 298.561,263.235 298.228,258.902 298.5,254.5C 305.666,254.667 312.999,254.667 320.5,254.5 Z"/></g>
<g><path style="opacity:1" fill="#f7f6f6" d="M 374.5,255.5 C 376.766,255.141 378.599,255.808 380,257.5C 381.049,255.893 382.549,255.227 384.5,255.5C 383.757,266.076 384.09,271.743 385.5,272.5C 386.5,272.5 387.5,272.5 388.5,272.5C 388.263,273.791 388.596,274.791 389.5,275.5C 389.617,277.484 388.95,279.15 387.5,280.5C 387.833,281.833 388.167,283.167 388.5,284.5C 387.846,286.115 387.346,287.782 387,289.5C 386.282,288.549 385.449,288.383 384.5,289C 385.792,292.165 385.792,295.332 384.5,298.5C 377.947,297.932 371.613,298.599 365.5,300.5C 364.943,298.282 364.943,295.949 365.5,293.5C 366.132,289.298 367.132,285.298 368.5,281.5C 369.963,278.797 370.796,275.797 371,272.5C 371.499,266.843 371.666,261.176 371.5,255.5C 372.5,255.5 373.5,255.5 374.5,255.5 Z"/></g>
<g><path style="opacity:1" fill="#bbb9bb" d="M 389.5,242.5 C 392.856,257.575 392.689,272.908 389,288.5C 387.962,293.119 386.462,297.452 384.5,301.5C 384.5,300.5 384.5,299.5 384.5,298.5C 385.792,295.332 385.792,292.165 384.5,289C 385.449,288.383 386.282,288.549 387,289.5C 387.346,287.782 387.846,286.115 388.5,284.5C 388.167,283.167 387.833,281.833 387.5,280.5C 388.95,279.15 389.617,277.484 389.5,275.5C 390.631,267.913 390.798,260.246 390,252.5C 389.5,251.333 388.667,250.5 387.5,250C 389.291,247.894 389.958,245.394 389.5,242.5 Z"/></g>
<g><path style="opacity:1" fill="#f4f4f4" d="M 130.5,254.5 C 130.217,255.289 129.717,255.956 129,256.5C 127.989,255.663 126.822,255.33 125.5,255.5C 125.782,268.314 125.782,280.98 125.5,293.5C 127.451,293.773 128.951,293.107 130,291.5C 130.483,292.448 130.649,293.448 130.5,294.5C 128.833,294.5 127.167,294.5 125.5,294.5C 125.5,295.833 125.5,297.167 125.5,298.5C 126.833,298.5 128.167,298.5 129.5,298.5C 129.833,294.5 130.167,294.5 130.5,298.5C 137.167,298.833 137.167,299.167 130.5,299.5C 130.5,302.833 130.5,306.167 130.5,309.5C 127.813,309.336 125.146,309.503 122.5,310C 124.107,311.049 124.773,312.549 124.5,314.5C 122.61,314.297 121.11,314.963 120,316.5C 117.911,314.543 117.077,312.376 117.5,310C 115.548,309.634 113.882,308.801 112.5,307.5C 108.629,301.388 105.963,294.722 104.5,287.5C 105.822,287.67 106.989,287.337 108,286.5C 108.374,287.416 108.874,288.25 109.5,289C 106.461,293.417 107.461,294.917 112.5,293.5C 112.351,292.448 112.517,291.448 113,290.5C 113.928,293.035 115.762,294.035 118.5,293.5C 119.198,290.103 119.865,286.603 120.5,283C 119.515,273.917 119.182,264.751 119.5,255.5C 123.5,255.167 123.5,254.833 119.5,254.5C 119.5,253.167 119.5,251.833 119.5,250.5C 122.85,250.335 126.183,250.502 129.5,251C 129.653,252.209 129.986,253.375 130.5,254.5 Z"/></g>
<g><path style="opacity:1" fill="#a8a7a7" d="M 132.5,271.5 C 133.595,279.406 134.929,287.406 136.5,295.5C 134.87,293.974 134.037,291.974 134,289.5C 133.25,288.874 132.416,288.374 131.5,288C 132.473,282.593 132.807,277.093 132.5,271.5 Z"/></g>
<g><path style="opacity:1" fill="#b2b1b6" d="M 438.5,279.5 C 438.394,284.601 437.061,289.267 434.5,293.5C 433.728,294.694 432.728,295.694 431.5,296.5C 434.138,290.9 436.471,285.233 438.5,279.5 Z"/></g>
<g><path style="opacity:1" fill="#b4b3b6" d="M 270.5,293.5 C 264.582,299.463 257.916,304.463 250.5,308.5C 249.762,303.783 250.762,299.45 253.5,295.5C 252.865,298.493 252.699,301.493 253,304.5C 256.195,303.477 259.028,301.811 261.5,299.5C 260.97,297.756 260.97,296.256 261.5,295C 262.416,294.626 263.25,294.126 264,293.5C 266.027,293.986 268.193,293.986 270.5,293.5 Z"/></g>
<g><path style="opacity:1" fill="#eaeaea" d="M 365.5,293.5 C 364.943,295.949 364.943,298.282 365.5,300.5C 371.613,298.599 377.947,297.932 384.5,298.5C 384.5,299.5 384.5,300.5 384.5,301.5C 380.704,311.254 375.704,320.421 369.5,329C 375.167,329.667 380.833,329.667 386.5,329C 393.964,326.457 401.297,323.624 408.5,320.5C 408.141,322.371 407.141,323.871 405.5,325C 406.423,327.041 406.756,329.208 406.5,331.5C 403.17,330.469 400.003,329.803 397,329.5C 395.957,333.226 395.457,332.893 395.5,328.5C 389.912,327.938 386.579,330.271 385.5,335.5C 384.781,333.909 383.781,332.409 382.5,331C 377.5,330.667 372.5,330.333 367.5,330C 369.324,327.848 369.657,325.348 368.5,322.5C 369.675,322.719 370.675,322.386 371.5,321.5C 368.914,320.52 366.247,320.187 363.5,320.5C 363.5,330.833 363.5,341.167 363.5,351.5C 363.167,351.5 362.833,351.5 362.5,351.5C 362.119,341.021 362.119,330.687 362.5,320.5C 361.167,320.5 359.833,320.5 358.5,320.5C 357.971,324.351 358.638,327.851 360.5,331C 358.746,335.87 357.913,341.037 358,346.5C 357.5,337.84 357.334,329.173 357.5,320.5C 354.833,320.5 352.167,320.5 349.5,320.5C 355.67,311.997 361.003,302.997 365.5,293.5 Z"/></g>
<g><path style="opacity:1" fill="#f7f7f7" d="M 450.5,292.5 C 450.498,294.571 450.831,296.738 451.5,299C 450.5,299.333 449.5,299.667 448.5,300C 449.43,301.194 450.097,302.527 450.5,304C 449.115,305.597 448.449,307.43 448.5,309.5C 446.071,310.265 444.738,311.931 444.5,314.5C 442.304,314.565 440.304,315.232 438.5,316.5C 438.833,317.167 439.167,317.833 439.5,318.5C 435.893,319.489 432.226,319.823 428.5,319.5C 428.167,315.5 427.833,315.5 427.5,319.5C 426.167,319.5 424.833,319.5 423.5,319.5C 423.5,318.167 423.5,316.833 423.5,315.5C 431.5,315.167 431.5,314.833 423.5,314.5C 423.185,312.774 423.019,311.107 423,309.5C 424.699,310.406 426.533,310.739 428.5,310.5C 428.36,308.876 429.027,307.71 430.5,307C 427.385,302.966 428.385,300.299 433.5,299C 432.244,298.583 431.577,297.75 431.5,296.5C 432.728,295.694 433.728,294.694 434.5,293.5C 439.658,293.135 444.658,293.135 449.5,293.5C 449.556,290.483 449.89,290.15 450.5,292.5 Z"/></g>
<g><path style="opacity:1" fill="#e6e6e6" d="M 136.5,295.5 C 141.422,306.651 148.755,315.985 158.5,323.5C 152.756,321.234 146.756,320.234 140.5,320.5C 140.665,323.518 140.498,326.518 140,329.5C 140.021,325.991 139.188,322.825 137.5,320C 139.107,318.951 139.773,317.451 139.5,315.5C 138.167,315.5 136.833,315.5 135.5,315.5C 135.744,319.678 135.744,323.844 135.5,328C 135.755,329.326 136.422,330.326 137.5,331C 136.833,331.333 136.167,331.667 135.5,332C 136.784,332.684 137.951,332.517 139,331.5C 139.585,333.661 140.418,335.661 141.5,337.5C 129.117,330.117 119.45,320.117 112.5,307.5C 113.882,308.801 115.548,309.634 117.5,310C 117.077,312.376 117.911,314.543 120,316.5C 121.11,314.963 122.61,314.297 124.5,314.5C 124.773,312.549 124.107,311.049 122.5,310C 125.146,309.503 127.813,309.336 130.5,309.5C 130.5,311.167 130.5,312.833 130.5,314.5C 131.833,314.5 133.167,314.5 134.5,314.5C 134.5,313.167 134.5,311.833 134.5,310.5C 130.5,310.167 130.5,309.833 134.5,309.5C 134.5,307.5 134.5,305.5 134.5,303.5C 136.103,303.688 137.437,303.188 138.5,302C 136.984,300.103 136.317,297.936 136.5,295.5 Z"/></g>
<g><path style="opacity:1" fill="#e2e2e2" d="M 431.5,296.5 C 431.577,297.75 432.244,298.583 433.5,299C 428.385,300.299 427.385,302.966 430.5,307C 429.027,307.71 428.36,308.876 428.5,310.5C 426.533,310.739 424.699,310.406 423,309.5C 423.019,311.107 423.185,312.774 423.5,314.5C 431.5,314.833 431.5,315.167 423.5,315.5C 423.5,316.833 423.5,318.167 423.5,319.5C 424.833,319.5 426.167,319.5 427.5,319.5C 427.833,315.5 428.167,315.5 428.5,319.5C 432.226,319.823 435.893,319.489 439.5,318.5C 439.167,317.833 438.833,317.167 438.5,316.5C 440.304,315.232 442.304,314.565 444.5,314.5C 444.738,311.931 446.071,310.265 448.5,309.5C 440.782,322.884 430.116,333.218 416.5,340.5C 416.489,338.983 415.823,337.816 414.5,337C 415.549,336.508 416.549,336.674 417.5,337.5C 418.167,335.5 418.833,333.5 419.5,331.5C 420.425,332.641 421.259,332.641 422,331.5C 422.499,327.514 422.666,323.514 422.5,319.5C 420.897,319.688 419.563,319.188 418.5,318C 421.167,317.333 421.167,316.667 418.5,316C 419.167,315.667 419.833,315.333 420.5,315C 419.748,314.329 419.414,313.496 419.5,312.5C 423.503,307.158 427.503,301.825 431.5,296.5 Z"/></g>
<g><path style="opacity:1" fill="#e7e7e7" d="M 178.5,288.5 C 180.621,291.46 182.955,294.293 185.5,297C 184.833,297.333 184.167,297.667 183.5,298C 185.5,298.333 187.5,298.667 189.5,299C 187.744,299.202 186.078,299.702 184.5,300.5C 185.622,303.736 187.122,304.069 189,301.5C 189.777,304.429 189.61,307.263 188.5,310C 190.037,311.11 190.703,312.61 190.5,314.5C 191.833,314.5 193.167,314.5 194.5,314.5C 193.632,311.269 193.632,307.935 194.5,304.5C 193.127,304.657 191.793,304.49 190.5,304C 192.101,303.727 193.601,303.227 195,302.5C 195.497,304.81 195.663,307.143 195.5,309.5C 196.833,309.5 198.167,309.5 199.5,309.5C 199.244,307.208 199.577,305.041 200.5,303C 198.984,301.103 198.317,298.936 198.5,296.5C 207.668,316.668 222.001,332.001 241.5,342.5C 236.555,342.033 231.888,341.7 227.5,341.5C 226.782,346.182 226.116,350.849 225.5,355.5C 226.193,356.518 226.859,357.518 227.5,358.5C 223.975,357.241 220.975,355.241 218.5,352.5C 219.496,352.414 220.329,352.748 221,353.5C 221.667,346.167 221.667,338.833 221,331.5C 219.887,332.711 218.72,332.711 217.5,331.5C 216.749,332.376 216.249,333.376 216,334.5C 214.866,332.195 213.366,330.195 211.5,328.5C 211.818,327.353 212.484,326.519 213.5,326C 212.167,325.333 210.833,324.667 209.5,324C 210.308,323.692 210.975,323.192 211.5,322.5C 210.941,319.715 209.608,317.382 207.5,315.5C 206.548,317.045 206.215,318.712 206.5,320.5C 204.5,320.5 202.5,320.5 200.5,320.5C 201.065,330.365 200.898,340.365 200,350.5C 199.102,340.365 198.935,330.365 199.5,320.5C 198.167,320.5 196.833,320.5 195.5,320.5C 195.5,330.833 195.5,341.167 195.5,351.5C 200.493,351.084 205.493,350.751 210.5,350.5C 209.391,351.29 208.058,351.79 206.5,352C 201.5,352.167 196.5,352.333 191.5,352.5C 184.589,352.724 177.922,352.058 171.5,350.5C 177.491,350.966 183.491,351.299 189.5,351.5C 188.35,345.531 188.184,339.531 189,333.5C 183.727,332.205 178.561,330.872 173.5,329.5C 177.5,329.5 181.5,329.5 185.5,329.5C 186.241,324.679 187.574,320.012 189.5,315.5C 186.079,308.99 182.913,302.324 180,295.5C 179.338,293.187 178.838,290.854 178.5,288.5 Z"/></g>
<g><path style="opacity:1" fill="#f8f8f8" d="M 218.5,352.5 C 216.574,351.758 214.741,350.758 213,349.5C 212.329,350.252 211.496,350.586 210.5,350.5C 205.493,350.751 200.493,351.084 195.5,351.5C 195.5,341.167 195.5,330.833 195.5,320.5C 196.833,320.5 198.167,320.5 199.5,320.5C 198.935,330.365 199.102,340.365 200,350.5C 200.898,340.365 201.065,330.365 200.5,320.5C 202.5,320.5 204.5,320.5 206.5,320.5C 206.215,318.712 206.548,317.045 207.5,315.5C 209.608,317.382 210.941,319.715 211.5,322.5C 210.975,323.192 210.308,323.692 209.5,324C 210.833,324.667 212.167,325.333 213.5,326C 212.484,326.519 211.818,327.353 211.5,328.5C 213.366,330.195 214.866,332.195 216,334.5C 216.249,333.376 216.749,332.376 217.5,331.5C 218.72,332.711 219.887,332.711 221,331.5C 221.667,338.833 221.667,346.167 221,353.5C 220.329,352.748 219.496,352.414 218.5,352.5 Z"/></g>
<g><path style="opacity:1" fill="#f8f8f8" d="M 385.5,335.5 C 386.043,335.56 386.376,335.893 386.5,336.5C 384.945,339.83 383.945,343.33 383.5,347C 385.18,346.229 386.847,346.395 388.5,347.5C 388.611,348.117 388.944,348.617 389.5,349C 387.608,349.973 385.608,350.64 383.5,351C 376.842,351.5 370.175,351.666 363.5,351.5C 363.5,341.167 363.5,330.833 363.5,320.5C 366.247,320.187 368.914,320.52 371.5,321.5C 370.675,322.386 369.675,322.719 368.5,322.5C 369.657,325.348 369.324,327.848 367.5,330C 372.5,330.333 377.5,330.667 382.5,331C 383.781,332.409 384.781,333.909 385.5,335.5 Z"/></g>
<g><path style="opacity:1" fill="#f0f0f0" d="M 419.5,312.5 C 419.414,313.496 419.748,314.329 420.5,315C 419.833,315.333 419.167,315.667 418.5,316C 421.167,316.667 421.167,317.333 418.5,318C 419.563,319.188 420.897,319.688 422.5,319.5C 422.666,323.514 422.499,327.514 422,331.5C 421.259,332.641 420.425,332.641 419.5,331.5C 418.833,333.5 418.167,335.5 417.5,337.5C 416.549,336.674 415.549,336.508 414.5,337C 415.823,337.816 416.489,338.983 416.5,340.5C 416.047,341.458 415.381,342.292 414.5,343C 411.26,344.4 407.927,345.567 404.5,346.5C 405.92,341.942 406.586,336.942 406.5,331.5C 406.756,329.208 406.423,327.041 405.5,325C 407.141,323.871 408.141,322.371 408.5,320.5C 411.881,317.454 415.548,314.787 419.5,312.5 Z"/></g>
<g><path style="opacity:1" fill="#f4f4f4" d="M 158.5,323.5 C 163.652,325.107 168.652,327.107 173.5,329.5C 178.561,330.872 183.727,332.205 189,333.5C 188.184,339.531 188.35,345.531 189.5,351.5C 183.491,351.299 177.491,350.966 171.5,350.5C 160.225,348.857 150.225,344.523 141.5,337.5C 140.418,335.661 139.585,333.661 139,331.5C 137.951,332.517 136.784,332.684 135.5,332C 136.167,331.667 136.833,331.333 137.5,331C 136.422,330.326 135.755,329.326 135.5,328C 135.744,323.844 135.744,319.678 135.5,315.5C 136.833,315.5 138.167,315.5 139.5,315.5C 139.773,317.451 139.107,318.951 137.5,320C 139.188,322.825 140.021,325.991 140,329.5C 140.498,326.518 140.665,323.518 140.5,320.5C 146.756,320.234 152.756,321.234 158.5,323.5 Z"/></g>
<g><path style="opacity:1" fill="#f8f7f7" d="M 406.5,331.5 C 406.586,336.942 405.92,341.942 404.5,346.5C 402.863,345.782 401.197,345.616 399.5,346C 400.167,346.333 400.833,346.667 401.5,347C 397.171,348.505 392.838,348.672 388.5,347.5C 386.847,346.395 385.18,346.229 383.5,347C 383.945,343.33 384.945,339.83 386.5,336.5C 386.376,335.893 386.043,335.56 385.5,335.5C 386.579,330.271 389.912,327.938 395.5,328.5C 395.457,332.893 395.957,333.226 397,329.5C 400.003,329.803 403.17,330.469 406.5,331.5 Z"/></g>
<g><path style="opacity:1" fill="#f6f5f5" d="M 349.5,320.5 C 352.167,320.5 354.833,320.5 357.5,320.5C 357.334,329.173 357.5,337.84 358,346.5C 357.913,341.037 358.746,335.87 360.5,331C 358.638,327.851 357.971,324.351 358.5,320.5C 359.833,320.5 361.167,320.5 362.5,320.5C 362.119,330.687 362.119,341.021 362.5,351.5C 360.5,351.5 358.5,351.5 356.5,351.5C 353.801,351.534 351.301,350.867 349,349.5C 347.226,350.965 345.392,352.298 343.5,353.5C 341.064,353.683 338.897,353.016 337,351.5C 336.594,345.464 336.427,339.631 336.5,334C 339.273,331.353 342.606,330.186 346.5,330.5C 346.338,328.473 346.505,326.473 347,324.5C 348.481,323.529 349.315,322.196 349.5,320.5 Z"/></g>
<g><path style="opacity:1" fill="#efefef" d="M 349.5,320.5 C 349.315,322.196 348.481,323.529 347,324.5C 346.505,326.473 346.338,328.473 346.5,330.5C 342.606,330.186 339.273,331.353 336.5,334C 336.427,339.631 336.594,345.464 337,351.5C 338.897,353.016 341.064,353.683 343.5,353.5C 337.904,358.132 331.571,361.466 324.5,363.5C 321.176,364.34 317.843,364.84 314.5,365C 317.167,364.333 317.167,363.667 314.5,363C 315.784,361.703 315.617,360.536 314,359.5C 313.64,361.608 312.973,363.608 312,365.5C 307.822,363.601 303.322,362.935 298.5,363.5C 298.5,362.167 298.5,360.833 298.5,359.5C 317.167,359.167 317.167,358.833 298.5,358.5C 298.5,355.833 298.5,353.167 298.5,350.5C 302.065,349.534 305.565,349.534 309,350.5C 310.771,348.709 312.604,347.043 314.5,345.5C 327.682,339.398 339.349,331.065 349.5,320.5 Z"/></g>
<g><path style="opacity:1" fill="#f6f6f6" d="M 241.5,342.5 C 244.829,343.831 248.162,345.164 251.5,346.5C 251.506,348.844 252.673,350.178 255,350.5C 256.841,349.875 258.674,349.708 260.5,350C 259.253,351.494 259.253,352.994 260.5,354.5C 261.386,353.675 261.719,352.675 261.5,351.5C 264.5,351.5 267.5,351.5 270.5,351.5C 270.5,355.5 270.5,359.5 270.5,363.5C 268.549,363.773 267.049,363.107 266,361.5C 264.475,362.72 262.641,363.387 260.5,363.5C 258.359,363.387 256.525,362.72 255,361.5C 254.612,362.428 253.945,363.095 253,363.5C 251.467,362.305 249.967,362.305 248.5,363.5C 247.41,362.609 247.41,361.609 248.5,360.5C 247.667,360.167 246.833,359.833 246,359.5C 240.447,360.39 234.613,360.39 228.5,359.5C 227.833,359.5 227.5,359.167 227.5,358.5C 226.859,357.518 226.193,356.518 225.5,355.5C 226.116,350.849 226.782,346.182 227.5,341.5C 231.888,341.7 236.555,342.033 241.5,342.5 Z"/></g>
<g><path style="opacity:1" fill="#a4a3a6" d="M 404.5,346.5 C 403.4,347.558 402.066,348.392 400.5,349C 385.849,352.519 371.182,353.352 356.5,351.5C 358.5,351.5 360.5,351.5 362.5,351.5C 362.833,351.5 363.167,351.5 363.5,351.5C 370.175,351.666 376.842,351.5 383.5,351C 385.608,350.64 387.608,349.973 389.5,349C 388.944,348.617 388.611,348.117 388.5,347.5C 392.838,348.672 397.171,348.505 401.5,347C 400.833,346.667 400.167,346.333 399.5,346C 401.197,345.616 402.863,345.782 404.5,346.5 Z"/></g>
<g><path style="opacity:1" fill="#e8e8e8" d="M 314.5,345.5 C 312.604,347.043 310.771,348.709 309,350.5C 305.565,349.534 302.065,349.534 298.5,350.5C 298.5,353.167 298.5,355.833 298.5,358.5C 317.167,358.833 317.167,359.167 298.5,359.5C 298.5,360.833 298.5,362.167 298.5,363.5C 303.322,362.935 307.822,363.601 312,365.5C 312.973,363.608 313.64,361.608 314,359.5C 315.617,360.536 315.784,361.703 314.5,363C 317.167,363.667 317.167,364.333 314.5,365C 317.843,364.84 321.176,364.34 324.5,363.5C 305.329,372.264 285.329,374.931 264.5,371.5C 260.453,369.74 256.12,368.74 251.5,368.5C 243.289,366.895 235.622,363.895 228.5,359.5C 234.613,360.39 240.447,360.39 246,359.5C 246.833,359.833 247.667,360.167 248.5,360.5C 247.41,361.609 247.41,362.609 248.5,363.5C 249.967,362.305 251.467,362.305 253,363.5C 253.945,363.095 254.612,362.428 255,361.5C 256.525,362.72 258.359,363.387 260.5,363.5C 262.641,363.387 264.475,362.72 266,361.5C 267.049,363.107 268.549,363.773 270.5,363.5C 270.5,359.5 270.5,355.5 270.5,351.5C 267.5,351.5 264.5,351.5 261.5,351.5C 261.719,352.675 261.386,353.675 260.5,354.5C 259.253,352.994 259.253,351.494 260.5,350C 258.674,349.708 256.841,349.875 255,350.5C 252.673,350.178 251.506,348.844 251.5,346.5C 272.581,353.312 293.581,352.978 314.5,345.5 Z"/></g>
<g><path style="opacity:1" fill="#808082" d="M 251.5,368.5 C 256.12,368.74 260.453,369.74 264.5,371.5C 259.88,371.26 255.547,370.26 251.5,368.5 Z"/></g>
</svg>
